<svg width="25" height="25" viewBox="0 0 25 25" fill="none" xmlns="http://www.w3.org/2000/svg">
<path d="M19.5 7.31H16.5V6.31C16.5 5.24913 16.0786 4.23172 15.3284 3.48157C14.5783 2.73142 13.5609 2.31 12.5 2.31C11.4391 2.31 10.4217 2.73142 9.67157 3.48157C8.92143 4.23172 8.5 5.24913 8.5 6.31V7.31H5.5C5.23478 7.31 4.98043 7.41535 4.79289 7.60289C4.60536 7.79043 4.5 8.04478 4.5 8.31V19.31C4.5 20.1056 4.81607 20.8687 5.37868 21.4313C5.94129 21.9939 6.70435 22.31 7.5 22.31H17.5C18.2956 22.31 19.0587 21.9939 19.6213 21.4313C20.1839 20.8687 20.5 20.1056 20.5 19.31V8.31C20.5 8.04478 20.3946 7.79043 20.2071 7.60289C20.0196 7.41535 19.7652 7.31 19.5 7.31ZM10.5 6.31C10.5 5.77956 10.7107 5.27086 11.0858 4.89578C11.4609 4.52071 11.9696 4.31 12.5 4.31C13.0304 4.31 13.5391 4.52071 13.9142 4.89578C14.2893 5.27086 14.5 5.77956 14.5 6.31V7.31H10.5V6.31ZM18.5 19.31C18.5 19.5752 18.3946 19.8296 18.2071 20.0171C18.0196 20.2046 17.7652 20.31 17.5 20.31H7.5C7.23478 20.31 6.98043 20.2046 6.79289 20.0171C6.60536 19.8296 6.5 19.5752 6.5 19.31V9.31H8.5V10.31C8.5 10.5752 8.60536 10.8296 8.79289 11.0171C8.98043 11.2046 9.23478 11.31 9.5 11.31C9.76522 11.31 10.0196 11.2046 10.2071 11.0171C10.3946 10.8296 10.5 10.5752 10.5 10.31V9.31H14.5V10.31C14.5 10.5752 14.6054 10.8296 14.7929 11.0171C14.9804 11.2046 15.2348 11.31 15.5 11.31C15.7652 11.31 16.0196 11.2046 16.2071 11.0171C16.3946 10.8296 16.5 10.5752 16.5 10.31V9.31H18.5V19.31Z" fill="white"/>
</svg>
