<svg width="18" height="19" viewBox="0 0 18 19" fill="none" xmlns="http://www.w3.org/2000/svg">
<path d="M6.72175 7.03603L9.66805 9.81379L6.72175 12.5916C6.65145 12.6578 6.59568 12.7365 6.55763 12.8231C6.51958 12.9097 6.5 13.0025 6.5 13.0963C6.5 13.19 6.51958 13.2828 6.55763 13.3694C6.59568 13.456 6.65145 13.5347 6.72175 13.601C6.79205 13.6673 6.87551 13.7199 6.96737 13.7557C7.05922 13.7916 7.15767 13.8101 7.25709 13.8101C7.35652 13.8101 7.45497 13.7916 7.54682 13.7557C7.63868 13.7199 7.72214 13.6673 7.79244 13.601L11.2779 10.3149C11.574 10.0357 11.574 9.5847 11.2779 9.30549L7.79244 6.01942C7.72219 5.95306 7.63875 5.9004 7.54688 5.86448C7.45502 5.82855 7.35655 5.81006 7.25709 5.81006C7.15764 5.81006 7.05917 5.82855 6.96731 5.86448C6.87544 5.9004 6.792 5.95306 6.72175 6.01942C6.43319 6.29863 6.4256 6.75682 6.72175 7.03603Z" fill="#3C3C3C"/>
</svg>
