<svg width="6" height="9" viewBox="0 0 6 9" fill="none" xmlns="http://www.w3.org/2000/svg">
<path d="M0.721748 2.03603L3.66805 4.81379L0.721748 7.59155C0.651445 7.65783 0.595678 7.73652 0.557631 7.82312C0.519583 7.90972 0.5 8.00254 0.5 8.09627C0.5 8.19001 0.519583 8.28283 0.557631 8.36943C0.595678 8.45603 0.651445 8.53471 0.721748 8.601C0.792051 8.66728 0.875512 8.71985 0.967367 8.75572C1.05922 8.7916 1.15767 8.81006 1.25709 8.81006C1.35652 8.81006 1.45497 8.7916 1.54682 8.75572C1.63868 8.71985 1.72214 8.66728 1.79244 8.601L5.27789 5.31493C5.57404 5.03572 5.57404 4.5847 5.27789 4.30549L1.79244 1.01942C1.72219 0.953056 1.63875 0.900403 1.54688 0.864477C1.45502 0.828551 1.35655 0.810059 1.25709 0.810059C1.15764 0.810059 1.05917 0.828551 0.967305 0.864477C0.875444 0.900403 0.791999 0.953056 0.721748 1.01942C0.433192 1.29863 0.425599 1.75682 0.721748 2.03603Z" fill="#3C3C3C"/>
</svg>
