<svg width="18" height="18" viewBox="0 0 18 18" fill="none" xmlns="http://www.w3.org/2000/svg">
<path d="M11.774 6.72175L8.99627 9.66805L6.21851 6.72175C6.15223 6.65145 6.07354 6.59568 5.98694 6.55763C5.90034 6.51958 5.80752 6.5 5.71379 6.5C5.62005 6.5 5.52723 6.51958 5.44063 6.55763C5.35403 6.59568 5.27534 6.65145 5.20906 6.72175C5.14278 6.79205 5.0902 6.87551 5.05433 6.96737C5.01846 7.05922 5 7.15767 5 7.25709C5 7.35652 5.01846 7.45497 5.05433 7.54682C5.0902 7.63868 5.14278 7.72214 5.20906 7.79244L8.49513 11.2779C8.77433 11.574 9.22536 11.574 9.50457 11.2779L12.7906 7.79244C12.857 7.72219 12.9097 7.63875 12.9456 7.54688C12.9815 7.45502 13 7.35655 13 7.25709C13 7.15764 12.9815 7.05917 12.9456 6.96731C12.9097 6.87544 12.857 6.792 12.7906 6.72175C12.5114 6.43319 12.0532 6.4256 11.774 6.72175Z" fill="#00A9E2"/>
</svg>
