<svg width="18" height="19" viewBox="0 0 18 19" fill="none" xmlns="http://www.w3.org/2000/svg">
<path d="M11.774 7.03175L8.99627 9.97805L6.21851 7.03175C6.15223 6.96144 6.07354 6.90568 5.98694 6.86763C5.90034 6.82958 5.80752 6.81 5.71379 6.81C5.62005 6.81 5.52723 6.82958 5.44063 6.86763C5.35403 6.90568 5.27534 6.96144 5.20906 7.03175C5.14278 7.10205 5.0902 7.18551 5.05433 7.27736C5.01846 7.36922 5 7.46767 5 7.56709C5 7.66651 5.01846 7.76496 5.05433 7.85682C5.0902 7.94867 5.14278 8.03214 5.20906 8.10244L8.49513 11.5879C8.77433 11.884 9.22536 11.884 9.50457 11.5879L12.7906 8.10244C12.857 8.03219 12.9097 7.94874 12.9456 7.85688C12.9815 7.76502 13 7.66654 13 7.56709C13 7.46764 12.9815 7.36916 12.9456 7.2773C12.9097 7.18544 12.857 7.102 12.7906 7.03175C12.5114 6.74319 12.0532 6.7356 11.774 7.03175Z" fill="#3C3C3C"/>
</svg>
