<svg width="18" height="19" viewBox="0 0 18 19" fill="none" xmlns="http://www.w3.org/2000/svg">
<path d="M11.2783 12.5841L8.33195 9.80633L11.2783 7.02857C11.3486 6.96228 11.4043 6.8836 11.4424 6.797C11.4804 6.7104 11.5 6.61758 11.5 6.52384C11.5 6.43011 11.4804 6.33729 11.4424 6.25069C11.4043 6.16409 11.3486 6.0854 11.2783 6.01912C11.2079 5.95284 11.1245 5.90026 11.0326 5.86439C10.9408 5.82852 10.8423 5.81006 10.7429 5.81006C10.6435 5.81006 10.545 5.82852 10.4532 5.86439C10.3613 5.90026 10.2779 5.95284 10.2076 6.01912L6.72211 9.30519C6.42596 9.58439 6.42596 10.0354 6.72211 10.3146L10.2076 13.6007C10.2778 13.6671 10.3613 13.7197 10.4531 13.7556C10.545 13.7916 10.6435 13.8101 10.7429 13.8101C10.8424 13.8101 10.9408 13.7916 11.0327 13.7556C11.1246 13.7197 11.208 13.6671 11.2783 13.6007C11.5668 13.3215 11.5744 12.8633 11.2783 12.5841Z" fill="#3C3C3C"/>
</svg>
