<svg width="57" height="57" viewBox="0 0 57 57" fill="none" xmlns="http://www.w3.org/2000/svg">
<rect x="1.5" y="1.81" width="54" height="54" rx="27" stroke="#F06432" stroke-width="2"/>
<path d="M35.5 23.81H32.5V22.81C32.5 21.7491 32.0786 20.7317 31.3284 19.9816C30.5783 19.2314 29.5609 18.81 28.5 18.81C27.4391 18.81 26.4217 19.2314 25.6716 19.9816C24.9214 20.7317 24.5 21.7491 24.5 22.81V23.81H21.5C21.2348 23.81 20.9804 23.9154 20.7929 24.1029C20.6054 24.2904 20.5 24.5448 20.5 24.81V35.81C20.5 36.6056 20.8161 37.3687 21.3787 37.9313C21.9413 38.4939 22.7044 38.81 23.5 38.81H33.5C34.2956 38.81 35.0587 38.4939 35.6213 37.9313C36.1839 37.3687 36.5 36.6056 36.5 35.81V24.81C36.5 24.5448 36.3946 24.2904 36.2071 24.1029C36.0196 23.9154 35.7652 23.81 35.5 23.81ZM26.5 22.81C26.5 22.2796 26.7107 21.7709 27.0858 21.3958C27.4609 21.0207 27.9696 20.81 28.5 20.81C29.0304 20.81 29.5391 21.0207 29.9142 21.3958C30.2893 21.7709 30.5 22.2796 30.5 22.81V23.81H26.5V22.81ZM34.5 35.81C34.5 36.0752 34.3946 36.3296 34.2071 36.5171C34.0196 36.7046 33.7652 36.81 33.5 36.81H23.5C23.2348 36.81 22.9804 36.7046 22.7929 36.5171C22.6054 36.3296 22.5 36.0752 22.5 35.81V25.81H24.5V26.81C24.5 27.0752 24.6054 27.3296 24.7929 27.5171C24.9804 27.7046 25.2348 27.81 25.5 27.81C25.7652 27.81 26.0196 27.7046 26.2071 27.5171C26.3946 27.3296 26.5 27.0752 26.5 26.81V25.81H30.5V26.81C30.5 27.0752 30.6054 27.3296 30.7929 27.5171C30.9804 27.7046 31.2348 27.81 31.5 27.81C31.7652 27.81 32.0196 27.7046 32.2071 27.5171C32.3946 27.3296 32.5 27.0752 32.5 26.81V25.81H34.5V35.81Z" fill="#F06432"/>
</svg>
