<svg width="56" height="57" viewBox="0 0 56 57" fill="none" xmlns="http://www.w3.org/2000/svg">
<rect x="0.5" y="1.31" width="55" height="55" rx="27.5" stroke="#C2C1C2"/>
<path d="M35 23.81H32V22.81C32 21.7491 31.5786 20.7317 30.8284 19.9816C30.0783 19.2314 29.0609 18.81 28 18.81C26.9391 18.81 25.9217 19.2314 25.1716 19.9816C24.4214 20.7317 24 21.7491 24 22.81V23.81H21C20.7348 23.81 20.4804 23.9154 20.2929 24.1029C20.1054 24.2904 20 24.5448 20 24.81V35.81C20 36.6056 20.3161 37.3687 20.8787 37.9313C21.4413 38.4939 22.2044 38.81 23 38.81H33C33.7956 38.81 34.5587 38.4939 35.1213 37.9313C35.6839 37.3687 36 36.6056 36 35.81V24.81C36 24.5448 35.8946 24.2904 35.7071 24.1029C35.5196 23.9154 35.2652 23.81 35 23.81ZM26 22.81C26 22.2796 26.2107 21.7709 26.5858 21.3958C26.9609 21.0207 27.4696 20.81 28 20.81C28.5304 20.81 29.0391 21.0207 29.4142 21.3958C29.7893 21.7709 30 22.2796 30 22.81V23.81H26V22.81ZM34 35.81C34 36.0752 33.8946 36.3296 33.7071 36.5171C33.5196 36.7046 33.2652 36.81 33 36.81H23C22.7348 36.81 22.4804 36.7046 22.2929 36.5171C22.1054 36.3296 22 36.0752 22 35.81V25.81H24V26.81C24 27.0752 24.1054 27.3296 24.2929 27.5171C24.4804 27.7046 24.7348 27.81 25 27.81C25.2652 27.81 25.5196 27.7046 25.7071 27.5171C25.8946 27.3296 26 27.0752 26 26.81V25.81H30V26.81C30 27.0752 30.1054 27.3296 30.2929 27.5171C30.4804 27.7046 30.7348 27.81 31 27.81C31.2652 27.81 31.5196 27.7046 31.7071 27.5171C31.8946 27.3296 32 27.0752 32 26.81V25.81H34V35.81Z" fill="#3C3C3C"/>
</svg>
