<svg width="56" height="57" viewBox="0 0 56 57" fill="none" xmlns="http://www.w3.org/2000/svg">
<rect x="1" y="1.81" width="54" height="54" rx="27" stroke="#F06432" stroke-width="2"/>
<path d="M28 18.81C25.3583 18.8437 22.8343 19.9081 20.9662 21.7762C19.0981 23.6443 18.0337 26.1683 18 28.81C18.0123 30.3489 18.3797 31.8642 19.0735 33.2379C19.7673 34.6116 20.7688 35.8067 22 36.73V36.81H22.1C23.7932 38.1075 25.8668 38.8106 28 38.8106C30.1332 38.8106 32.2068 38.1075 33.9 36.81H34V36.73C35.2312 35.8067 36.2327 34.6116 36.9265 33.2379C37.6203 31.8642 37.9877 30.3489 38 28.81C37.9663 26.1683 36.9019 23.6443 35.0338 21.7762C33.1657 19.9081 30.6417 18.8437 28 18.81ZM24.07 35.74C24.216 35.0714 24.5862 34.4729 25.1191 34.0436C25.652 33.6144 26.3157 33.3802 27 33.38H29C29.6843 33.3802 30.348 33.6144 30.8809 34.0436C31.4138 34.4729 31.784 35.0714 31.93 35.74C30.7389 36.4408 29.382 36.8104 28 36.8104C26.618 36.8104 25.2611 36.4408 24.07 35.74ZM33.61 34.45C33.2296 33.5409 32.5891 32.7646 31.7689 32.2184C30.9487 31.6722 29.9854 31.3805 29 31.38H27C26.0146 31.3805 25.0513 31.6722 24.2311 32.2184C23.4109 32.7646 22.7704 33.5409 22.39 34.45C21.6407 33.713 21.0439 32.8355 20.6338 31.8678C20.2237 30.9001 20.0084 29.861 20 28.81C20.0259 26.6963 20.8771 24.6765 22.3718 23.1818C23.8665 21.6871 25.8863 20.8359 28 20.81C30.1137 20.8359 32.1335 21.6871 33.6282 23.1818C35.1229 24.6765 35.9741 26.6963 36 28.81C35.9916 29.861 35.7763 30.9001 35.3662 31.8678C34.9561 32.8355 34.3593 33.713 33.61 34.45Z" fill="#F06432"/>
<path d="M28.0001 22.81C27.4714 22.7977 26.9458 22.8927 26.4549 23.0894C25.964 23.286 25.5182 23.5802 25.1442 23.9541C24.7703 24.3281 24.4761 24.7739 24.2795 25.2648C24.0828 25.7557 23.9878 26.2813 24.0001 26.81C23.9878 27.3386 24.0828 27.8643 24.2795 28.3552C24.4761 28.846 24.7703 29.2919 25.1442 29.6658C25.5182 30.0398 25.964 30.3339 26.4549 30.5306C26.9458 30.7273 27.4714 30.8223 28.0001 30.81C28.5287 30.8223 29.0544 30.7273 29.5453 30.5306C30.0361 30.3339 30.482 30.0398 30.8559 29.6658C31.2298 29.2919 31.524 28.846 31.7207 28.3552C31.9174 27.8643 32.0124 27.3386 32.0001 26.81C32.0124 26.2813 31.9174 25.7557 31.7207 25.2648C31.524 24.7739 31.2298 24.3281 30.8559 23.9541C30.482 23.5802 30.0361 23.286 29.5453 23.0894C29.0544 22.8927 28.5287 22.7977 28.0001 22.81ZM28.0001 28.81C27.734 28.8229 27.4682 28.7799 27.2198 28.684C26.9713 28.588 26.7456 28.4411 26.5573 28.2528C26.3689 28.0644 26.2221 27.8388 26.1261 27.5903C26.0301 27.3418 25.9872 27.076 26.0001 26.81C25.9872 26.5439 26.0301 26.2781 26.1261 26.0297C26.2221 25.7812 26.3689 25.5555 26.5573 25.3672C26.7456 25.1788 26.9713 25.032 27.2198 24.936C27.4682 24.8401 27.734 24.7971 28.0001 24.81C28.2661 24.7971 28.5319 24.8401 28.7804 24.936C29.0289 25.032 29.2545 25.1788 29.4429 25.3672C29.6312 25.5555 29.7781 25.7812 29.8741 26.0297C29.97 26.2781 30.0129 26.5439 30.0001 26.81C30.0129 27.076 29.97 27.3418 29.8741 27.5903C29.7781 27.8388 29.6312 28.0644 29.4429 28.2528C29.2545 28.4411 29.0289 28.588 28.7804 28.684C28.5319 28.7799 28.2661 28.8229 28.0001 28.81Z" fill="#F06432"/>
</svg>
