<svg width="57" height="57" viewBox="0 0 57 57" fill="none" xmlns="http://www.w3.org/2000/svg">
<rect x="1" y="1.31" width="55" height="55" rx="27.5" stroke="#C2C1C2"/>
<path d="M28.5 18.81C25.8583 18.8437 23.3343 19.9081 21.4662 21.7762C19.5981 23.6443 18.5337 26.1683 18.5 28.81C18.5123 30.3489 18.8797 31.8642 19.5735 33.2379C20.2673 34.6116 21.2688 35.8067 22.5 36.73V36.81H22.6C24.2932 38.1075 26.3668 38.8106 28.5 38.8106C30.6332 38.8106 32.7068 38.1075 34.4 36.81H34.5V36.73C35.7312 35.8067 36.7327 34.6116 37.4265 33.2379C38.1203 31.8642 38.4877 30.3489 38.5 28.81C38.4663 26.1683 37.4019 23.6443 35.5338 21.7762C33.6657 19.9081 31.1417 18.8437 28.5 18.81ZM24.57 35.74C24.716 35.0714 25.0862 34.4729 25.6191 34.0436C26.152 33.6144 26.8157 33.3802 27.5 33.38H29.5C30.1843 33.3802 30.848 33.6144 31.3809 34.0436C31.9138 34.4729 32.284 35.0714 32.43 35.74C31.2389 36.4408 29.882 36.8104 28.5 36.8104C27.118 36.8104 25.7611 36.4408 24.57 35.74ZM34.11 34.45C33.7296 33.5409 33.0891 32.7646 32.2689 32.2184C31.4487 31.6722 30.4854 31.3805 29.5 31.38H27.5C26.5146 31.3805 25.5513 31.6722 24.7311 32.2184C23.9109 32.7646 23.2704 33.5409 22.89 34.45C22.1407 33.713 21.5439 32.8355 21.1338 31.8678C20.7237 30.9001 20.5084 29.861 20.5 28.81C20.5259 26.6963 21.3771 24.6765 22.8718 23.1818C24.3665 21.6871 26.3863 20.8359 28.5 20.81C30.6137 20.8359 32.6335 21.6871 34.1282 23.1818C35.6229 24.6765 36.4741 26.6963 36.5 28.81C36.4916 29.861 36.2763 30.9001 35.8662 31.8678C35.4561 32.8355 34.8593 33.713 34.11 34.45Z" fill="#3C3C3C"/>
<path d="M28.5 22.81C27.9713 22.7977 27.4456 22.8927 26.9548 23.0894C26.4639 23.286 26.018 23.5802 25.6441 23.9541C25.2702 24.3281 24.976 24.7739 24.7794 25.2648C24.5827 25.7557 24.4876 26.2813 24.5 26.81C24.4876 27.3386 24.5827 27.8643 24.7794 28.3552C24.976 28.846 25.2702 29.2919 25.6441 29.6658C26.018 30.0398 26.4639 30.3339 26.9548 30.5306C27.4456 30.7273 27.9713 30.8223 28.5 30.81C29.0286 30.8223 29.5543 30.7273 30.0451 30.5306C30.536 30.3339 30.9819 30.0398 31.3558 29.6658C31.7297 29.2919 32.0239 28.846 32.2206 28.3552C32.4172 27.8643 32.5123 27.3386 32.5 26.81C32.5123 26.2813 32.4172 25.7557 32.2206 25.2648C32.0239 24.7739 31.7297 24.3281 31.3558 23.9541C30.9819 23.5802 30.536 23.286 30.0451 23.0894C29.5543 22.8927 29.0286 22.7977 28.5 22.81ZM28.5 28.81C28.2339 28.8229 27.9681 28.7799 27.7196 28.684C27.4712 28.588 27.2455 28.4411 27.0572 28.2528C26.8688 28.0644 26.7219 27.8388 26.626 27.5903C26.53 27.3418 26.4871 27.076 26.5 26.81C26.4871 26.5439 26.53 26.2781 26.626 26.0297C26.7219 25.7812 26.8688 25.5555 27.0572 25.3672C27.2455 25.1788 27.4712 25.032 27.7196 24.936C27.9681 24.8401 28.2339 24.7971 28.5 24.81C28.766 24.7971 29.0318 24.8401 29.2803 24.936C29.5288 25.032 29.7544 25.1788 29.9428 25.3672C30.1311 25.5555 30.278 25.7812 30.3739 26.0297C30.4699 26.2781 30.5128 26.5439 30.5 26.81C30.5128 27.076 30.4699 27.3418 30.3739 27.5903C30.278 27.8388 30.1311 28.0644 29.9428 28.2528C29.7544 28.4411 29.5288 28.588 29.2803 28.684C29.0318 28.7799 28.766 28.8229 28.5 28.81Z" fill="#3C3C3C"/>
</svg>
