<svg width="147" height="85" viewBox="0 0 147 85" fill="none" xmlns="http://www.w3.org/2000/svg">
<g clip-path="url(#clip0_381_3390)">
<path d="M94.3576 25.2101C95.8781 18.2731 96.4605 11.1652 96.0894 4.07488L96.029 3.48201L95.4329 3.30575C90.2478 2.14926 84.9803 1.39521 79.6777 1.05042C80.8094 15.5919 84.9899 26.4559 91.1357 35.8378C92.5023 32.3896 93.5799 28.8349 94.3576 25.2101Z" fill="#3C3C3C"/>
<path d="M66.904 0.930203C66.7268 3.8385 66.5012 6.74679 66.0703 9.65508C65.3809 15.0091 64.3041 20.3066 62.8484 25.5065C61.4275 30.7176 59.5711 35.8014 57.2986 40.7049C56.9816 41.3001 56.7018 41.9141 56.4609 42.5436C58.0393 45.3182 59.8989 47.925 62.0107 50.3231C65.7723 37.2598 68.3377 21.3524 68.817 0.870117C68.1605 0.870117 67.5041 0.930203 66.904 0.930203Z" fill="#3C3C3C"/>
<path d="M86.9596 40.7651C84.6865 35.8688 82.8301 30.7915 81.4099 25.5867C79.9522 20.3873 78.8755 15.0896 78.188 9.73528C77.8295 6.82699 77.5315 3.9187 77.3543 1.0104C76.7582 1.0104 76.1018 0.950317 75.4453 0.950317C75.9205 21.4326 78.4296 37.34 82.2476 50.3993C84.3786 48.0178 86.2397 45.4103 87.7973 42.6238C87.5561 41.9951 87.2777 41.3812 86.9637 40.7851" fill="#3C3C3C"/>
<path d="M75.2607 44.5626C74.3062 36.0741 73.7705 27.5255 73.4725 18.9769C73.2899 12.9199 73.1705 6.86433 73.1141 0.810059H71.1447C71.0856 6.867 70.9661 12.9226 70.7862 18.9769C70.4882 27.5255 70.0089 36.0741 68.994 44.5626C68.5913 48.2441 68.1 51.8654 67.5039 55.4868C68.833 56.5245 70.228 57.4759 71.6803 58.335L72.0831 58.5753L72.4858 58.335C73.9195 57.4457 75.3533 56.4963 76.6662 55.4868C76.1266 51.8815 75.5909 48.2441 75.2325 44.5626" fill="#3C3C3C"/>
<path d="M48.8807 3.36578L48.2846 3.54204L48.2242 4.13492C48.1638 4.53551 47.4469 13.8733 49.956 25.2701C50.7348 28.8947 51.8124 32.4492 53.1779 35.8978C59.2673 26.516 63.5041 15.6519 64.6358 1.10645C55.3285 1.70333 48.929 3.30569 48.8807 3.36578Z" fill="#3C3C3C"/>
<path d="M35.5096 67.3604H1.19211L0 70.6813H11.8164L6.68548 84.75H18.381L23.516 70.6813H34.3175L35.5096 67.3604Z" fill="#3C3C3C"/>
<path d="M121.697 67.3604H109.341L103.014 84.75H115.37L121.697 67.3604Z" fill="#3C3C3C"/>
<path d="M119.428 75.4323L126.766 84.75H140.97L132.795 75.5484L146.999 67.3604H132.557L119.428 75.4323Z" fill="#3C3C3C"/>
<path d="M105.402 70.6853L106.61 67.3604H75.0231L70.6816 79.29C70.5122 79.6624 70.4449 80.0728 70.4866 80.4795C70.5284 80.8862 70.6776 81.2747 70.9192 81.6054C71.1004 81.8457 72.5302 83.388 72.8322 83.7445C73.0869 84.0668 73.4133 84.3258 73.7859 84.501C74.1584 84.6761 74.5668 84.7628 74.9788 84.754H100.283L101.491 81.4291H83.7948C82.7235 81.4291 82.1838 80.5999 82.4818 79.8268L83.2591 77.6315H102.836L104.045 74.3066H84.4512L85.7642 70.7013L105.402 70.6853Z" fill="#3C3C3C"/>
<path d="M69.1151 67.3604H37.7014L31.3945 84.7541H43.3922L48.4626 70.6853H57.4155C57.5965 70.6667 57.7793 70.6938 57.9469 70.764C58.1146 70.8341 58.2618 70.9452 58.375 71.0869C58.4882 71.2286 58.5636 71.3964 58.5944 71.5747C58.6252 71.753 58.6104 71.9362 58.5513 72.1074C58.3096 72.8204 58.0116 73.6537 57.774 74.1864C57.6002 74.5895 57.307 74.9304 56.9336 75.1637C56.5603 75.397 56.1243 75.5116 55.6838 75.4924H47.2705L54.6125 84.8141H68.4587L62.2525 77.8679H66.01C66.6982 77.8999 67.3791 77.7166 67.9571 77.3436C68.535 76.9707 68.9809 76.4269 69.2319 75.7888C69.7716 74.4829 70.9033 71.2781 71.2456 70.2086C71.9021 68.3698 70.8872 67.3604 69.099 67.3604" fill="#3C3C3C"/>
</g>
<defs>
<clipPath id="clip0_381_3390">
<rect width="147" height="84" fill="white" transform="translate(0 0.810059)"/>
</clipPath>
</defs>
</svg>
