<svg width="155" height="87" viewBox="0 0 155 87" fill="none" xmlns="http://www.w3.org/2000/svg">
<path d="M1.42037 86.6591C0.940493 86.6591 -0.107479 86.7261 0.00896273 86.2004C0.0689476 85.9569 0.315945 85.8264 0.629984 85.7029C1.02799 85.5654 1.38983 85.3398 1.68854 85.043L5.8522 76.4828C5.92982 76.1794 5.73223 76.0947 5.45347 75.9183C5.28411 75.823 5.07945 75.6995 5.12885 75.5054C5.17978 75.3893 5.25591 75.286 5.35173 75.203C5.44756 75.12 5.56066 75.0594 5.68283 75.0255C5.89249 74.9578 6.11174 74.9244 6.33208 74.9267H13.8267C15.9861 74.9267 18.9007 75.1032 18.3714 77.1885C17.9868 78.727 15.3686 79.8632 13.4315 80.2654C15.5803 80.3007 17.0941 81.1475 16.6671 82.8271C16.346 84.1115 15.0405 85.1877 13.4526 85.844C11.766 86.5497 10.0229 86.6591 8.27629 86.6591H1.42037ZM8.15632 80.3289C9.53027 80.1273 10.8727 79.7502 12.1506 79.2069C13.128 78.7587 14.0878 78.0389 14.2889 77.2379C14.5747 76.0947 13.1668 76.0347 11.9565 76.0347C11.4379 76.0347 10.5134 76.0171 10.0476 76.3205C9.58185 76.624 8.35039 79.288 7.83876 80.3783L8.15632 80.3289ZM7.29184 81.5639L5.8275 84.8031C5.66519 85.4417 6.63553 85.4594 7.30595 85.4594C8.47751 85.502 9.64301 85.2725 10.711 84.789C11.6319 84.3232 12.327 83.6175 12.5176 82.8624C12.754 81.9168 11.9848 81.2746 10.9192 80.9711L7.29184 81.5639ZM18.442 81.7121C18.9113 79.849 20.3827 78.0389 22.4821 76.7369C24.7455 75.3647 27.3477 74.6533 29.9944 74.6833C34.2286 74.6833 37.1467 76.564 36.3245 79.8349C35.3154 83.8398 30.2908 86.892 24.8674 86.892C20.6155 86.892 17.6128 85.0007 18.442 81.698V81.7121ZM28.3395 84.8525C29.0718 84.4067 29.7251 83.8428 30.2731 83.1835C31.2485 82.0562 31.9705 80.7326 32.3902 79.3021C32.8136 77.6367 32.3338 75.8583 29.6733 75.8583C27.4503 75.8583 25.8801 76.9486 24.6486 78.3106C23.6431 79.424 22.9035 80.7511 22.4857 82.192C22.034 83.988 22.4468 85.6993 25.2767 85.6993C26.3496 85.679 27.4007 85.3929 28.336 84.8666L28.3395 84.8525ZM41.9243 77.5237L45.3928 84.9336C45.541 85.3041 45.8833 86.2674 46.2326 86.5038C46.4902 86.6803 47.0089 86.6626 47.3794 86.6626C48.3497 86.6626 48.7908 86.5991 49.186 85.8299L53.8542 76.3876C54.0888 76.1604 54.369 75.986 54.6764 75.8759C54.9657 75.7454 55.2339 75.6183 55.2974 75.3784C55.3927 74.9938 54.9445 74.9303 54.5458 74.9303H52.1041C51.6277 74.9303 51.0455 75.0608 50.9291 75.4913C50.8126 75.9218 51.7654 75.9394 51.6066 76.5675L48.8402 82.7107L44.9024 75.1102C44.6724 75.0053 44.4245 74.9454 44.172 74.9338H40.6717C40.2271 75.0644 39.8248 75.2055 39.7437 75.5266C39.6237 76.0065 40.7105 75.9782 40.5658 76.5534L36.3845 85.1806C36.1212 85.4338 35.8003 85.6191 35.4495 85.7205C35.0966 85.8475 34.8249 85.9746 34.7438 86.2498C34.6555 86.6026 35.0507 86.6626 35.4495 86.6626H38.0429C38.5157 86.6626 39.1544 86.5356 39.2603 86.1192C39.3908 85.5935 38.3252 85.7029 38.5122 84.9654L41.9243 77.5237ZM65.6466 76.5957C65.7343 76.4612 65.831 76.3327 65.9359 76.2111C66.2104 76.0846 66.514 76.0346 66.8145 76.0665C67.3951 76.0365 67.9763 76.1131 68.5294 76.2923C68.8308 76.4504 69.077 76.6966 69.2351 76.998C69.3013 77.125 69.4037 77.2297 69.5293 77.2987C69.6548 77.3678 69.798 77.3982 69.9408 77.3861C70.1864 77.3995 70.4296 77.3318 70.633 77.1935C70.8363 77.0551 70.9886 76.8538 71.0664 76.6204L71.264 75.4807C71.2993 75.3325 71.3522 75.0467 71.1758 74.9656C70.8445 74.9131 70.5085 74.8965 70.1737 74.9162H59.3411C58.6107 74.9162 57.8591 74.8068 57.3298 75.3643C56.874 75.8948 56.4809 76.4761 56.1584 77.0968C56.0878 77.3861 56.2325 77.5802 56.6418 77.5802C57.164 77.5802 57.4886 77.305 57.8732 77.065C58.4005 76.6866 58.9906 76.4047 59.6163 76.2323C60.1072 76.1266 60.6069 76.0676 61.1089 76.0559C61.9275 76.0559 61.8957 76.1829 61.6593 76.6945L57.665 85.0324C57.3702 85.3195 57.0195 85.5429 56.6347 85.6887C56.3418 85.8158 56.0737 85.9322 56.0172 86.1545C55.8937 86.6485 56.5183 86.6485 57.0193 86.6485H61.1159C61.6135 86.6485 62.2698 86.5427 62.3862 86.0734C62.4356 85.8828 62.2521 85.7558 62.0616 85.657C61.7793 85.4806 61.5923 85.3676 61.6734 85.0466L65.6466 76.5957ZM73.674 85.1242C73.5928 85.4312 73.7869 85.5229 74.0656 85.6993C74.235 85.8122 74.4185 85.9075 74.3655 86.1333C74.2385 86.645 73.5258 86.6591 73.0035 86.6591H68.9987C68.5682 86.6591 67.9648 86.6591 68.0812 86.2145C68.1377 85.9887 68.3635 85.8616 68.6529 85.7346C69.8067 85.1877 69.7538 85.0571 70.2548 84.0833L73.8398 76.5322C73.9245 76.1794 73.7445 76.13 73.4517 75.9359C73.2788 75.8406 73.0741 75.7136 73.1235 75.5231C73.2611 74.9761 74.115 74.9267 74.6725 74.9267H81.4579C83.8961 74.9267 87.5199 74.7821 86.8953 77.2697C86.4543 79.0163 83.9631 80.2478 81.7543 80.7135L81.9236 81.0664C82.6293 82.3931 82.7352 83.1835 82.8199 84.6231C82.8481 85.1206 82.8375 85.4276 83.3703 85.7029C83.5856 85.7946 83.7232 85.904 83.6491 86.1298C83.5221 86.645 82.7352 86.6732 82.2377 86.6732H77.5765C77.2589 86.6309 77.0331 86.5144 77.1037 86.2286C77.2695 85.5723 78.3987 85.8934 78.6139 85.0289C78.9068 83.8716 78.0917 82.3155 77.7423 81.4651L75.2547 81.7368L73.6669 85.1383L73.674 85.1242ZM75.8299 80.5512C77.3029 80.4733 78.7589 80.1992 80.1594 79.7361C81.3697 79.3056 82.34 78.4517 82.5799 77.5061C82.8869 76.2923 81.5037 75.9536 80.11 75.9536C77.7812 75.9536 77.64 76.818 76.959 78.1836L75.8299 80.5512ZM90.9178 82.813C90.4239 83.314 89.0548 84.7219 88.9454 85.1559C88.7902 85.7805 89.7923 85.6676 89.6687 86.1475C89.5064 86.7896 89.1924 86.6591 88.963 86.6591H85.311C85.1028 86.6309 84.8382 86.7438 84.9582 86.2427C85.0252 85.971 85.2581 85.8264 85.6145 85.7029C86.6131 85.3324 86.733 85.0289 87.3329 84.3691L93.4372 78.293L96.8317 75.5372C97.5726 74.9903 97.8232 74.6868 98.8394 74.6868C100.113 74.6868 100.134 75.1173 100.385 75.9218L101.091 80.156L101.221 84.7078C101.221 85.0924 101.144 85.4135 101.602 85.6676C101.828 85.8122 102.001 85.8969 101.955 86.1333C101.807 86.712 100.999 86.6767 100.455 86.6767H96.3483C95.8754 86.6767 95.4308 86.6309 95.5402 86.218C95.6073 85.9428 95.8507 85.8299 96.2001 85.7205C96.7858 85.5441 96.8811 85.5088 96.9975 85.0607C97.072 84.6146 97.1203 84.1645 97.1422 83.7128L97.1669 82.8307H90.9178V82.813ZM92.0999 81.5674H97.1951C97.3283 80.102 97.1956 78.6245 96.8034 77.2062L92.0999 81.5674ZM114.079 80.5089C113.299 80.5089 112.477 80.6006 112.297 81.324C112.184 81.7721 112.721 81.7897 113.172 81.7897C113.56 81.7897 115.289 81.7897 115.116 82.4954C114.847 83.4083 114.31 84.2195 113.575 84.8243C112.707 85.3685 111.698 85.6469 110.674 85.6252C107.823 85.6252 107.047 83.6528 107.498 81.8074C108.148 79.228 111.306 75.9571 115.261 75.9571C116.299 75.9571 117.223 76.1476 117.89 76.6628C118.109 76.8271 118.287 77.0402 118.409 77.2852C118.532 77.5302 118.596 77.8003 118.596 78.0742C118.652 78.427 118.751 78.7446 119.354 78.7446C119.537 78.748 119.717 78.7074 119.88 78.6264C120.044 78.5453 120.185 78.4261 120.293 78.2788C120.605 77.7935 120.859 77.2737 121.051 76.7298C121.1 76.6048 121.105 76.4669 121.065 76.3387C121.026 76.2105 120.944 76.0996 120.833 76.0241C120.392 75.739 119.918 75.5091 119.421 75.3396C118.107 74.9003 116.728 74.6867 115.342 74.708C112.598 74.6742 109.893 75.3656 107.502 76.7122C105.35 77.9578 103.719 79.8878 103.268 81.7297C102.396 85.1912 105.547 86.9237 109.93 86.9237C111.382 86.9153 112.829 86.7317 114.238 86.3768C115.226 86.1333 117.096 85.6535 117.876 85.1242C118.271 84.8525 118.278 84.4855 118.352 84.1644C118.677 82.88 119.03 82.3331 119.845 81.1652C120.099 80.4136 119.217 80.4947 118.871 80.4947L114.079 80.5089ZM127.967 79.7502L129.407 76.8815C129.556 76.6275 129.78 76.4264 130.049 76.3064C130.564 76.0665 131.768 76.0665 132.329 76.0665C133.081 76.0456 133.834 76.1095 134.573 76.257C134.774 76.2909 134.965 76.3672 135.134 76.481C135.304 76.5948 135.447 76.7434 135.554 76.9168C135.617 77.0482 135.718 77.1579 135.843 77.232C135.969 77.3062 136.114 77.3414 136.259 77.3332C136.547 77.3251 136.825 77.2235 137.05 77.0439C137.383 76.5937 137.623 76.0815 137.755 75.5372C137.897 74.9903 137.48 74.9267 136.831 74.9267H126.281C125.762 74.9267 125.039 74.962 124.905 75.4878C124.792 75.9535 125.776 75.9042 125.61 76.5005L121.433 85.0289C121.155 85.3458 120.798 85.5832 120.399 85.717C120.085 85.844 119.838 85.9569 119.778 86.2004C119.64 86.7438 120.702 86.6591 121.15 86.6591H131.93C132.403 86.6591 132.777 86.6591 133.077 86.3062C133.567 85.7513 133.984 85.1359 134.319 84.4749C134.386 84.2032 134.096 84.0727 133.751 84.0727C133.291 84.1092 132.852 84.2756 132.484 84.5526C131.682 85.0915 130.743 85.3924 129.777 85.4206L127.216 85.4841C126.355 85.4841 125.554 85.4841 125.751 84.6972L127.463 80.9146H131.496C131.82 81.0734 132.445 81.5075 132.748 81.5075C132.907 81.5128 133.065 81.4841 133.212 81.4232C133.359 81.3623 133.491 81.2708 133.599 81.1546C133.908 80.6798 134.166 80.1735 134.368 79.6444C134.435 79.3692 134.322 79.1504 133.909 79.1504C133.679 79.1577 133.454 79.2245 133.257 79.3445C132.834 79.5748 132.37 79.7199 131.891 79.7714L127.967 79.7502ZM141.577 85.1242C141.496 85.4312 141.69 85.5229 141.969 85.6993C142.134 85.8122 142.321 85.9075 142.268 86.1333C142.141 86.645 141.429 86.6591 140.91 86.6591H136.923C136.489 86.6591 135.885 86.6591 135.998 86.2145C136.055 85.9887 136.281 85.8616 136.573 85.7346C137.724 85.1877 137.671 85.0571 138.175 84.0833L141.76 76.5322C141.849 76.1794 141.669 76.13 141.369 75.9359C141.199 75.8406 140.995 75.7136 141.044 75.5231C141.182 74.9761 142.039 74.9267 142.597 74.9267H149.378C151.824 74.9267 155.44 74.7821 154.816 77.2697C154.378 79.0163 151.884 80.2478 149.668 80.7135L149.844 81.0664C150.55 82.3931 150.656 83.1835 150.744 84.6231C150.772 85.1206 150.744 85.4276 151.291 85.7029C151.506 85.7946 151.644 85.904 151.573 86.1298C151.446 86.645 150.659 86.6732 150.162 86.6732H145.501C145.183 86.6309 144.954 86.5144 145.031 86.2286C145.19 85.5723 146.323 85.8934 146.538 85.0289C146.831 83.8716 146.012 82.3155 145.666 81.4651L143.175 81.7368L141.587 85.1383L141.577 85.1242ZM143.75 80.5512C145.223 80.4726 146.679 80.1985 148.08 79.7361C149.29 79.3056 150.261 78.4517 150.497 77.5061C150.807 76.2923 149.421 75.9536 148.027 75.9536C145.695 75.9536 145.536 76.818 144.873 78.1836L143.75 80.5512Z" fill="#3C3C3C"/>
<path d="M86.6173 29.5887C78.7486 29.0559 72.5455 32.9831 68.6606 37.2315C65.4285 40.827 62.6374 45.3224 61.84 49.3167C60.6685 55.167 63.8053 60.2551 72.7325 60.2551C82.1995 60.2551 87.9616 54.2284 89.7541 52.4606C93.085 49.172 95.7808 44.1686 96.4583 40.326C97.3793 35.0508 94.4717 30.118 86.6243 29.5887H86.6173ZM62.7891 3.36471C55.6204 7.07876 50.0858 13.3218 47.2578 20.884C44.4298 28.4462 44.5098 36.789 47.4824 44.2956L50.3405 38.4135L65.118 6.75914C66.1765 4.32093 64.5781 2.66959 62.7856 3.36471H62.7891ZM86.2221 0.810059L76.875 21.9212C80.9336 21.006 85.082 20.548 89.2425 20.5557C98.6037 20.5557 106.201 23.0786 110.061 27.7186C109.151 21.3946 106.409 15.4757 102.172 10.6935C97.9354 5.91119 92.3903 2.47517 86.2221 0.810059Z" fill="#3C3C3C"/>
</svg>
