<svg xmlns="http://www.w3.org/2000/svg" width="121.977" height="96.005" viewBox="0 0 121.977 96.005">
  <g id="Group_1" data-name="Group 1" transform="translate(-1149 -534)">
    <path id="Vector" d="M37.425,62.692a3.1,3.1,0,0,1-.34-.148c-.228-.148-.426-.343-.653-.486s-.454-.228-.653-.369a2.113,2.113,0,0,0-.681-.429c-.284-.114-.369-.056-.6.171a4.4,4.4,0,0,0-.51.513c-.085.114-.085.257-.2.4a.722.722,0,0,1-.284.229c-.2.148-.454.2-.653.371s-.254.427-.453.6c.028,0,.028-.03.056-.058-.171.172-.312.371-.482.543a1.44,1.44,0,0,1-.568.341,3.513,3.513,0,0,0-.993.856,2.912,2.912,0,0,1-1.106.856c-.312.148-.482.17-.653.485-.147.256-.171.655-.34.887-.228.285-.653.114-.965.228a1.9,1.9,0,0,0-.588.513c-.2.229-.313.485-.512.684a3.3,3.3,0,0,0-.453.427c-.085.115-.085.285-.2.371-.171.115-.427.086-.6.172a3.006,3.006,0,0,0-.71.457c-.4.313-.882.826-1.447.77-.084-.285.482-.514.681-.739.17-.2.147-.343.228-.541.085-.229.312-.315.51-.457a1.453,1.453,0,0,0,.568-1.035,1.352,1.352,0,0,1,.681-.887c.226-.114.312-.056.482-.228a5.327,5.327,0,0,0,.482-.627,6.7,6.7,0,0,0,.85-.942,5.333,5.333,0,0,1,1.193-1.568,16.847,16.847,0,0,1,1.39-1.169c.256-.148.851-.257.993-.571.113-.285-.085-.427.2-.712.113-.148.312-.2.369-.371.057-.114,0-.313.028-.457a2.753,2.753,0,0,1,.427-.739c-.369-.058-.71-.543-1.05-.656a1.031,1.031,0,0,0-1.078.086c-.427-.257-.709-.656-1.221-.4-.369.2-.6.57-.965.8-.4.257-.907.285-1.3.542-.341.2-.681.427-1.022.627-.084-.086-.254-.114-.312-.2-.147-.171.029-.542-.34-.542-.147,0-.2.115-.312.171-.171.058-.369.028-.54.086-.312.058-1.39.343-1.078.826.2.315.425.029.681,0a.57.57,0,0,1,.369.115c.056.028.284.028.34.056a.31.31,0,0,1,0,.542c-.34.2-.993.028-1.362.056-.568.086-.624.77-1.106.913a3.317,3.317,0,0,0-1.276.513,2.106,2.106,0,0,1-1.078.427,3.514,3.514,0,0,0-.937.257c-.171.114-.256.313-.425.371a3.6,3.6,0,0,1-.54.148c-.623.228-1.106.712-1.787.684.2-.313.538-.541.735-.826a2.254,2.254,0,0,1,1.029-.828c.709-.285.851-.94,1.334-1.454a3.154,3.154,0,0,0,.681.229c0-.313.4-.457.623-.57a5.884,5.884,0,0,0,.822-.542c.228-.17.512-.285.71-.455s.369-.457.624-.57a8.344,8.344,0,0,1,1.191-.4c.369-.172.369-.285.568-.628a2.808,2.808,0,0,1,.454-.569,4.867,4.867,0,0,1,.882-.828,5.916,5.916,0,0,0,.993-.627c-.147-.114-.171-.257-.34-.343-.228-.114-.228.03-.454.058a1.339,1.339,0,0,1-1.078-.542c-.284-.371-.851-1.026-1.334-.8-.369.2-.538.485-.965.485-.312,0-.568-.058-.882-.058a2.59,2.59,0,0,0-.822-.084c-.312.084-.625.37-.937.455-.254.086-.568.114-.822.2s-.4.257-.653.371c-.226.114-.482.257-.709.343a2.881,2.881,0,0,1-.993.056A4.925,4.925,0,0,0,14.4,57.9c-.4.2-.766.056-1.163.086a4.065,4.065,0,0,0-.823.313,10.51,10.51,0,0,0-1.021.371c-.228.086-.512.256-.766.148.028-.371.709-.655.935-.94.313-.343.568-.739.909-1.055.482-.485,1.39-.343,2.013-.427,1.05-.148,1.959-.942,2.922-1.341a5.162,5.162,0,0,1,.71-.285c.312-.058.624.028.907-.172.256-.171.882-.656.937-.912a1.825,1.825,0,0,1-1.362-.856,3.8,3.8,0,0,0-1.391-.712,4.73,4.73,0,0,0-.882-.343,1.57,1.57,0,0,0-.709.114c-.482.115-.965.285-1.447.4-.312.084-.651.2-.965.284-.254.058-.566-.028-.822.03s-.482.313-.735.4c-.34.148-.453.028-.766-.058a3.4,3.4,0,0,0-1.618.148,5.235,5.235,0,0,1-1.765.056,1.817,1.817,0,0,1,1.163-.77,7.686,7.686,0,0,0,.794-.17c.256-.086.51-.257.766-.315s.623.058.851-.084.34-.485.566-.656a5.366,5.366,0,0,1,.625-.313,1.307,1.307,0,0,0,.425-.457,1.19,1.19,0,0,1,.6-.371c.057-.028.653-.2.653-.2a5.754,5.754,0,0,0-.851-.6,8.234,8.234,0,0,0-.794-.627c-.568-.343-1.248-.115-1.419-.887-.822-.285-1.191.627-2.013.341-.2-.086-.369-.257-.6-.341-.313-.114-.54.114-.882.056-.512-.056-.994-.313-1.5-.371-.312-.028-.653,0-.965-.056a7.535,7.535,0,0,0-.766-.228,2.784,2.784,0,0,0-.85,0,1.664,1.664,0,0,1-.824.114c.171-.429,1.249-.57,1.646-.684.312-.086.681-.058.993-.148a2.509,2.509,0,0,1,.937-.2c.284,0,.538-.114.822-.114.341,0,.6.257.882.285a1.237,1.237,0,0,0,.766-.313c.2-.2.057-.371-.147-.571a4.321,4.321,0,0,0-.709-.542c-.284-.228-.147-.427-.171-.8a2.067,2.067,0,0,1-1.59-.739c-.368-.57-.993-.485-1.39-.913a5.17,5.17,0,0,1-.312-.739,1.773,1.773,0,0,0-.482-.628,1.44,1.44,0,0,1-.568-1.283,6.853,6.853,0,0,0-.028-.77c-.028-.17-.226-.427-.057-.541.54.228.882.97,1.276,1.369.171.172.4.256.568.427.284.285.512.57.794.856a1.759,1.759,0,0,0,.735.57,1.12,1.12,0,0,1,.653.684c.2.427.766.6,1.106.94.369.371.653.514.766,1,.085.315.226.315.482.514.226.171.425.114.653.228.2.114.368.4.538.57a6.328,6.328,0,0,0,1.135,1.169,3.319,3.319,0,0,0,.822.228c.256.086.454.229.766.313.369.115.625.148.823.485.147.285.2.571.453.77.426.313,1.05.343,1.5.628.226.148.34.4.6.485.147.056.312,0,.453.086s.171.284.256.4a2.4,2.4,0,0,0,.882.369,1.3,1.3,0,0,1,.623.714c.029.056.085.37.147.4.085.056.34,0,.454,0,.51.028.965.485,1.39.684.369.17.766.285,1.135.485.312.17.566.4.85.541.113.058.228.086.341.148a4.523,4.523,0,0,1,.794.684c.482.37,1.276.086,1.731.569.085.086.056.229.169.285.147.086.454.058.625.115a2.376,2.376,0,0,1,.681.313,4.91,4.91,0,0,0,1.618.655A3.132,3.132,0,0,1,30.2,57c.369.256.681.912,1.134,1.026.4.114.735-.2,1.107-.2.284,0,.34.2.538.371.057.056.256.256.313.256.169.03.34-.148.51-.148.312,0,.482.285.6.513.2.4.171.371.568.313.425-.056.538.115.882.257a1.914,1.914,0,0,0,1.134-.028c.341-.03.426.171.653.4a3.838,3.838,0,0,0,1.306.8,6.041,6.041,0,0,0,1.362.513,2.15,2.15,0,0,1,.735.148c.2.114.284.341.482.427.256.114.425-.056.709.114.171.114.313.371.482.457.147.058.2,0,.341.028a4.368,4.368,0,0,1,.568.171,5.66,5.66,0,0,0,.709,0,1.7,1.7,0,0,1,.907.285c.2.148.284.371.482.485a2.732,2.732,0,0,0,.625.228c.227.058.51-.056.735.028s.454.343.681.457a2.148,2.148,0,0,0,.454.148,3.024,3.024,0,0,1,.453.2c.313.148.426,0,.735-.058a1.737,1.737,0,0,1,.766.114,1.585,1.585,0,0,1,.794.285,3.688,3.688,0,0,0,.824.257c.147.056.169.114.34.114.147,0,.227-.114.4-.086a2.246,2.246,0,0,1,.823.313c.227.148.453.343.709.313a1.675,1.675,0,0,1,.681-.084c.056,0,.312.114.369.084.169-.056.056-.114.113-.256a6.485,6.485,0,0,0,.343-.615c.085-.114.228-.2.284-.343a1.466,1.466,0,0,0,.057-.371c.085-.284.284-.4.4-.627a6.521,6.521,0,0,1,.226-.684,1.566,1.566,0,0,0,.226-.8c0-.57.341-.712.653-1.141.312-.455.057-1.026.2-1.54a2.816,2.816,0,0,1,.341-.854c.147-.229.4-.371.538-.571a2.9,2.9,0,0,0,.312-1.712c.057-.6.735-1.054.766-1.738,0-.371-.056-.429.313-.542a5.845,5.845,0,0,1,.765-.148,1.769,1.769,0,0,0,.341-.148.62.62,0,0,1,.312-.028,2.217,2.217,0,0,0,.965-.086c.51-.257.709-.656,1.362-.571a3.059,3.059,0,0,0,1.419-.285,5.722,5.722,0,0,1,1.7-.427c.454-.028.851-.542,1.135-.887s.766-.941,1.248-.856c.4.086.709.591,1.134.542a2.031,2.031,0,0,1,.228.427,2.948,2.948,0,0,1,1.163.887c.312.427.765.712.935,1.227-.028.028-.057.028-.057.056-.254-.114-.51-.256-.765-.4-.171-.086-.625-.4-.824-.371s-.369.343-.482.429a2.047,2.047,0,0,0-.51.485c-.284.455-.653.77-.907,1.225-.171.285-.029.371-.057.712a2.924,2.924,0,0,1-.2.714,2.378,2.378,0,0,0-.227.285c-.085.256.028.455-.2.684a1.843,1.843,0,0,1-.454.369c.085.257.4.315.482.542a1.706,1.706,0,0,1,.028.656c-.028.228-.2.4-.254.627a3.33,3.33,0,0,0-.115.712,1.483,1.483,0,0,1-.425,1c-.312.4-.2.684.057,1.083a1.852,1.852,0,0,0-.313.94,6.255,6.255,0,0,1-.028,1.035,2.871,2.871,0,0,0-.147,1.682,4.156,4.156,0,0,1,1.191-.028,5.991,5.991,0,0,0,.709.028c.228-.028.426-.148.653-.171.454-.056.852-.172,1.277-.256a4.219,4.219,0,0,0,.54-.172,1.824,1.824,0,0,1,.681-.028c.34,0,.566-.315.822-.4a1.035,1.035,0,0,1,.588.03c.4.086.51.028.794-.285a.959.959,0,0,1,.735-.285,1.6,1.6,0,0,0,.709-.228,2.936,2.936,0,0,0,.71-.229,3.708,3.708,0,0,1,.735-.4l.681-.257a5.9,5.9,0,0,1,.623-.228c.256-.114.512-.056.766-.148.228-.058.4-.257.625-.343.254-.086.482-.028.735-.148a6.275,6.275,0,0,1,.588-.285c.256-.058.482.028.735-.086a2.224,2.224,0,0,0,.51-.313c.2-.148.2-.257.426-.2.169.056.282.228.453.285.171-.086.228-.371.313-.542a.768.768,0,0,1,.481-.541,5.394,5.394,0,0,1,.965.028,1.477,1.477,0,0,0,1.276-.542c.4-.37,1.029-.37,1.532-.541.54-.2.965-.739,1.5-.97a2.2,2.2,0,0,1,.85-.228c.512-.058.71,0,1.107-.371a4,4,0,0,1,.453-.513,1.6,1.6,0,0,1,.965-.2c.681,0,.909-.371,1.419-.686.254-.148.454-.148.651-.342a5.938,5.938,0,0,1,1.362-.8A5.966,5.966,0,0,0,97.289,55a9.724,9.724,0,0,1,1.163-.457,6.869,6.869,0,0,1,.794-.371c-.056.2-.312.371-.4.542-.227.028-.794.655-.51.887.147.114.882-.229,1.078-.257a1.073,1.073,0,0,0,.851-.57c.2-.485-.284-.541-.454-.826a3.628,3.628,0,0,1,1.22-.656c.453-.086.425-.285.681-.6a2.481,2.481,0,0,1,.681-.656,4.445,4.445,0,0,0,.624-.627c.255.086.567.341.822.313-.028-.485.482-.77.766-1.026.228-.172.369-.429.625-.57.2-.114.425-.114.623-.229.256.257.511.285.681,0,.113-.2.057-.513.2-.655.17-.171.6-.229.823-.371a6.307,6.307,0,0,0,.735-.457c.37-.313.625-.8,1.078-1.083a3.283,3.283,0,0,0,.653-.4c.341-.313.736-.485,1.05-.8.2-.2.369-.257.566-.427.284-.229.455-.6.736-.828.226-.2.341-.028.6-.114s.228-.371.284-.591a1.11,1.11,0,0,1,.427-.656c.226-.2.48-.4.708-.591.171-.2.2-.457.369-.628.34-.341,1.305-.591.993-1.311a6.921,6.921,0,0,1,1.787-1.854c.369-.313.147-.826.425-1.255.256-.342.625-.627.909-.97a7.955,7.955,0,0,0,1.447-2.794,5.7,5.7,0,0,1,.766-1.4c.226-.429.312-1,.882-1.169.056.427-.284.854-.313,1.283a4.608,4.608,0,0,1,0,.887c-.085.285-.4.4-.538.627-.256.4.226,1-.058,1.426-.169.256-.482.4-.651.627a.715.715,0,0,1,.147-.17.808.808,0,0,1-.2.483c-.147.148-.4.171-.482.4-.057.17.085.4.028.6a2.537,2.537,0,0,1-.226.485,5.665,5.665,0,0,1-.511.569c-.113.172-.2.4-.313.6-.254.455-.481.887-.735,1.339-.171.315-.425.229-.624.429-.085.114-.057.313-.085.427a1.848,1.848,0,0,1-.427.513c-.51.485-.85,1-1.3,1.512-.54.655-1.276,1.2-1.872,1.8.056,0,.147-.028.169,0,.6.2,1.08-.148,1.646-.257a3.244,3.244,0,0,1,1.731.086,7.5,7.5,0,0,0,1.532.371,3.411,3.411,0,0,1,1.673.427,5.417,5.417,0,0,0-1.3.229,6.109,6.109,0,0,0-1.078.513c-.454.171-.994-.058-1.447-.058-.147,0-.51,0-.6.115s-.029.313-.147.455c-.454-.655-.935-.37-1.47-.114,0-.028.028-.028.057-.056l-.512.17c-1.1.257-2.269.2-3.007,1.169a2.062,2.062,0,0,1-1.078.684c-.367.148-1.02.343-1.247.739.084.114.169.056.312.086l1.021.17c.313.058.4.171.653.4a3.179,3.179,0,0,0,1.5.77,1.446,1.446,0,0,0,.342-.086.974.974,0,0,1,.567,0,4.065,4.065,0,0,1,.935.429,12.2,12.2,0,0,0,1.646.513c.312.148.256.257-.056.313a2.61,2.61,0,0,1-.823-.056,21.668,21.668,0,0,1-2.327-.2,5.289,5.289,0,0,0-1.645,0,2.62,2.62,0,0,1-1.618,0,15.1,15.1,0,0,1-1.618-.514,2.879,2.879,0,0,0-.735-.284c-.312-.03-.34.2-.566.4-.426.369-1.05.313-1.447.712-.171.171-.256.4-.51.541a3.945,3.945,0,0,1-.766.4,2.5,2.5,0,0,0-.852.341h.341a3.115,3.115,0,0,1,1.588.313c.2.148.34.371.539.542a1.893,1.893,0,0,0,1.135.285,4.471,4.471,0,0,1,1.787.627c.369.172,1.163.912,1.079,1.4a3.737,3.737,0,0,0-.6.229,3.089,3.089,0,0,1-.681.2c-.226,0-.425-.2-.681-.2a1.189,1.189,0,0,0-.735.285c-.4-.229-.228-.4-.256-.739-.226.028-.425-.114-.651-.148a2.519,2.519,0,0,1-.483-.056c-.228-.086-.511-.257-.454-.542a5.957,5.957,0,0,1-1.9-.2,5.658,5.658,0,0,0-1.589-.028,8.044,8.044,0,0,0-.822-.028,5.667,5.667,0,0,0-.681.171,3.235,3.235,0,0,0-1.419.569,2.515,2.515,0,0,1-.312.257,1.929,1.929,0,0,1-.369.148c-.2.086-.284.371-.538.457.028.086.084.114.113.172.226.371.709.6.965.94a3.089,3.089,0,0,0,1.39.714c.34.114.482.114.653.427a1.459,1.459,0,0,0,.651.6c.284.148.588.2.824.343a2.979,2.979,0,0,1,.566.485,3.622,3.622,0,0,0,.682.627,3.639,3.639,0,0,1,.566.313,2.48,2.48,0,0,1,.512.57.739.739,0,0,0,.794.4c.993-.028,1.765,1,2.269,1.774a9.746,9.746,0,0,1-1.617-.571c-.511-.228-1.078-.369-1.589-.541A9.7,9.7,0,0,1,102.277,63c-.482-.228-.794-.712-1.334-.887a1.776,1.776,0,0,1-.735-.457.638.638,0,0,0-.625-.17,1.758,1.758,0,0,1-1.332-.457c-.171-.114-.369-.257-.568-.371a7.1,7.1,0,0,0-.735-.172,1.048,1.048,0,0,1-.453-.4,1.374,1.374,0,0,0-.6-.341l-1.532-.591c-.2-.086-.426-.257-.653-.148a1.03,1.03,0,0,0-.312.285c-.057.086-.028.229-.057.285-.113.148-.453.148-.51.285.028-.028.028-.086.057-.114-.313.2-.71.57-1.078.6a4.358,4.358,0,0,1,.681,1.227,1.968,1.968,0,0,0,.624,1.111,10.407,10.407,0,0,1,.937,1,5.077,5.077,0,0,0,.4.343c.169.148.226.369.369.541.312.313.85.228,1.106.571a6.193,6.193,0,0,0,.453.739c.256.228.568.256.8.483.169.172.4.343.566.514a4.6,4.6,0,0,1,.994,1.568c.147.455-.029.684.34,1a7.042,7.042,0,0,1,.625.684c.056.086.51.485.452.6-.085.171-.51-.114-.623-.172A2.814,2.814,0,0,1,98.224,69.5a1.453,1.453,0,0,0-.425-.6,3.426,3.426,0,0,0-.735-.684c-.54-.284-1.22-.148-1.5-.769-.147-.285,0-.57-.085-.828-.085-.228-.51-.313-.735-.457a7.166,7.166,0,0,1-1.618-.887c-.147-.148-.227-.313-.369-.455-.2-.2-.425-.2-.651-.313-.256-.148-.568-.343-.824-.485-.171-.115-.454-.171-.568-.315.256-.256.766-1.083.681-1.453a6,6,0,0,0-.681.2c-.2.056-.454.256-.681.256s-.482-.341-.709-.513c-.227-.148-.426-.257-.653-.4.029-.028.029-.114.057-.148-.568.4-1.248.171-1.788.485a8.763,8.763,0,0,0-.822.57c-.147.114-.284.313-.4.371a1.6,1.6,0,0,1-.4.148c0,.4.4.739.623,1.027a4.746,4.746,0,0,1,.482,1.2c.2.513.54.828.766,1.313a4.01,4.01,0,0,0,.937,1.14c.254.229.425.313.369.684a1.4,1.4,0,0,0,.028.77,4.731,4.731,0,0,0,.735,1.227,1.8,1.8,0,0,1,.256,1.652c-.113.371-.085.371.057.739a.891.891,0,0,1,.028.712c-.2-.148-.256-.114-.369-.341a2.236,2.236,0,0,1-.226-.457,5.626,5.626,0,0,0-.653-1.026,5.987,5.987,0,0,1-.653-1.055,7.039,7.039,0,0,1-.425-1.341c-.482-.028-.51-.086-.824-.455-.226-.285-.169-.343-.254-.684a2.529,2.529,0,0,0-.454-.8c-.2-.284-.566-.4-.735-.655-.171-.229-.029-.485-.085-.739-.113-.4-.625-.739-.851-1.112a8.731,8.731,0,0,0-.709-1.083c-.228.148-.312.427-.54.571-.113.084-.254.084-.368.17-.115.058-.115.2-.228.229-.256.056-.147-.086-.312-.172a.367.367,0,0,0-.341.028,3.33,3.33,0,0,0-.907.429c0,.228.171.341.226.513.085.285,0,.627.057.94a15.474,15.474,0,0,0,.482,1.626c.085.285,0,.57.227.8.147.148.312.148.426.285a1.333,1.333,0,0,1,.2.4,3.982,3.982,0,0,1,.147,1.74,3.121,3.121,0,0,0,.085.912c.113.313.113.591.2.913a3.615,3.615,0,0,0,.369.739,6.093,6.093,0,0,0,.227.656,3.689,3.689,0,0,1,.341.887c.029.3-.113.571-.057.887.085.627.341,1.225.454,1.825a5.575,5.575,0,0,1,.254,1.511c-.113-.086-.147-.228-.254-.313s-.284-.114-.426-.2c-.284-.229-.254-.57-.4-.887a12.025,12.025,0,0,0-.85-1.454.8.8,0,0,1-.115-.712c.147-.315.313-.229.03-.542a7.783,7.783,0,0,1-.568-.77,2.065,2.065,0,0,1-.171-.739,5.856,5.856,0,0,1-.226-.739c-.028-.341.056-.457-.284-.627s-.6-.229-.735-.684c-.085-.285-.056-.6-.147-.856a7.338,7.338,0,0,1-.54-1.426,2.09,2.09,0,0,0-.2-.684,2.466,2.466,0,0,1-.113-.8,2.967,2.967,0,0,0-.227-.712,1.458,1.458,0,0,0-.341-.656,1.574,1.574,0,0,1-.538-.591c-.147-.257-.284-.313-.568-.485a3.6,3.6,0,0,0-1.362-.513,1.831,1.831,0,0,0-1.334.2c-.284.228-.681.739-.4,1.112.427-.028.51-.256.824-.455.2-.115.681-.172.735.148a1.221,1.221,0,0,1,.625-.114c0,.485-.681.513-1.029.656-.227.084-.51.256-.735.313-.228.086-.625-.114-.8.086-.056.341.256.739.369,1.054.113.343.113.714.228,1.055a1.615,1.615,0,0,1,.2.8c-.056.256-.426.371-.454.628-.057.341.369.826.454,1.169a3.931,3.931,0,0,1,.113.8c0,.148-.057.228-.057.371,0,.114.028.285.028.4a3.065,3.065,0,0,1-.028.887c-.085.228-.254.455-.369.684-.2.427-.028.4.171.712a1.165,1.165,0,0,1,.2.627,13.468,13.468,0,0,1-.147,1.512,5.832,5.832,0,0,0,.113.739,2.759,2.759,0,0,1-.085.97c-.113.542.256.941.171,1.426a2.986,2.986,0,0,1-.653-.887c-.147-.285-.113-.627-.284-.941a4.1,4.1,0,0,1-.4-.94c-.085-.343.057-.656-.085-1a2.255,2.255,0,0,1-.284-.739c-.028-.257-.113-.485-.147-.739-.057-.541.2-1.111.028-1.682a7.552,7.552,0,0,1-.284-.713,5.958,5.958,0,0,1-.028-1,1.166,1.166,0,0,0-.147-.714c-.113-.2-.34-.284-.453-.485-.341-.541-.147-1.026-.147-1.6.029-.571-.453-.97-.566-1.478-.057-.257-.115-.571-.427-.627-.2-.03-.425.17-.6.228-.312.148-.454.028-.588.313a3.319,3.319,0,0,0-.17.712,3.761,3.761,0,0,1-.34.77,1.184,1.184,0,0,1-.256.4c-.113.115-.369.257-.454.4-.113.172-.085.514-.147.739s-.147.485-.2.713a3.927,3.927,0,0,1-.482.887c-.057.058-.226.257-.226.343-.029.148.113.2.147.313.057.427-.34,1-.425,1.4A5.592,5.592,0,0,1,66.834,76c-.147.313-.028.655-.056,1a1.661,1.661,0,0,1-.341.712c-.085.148-.4.427-.4.571,0,.058.2.2.256.257a.5.5,0,0,1,.028.284,1.867,1.867,0,0,1-.312,1.169,6.379,6.379,0,0,0-.894,1.3c-.113.256-.028.591-.113.887-.085.313-.482.485-.566.8-.029.114.056.285.028.427a1.494,1.494,0,0,1-.4.628c.284.2-.2.887.113,1.112a3.373,3.373,0,0,1,.822.913,5.687,5.687,0,0,1,.71,0,4.633,4.633,0,0,1,.681.2,1.675,1.675,0,0,1,.566.341c.147.171.115.371.256.542.256.313.794.455,1.078.684.4.284.482.854,1.05.769a1.5,1.5,0,0,1,.709-.028c.4.086.341.148.454.485.147.371.312.171.651.228a1.167,1.167,0,0,1,.54.343c.2-.148.284-.485.454-.684a6.543,6.543,0,0,0,.482-.712,1.678,1.678,0,0,0,.169-.739c0-.228-.113-.541-.056-.712.085-.257.369-.285.568-.4a1.537,1.537,0,0,0,.538-.514c.113-.2,0-.513.113-.684s.341-.2.512-.369a3.4,3.4,0,0,0,.709-1c.085-.256.2-1.112.51-1.169.369-.084.909.656,1.135.887.2.2.4.313.51.569.085.229.057.543.2.739.147.228.51.341.681.542a4.633,4.633,0,0,1,.454.541c.226.285.623.912.34,1.255-.254-.148-.34-.457-.568-.656a4.292,4.292,0,0,0-.907-.427c-.284-.148-.51-.343-.794-.485-.256-.148-.51-.228-.653-.513-.227,0-.284.256-.369.4-.113.2-.254.369-.34.541-.085.2-.057.457-.171.656a9.107,9.107,0,0,0-.794,1.227c.454-.058.623-.315,1.05-.542.312-.172.822-.628,1.163-.656s.284.229.4.429c.171.256.312.256.284.569a1.279,1.279,0,0,0-.029.656c.057.2.256.343.284.571.029,0,.029,0,.057-.028.085.2.284.313.4.513.113.228.057.371,0,.656l.028-.03c.057.343.256,1.512-.056,1.774-.256-.086-.171-.455-.256-.684a6.558,6.558,0,0,1-.2-.655c-.085-.229-.312-.315-.454-.485a4.144,4.144,0,0,1-.34-.591c-.147-.257-.171-.6-.425-.684a.76.76,0,0,0-.6.2c-.4.313-.623.655-1.106.8-.34.114-.882.114-1.163.4-.369.4-.284.856-.369,1.341-.056.256-.147.284-.312.455a4.226,4.226,0,0,0-.369.542c-.169.2-.312.256-.34.541,0,.148.085.229.028.371-.028.114-.113.148-.147.257a6.653,6.653,0,0,0-.312,1.311c-.057.285.056.343.312.427a7.07,7.07,0,0,1,.822.285,4.691,4.691,0,0,0,.653.315c.254.056.369-.115.624-.148.256-.058,1.193.628.851.856a2.494,2.494,0,0,0-1.39-.058,1.792,1.792,0,0,1-1.277,0c-.4-.148-.823-.086-1.193-.2-.538-.148-1.078.114-1.618.028-.028-.455.368-.826.51-1.2.028-.114-.028-.228.028-.341.057-.148.284-.257.369-.371a6.572,6.572,0,0,0,.171-.712,7.686,7.686,0,0,1,.369-1.369c.084-.148.282-.285.312-.457a1.4,1.4,0,0,0,0-.684c-.147-.172-.482-.028-.653,0a7.04,7.04,0,0,1-.766.058c-.227.028-.51.2-.709.028-.147-.114-.147-.343-.4-.457-.341-.148-.341,0-.482-.371a.91.91,0,0,0-.4-.513c-.4-.2-1.078.086-1.419-.172-.2-.148-.085-.455-.254-.655a.836.836,0,0,0-.625-.257,2.822,2.822,0,0,1-1.249-.513.457.457,0,0,0-.169.086,2.169,2.169,0,0,0,.284.712c.113.257.312.429.425.684a2.473,2.473,0,0,1,.085.656c.056.455.568.656.735,1.084.115.285.147.513.256.8a2.4,2.4,0,0,0,.228.684c.147.228.34.172.51.313s.147.4.284.591.312.4.453.591c.085.115.454.429.454.571.028.229-.993.343-1.221.485-.2.114-.4.343-.588.429-.254.086-.51-.029-.766,0-.227.028-.4.2-.624.228-.284.028-.425-.148-.681-.114-.226.028-.369.285-.588.341s-.454-.148-.653-.114c-.254.058-.34.285-.624.313a2.24,2.24,0,0,1-.993-.086c-.171-.056-.4-.256-.6-.284-.254,0-.4.114-.681.056-.453-.114-.882-.228-1.362-.313a5.533,5.533,0,0,1,.625-1.027c.312-.369.254-.6.254-1.026,0-.485.426-.97.4-1.454,0-.257-.147-.371,0-.656.084-.2.312-.313.4-.513.084-.228-.029-.541.028-.77a1.035,1.035,0,0,1,.34-.591c.284-.313.735-.739.426-1.2-.228,0-.426-.171-.625-.058s-.254.371-.425.542a4.051,4.051,0,0,1-1.022.826c-.425.2-.85-.056-1.276.114-.453.2-.709.739-1.163.97a.1.1,0,0,0,.057-.028c-.171.257-.538.086-.709-.058-.171.257-.54.148-.794.115a.527.527,0,0,0-.54.148c-.147.114-.425.257-.482.4-.147.343.454,1.027.653,1.313.113.2.425.427.482.684.056.313-.228.485.113.769.085.058.369.148.4.229.057.148-.147.256-.171.4a1.044,1.044,0,0,0,.171.656c.028.056.028.148.057.17.056.058.169.03.226.086a.276.276,0,0,1,0,.4c-.226.229-.6,0-.882-.056-.312-.058-.653.028-.993,0a2.108,2.108,0,0,0-.735-.058c-.284.058-.51.228-.794.285a3.913,3.913,0,0,1-.993-.028,6.036,6.036,0,0,1-1.471-.148c.169-.427.6-.455.993-.455a1.887,1.887,0,0,0,1.163-.4c.453-.284.851.086,1.3-.084.4-.148.171-.571.171-.887a2.493,2.493,0,0,0-.312-1.169,1.044,1.044,0,0,1-.147-.285c-.028-.114.057-.2,0-.313-.113-.229-.425-.229-.538-.514a3.822,3.822,0,0,0-.54-1.255c-.4-.483-.369-1-.794-1.478-.113-.114-.057-.148-.2-.2-.2-.086-.454.029-.624-.086-.2-.114-.228-.4-.482-.483a1.722,1.722,0,0,0-.766.056,1.727,1.727,0,0,1-.766-.086c0,.2.113.4.085.591-.029.229-.147.257-.256.429a7.822,7.822,0,0,0-.568.887,5.419,5.419,0,0,0-.34.513,3.088,3.088,0,0,1-.171.457c-.284.513-.482.341-.965.37a1.173,1.173,0,0,1,.085-.455,5.027,5.027,0,0,0,.4-.887c.085-.257.085-.543.17-.8.085-.285.4-.571.425-.828.029-.313-.147-.285.085-.591.256-.371.454-.941.937-.97a7.155,7.155,0,0,0,1.56-.028c-.113-.2-.085-.457-.228-.684s-.2-.229-.227-.485a1.425,1.425,0,0,0-.028-.343c-.171-.569-.681-.4-1.05-.2a4.82,4.82,0,0,0-.822.343,2.212,2.212,0,0,0-.427.455c-.254.285-.588.913-.935,1.035a2.8,2.8,0,0,1,.113-.656,1.932,1.932,0,0,1,.085-.591c.084-.2.312-.256.425-.427.226-.285.171-.4.482-.571.113-.058.312-.148.369-.285.056-.114-.057-.2-.029-.343.057-.2.369-.455.512-.591a4.8,4.8,0,0,0,.568-.513c.113-.114.254-.427.453-.4.341.028.653.941.824,1.227a2.34,2.34,0,0,0,.907,1.054c.34.172.4.285.538.656a5.236,5.236,0,0,1,.369.828c.029.284-.2.427-.113.712a.708.708,0,0,0,.369.541c.284.114.4-.028.568.285a4.4,4.4,0,0,1,.369.828c.084.341-.029.591.453.541a2.41,2.41,0,0,0,.882-.369c.284-.2.341-.343.681-.371.427-.058.588-.03.882-.371.171-.171.256-.429.426-.57.254-.2.51-.148.765-.257.284-.114.482-.455.8-.591.2-.086.538-.4.765-.341-.028.285-.4.485-.51.739-.085.148-.369.628-.34.77a2.026,2.026,0,0,0,.681-.4,8.274,8.274,0,0,0,.709-.713c.113-.171.113-.285.2-.427.113-.2.369-.315.54-.457a2.868,2.868,0,0,0,.588-.591.591.591,0,0,1-.171-.257c-.256-.371-.113-.541-.2-.97a1.441,1.441,0,0,0-.454-.627c-.34-.371-.623-.712-.965-1.113a1.756,1.756,0,0,1-.425-.683c-.057-.229.057-.514-.057-.684s-.4-.229-.538-.371c-.4-.514.284-.913-.228-1.312-.226-.2-.51-.313-.735-.485-.341-.256,0-.455.147-.77a1.212,1.212,0,0,0,.147-1.026c-.228.058-.907.114-1.078-.086-.171-.172-.171-.627-.312-.8-.147-.228-.2-.148-.171-.4s.085-.2-.057-.4-.284-.257-.312-.571c-.028-.172.057-.313-.085-.4a1.3,1.3,0,0,0-.227-.542c-.113-.148-.284-.148-.4-.256-.171-.2,0-.343.028-.571a.742.742,0,0,0-.113-.427,3.547,3.547,0,0,1-.369-.856,3.845,3.845,0,0,1-.227-.941c-.6-.2.2-.541.085-.826-.681-.2-.341-.941-.994-1.169a3.329,3.329,0,0,1-.169-.485,3.857,3.857,0,0,0-.057-.571c-.056-.114-.284-.257-.369-.371-.085-.148-.169-.455-.312-.513a.4.4,0,0,0-.171-.058.707.707,0,0,0-.425.058.28.28,0,0,0-.147.114c-.029.028-.085.058-.085.086-.057.371.284.542.254.941-.028.285-.226.485-.284.77a.1.1,0,0,1,.085.028,1.741,1.741,0,0,0-.028,1.14c.028.285,0,.571.028.828a2.445,2.445,0,0,1,.171.656c-.028.513-.538.627-.624,1.111a2.5,2.5,0,0,1-.057.656c-.057.148-.34.313-.34.485s.227.256.254.427c.057.257-.085.285-.147.542-.113.427,0,.655-.256,1.083a2.257,2.257,0,0,0-.369.94c-.029.371.113.684.113,1.027a4.539,4.539,0,0,1-.169,1.083,4.607,4.607,0,0,1-.085,1.083c-.085.256-.426.712-.653.371-.113-.171-.028-.828.171-.913-.312-.485-.113-1.511-.171-2.081a7.183,7.183,0,0,0-.147-.826,6.586,6.586,0,0,1-.113-.8c-.057-.341-.171-.341.028-.655a1.036,1.036,0,0,0,.2-.856A9.14,9.14,0,0,0,48.6,73.05a6.7,6.7,0,0,1-.284-1.035c-.057-.455.256-.591.284-1a5.3,5.3,0,0,0-.2-.912,6.162,6.162,0,0,1,0-1.255c.028-.4-.085-.8-.028-1.169.028-.371.2-.656.2-1.055.028-.8-.851-1.311-1.278-.571a5.508,5.508,0,0,0-1.106-.513c-.425-.148-.851,0-1.219-.114-.147.285-.171.739-.313,1.084s-.226.684-.34,1a6.6,6.6,0,0,1-.341,1.035c-.17.3-.51.455-.651.769.028,0,.085-.028.113-.028-.028.313.2.513.226.77.029.285-.169.457-.284.684a5.538,5.538,0,0,0-.568,1.478.175.175,0,0,1,.115.028c-.2.285-.057.628-.115.97s-.084.315-.368.514a8.984,8.984,0,0,0-1.221.826c.057.343.427.485.54.8.147.343-.085.513-.228.8a6.808,6.808,0,0,0-.6,1.654,3.418,3.418,0,0,1-.681,1.313c-.254.4-.538,1.2-.993,1.369-.171-.315.085-.571.227-.828a6.341,6.341,0,0,0,.256-.8,3.777,3.777,0,0,0,.2-1.854,5.766,5.766,0,0,1,.057-1.967,3.759,3.759,0,0,1,.453-.97c.113-.256.2-.513.341-.77a5.47,5.47,0,0,0,.312-2.452,4.919,4.919,0,0,1,.709-2.024c.171-.4,0-.628-.085-1-.113-.571.4-.627.54-1.083.113-.341-.113-.627.028-1s.6-.542.51-1.026a5.868,5.868,0,0,1-1.3-.6c-.284-.148-.993-.569-1.276-.427-.312.148-.482.97-.653,1.283-.147.257-.169.4-.425.57-.226.148-.482.148-.623.371.4.313-.369.712-.568,1-.256.341-.17.77-.256,1.2a1.266,1.266,0,0,1-.312.684c-.147.148-.482.171-.568.343s.028.455-.085.684c-.171.313-.284.2-.568.341-.34.148-.147.03-.227.371a1.624,1.624,0,0,1-.2.457,5.486,5.486,0,0,1-.681,1.2c-.171.148-.312.086-.4.256-.085.148.028.429-.028.628-.115.4-.512.627-.8.912-.425.485-.794,1.083-1.247,1.568a5.221,5.221,0,0,0-.681.887c-.147.257-.313.714-.653.714a5.494,5.494,0,0,1,.538-2.2,4.6,4.6,0,0,1,.937-1.71,4.067,4.067,0,0,0,1.106-1.712,3.915,3.915,0,0,1,.6-1.74,4.542,4.542,0,0,0,.735-1.774,6.744,6.744,0,0,1,.709-2c.228-.4.369-.457.369-.912A4.819,4.819,0,0,1,36.29,64c.084-.455.765-.8,1.134-1.311ZM.007,33.608a3.82,3.82,0,0,0,.028.8c.057.228.228.371.312.6.057.228.115.485.171.712.085.229.085.457.171.684a5.508,5.508,0,0,0,.284.6,2.832,2.832,0,0,1,.254.684c.029.171.057.6.341.542.2-.028.256-.485.34-.628.115-.228.284-.483.2-.739s-.425-.343-.538-.571c-.085-.148-.028-.257-.057-.4a.688.688,0,0,0-.169-.313A2.066,2.066,0,0,1,.829,34.1c.029-.285-.113-.97-.51-1.141C.119,32.866.007,33.409.007,33.608ZM110.674,58.215a.541.541,0,0,0,.2.058,1.116,1.116,0,0,1,.314,0c.254.086.51.148.764.256a.4.4,0,0,0,.151.062.39.39,0,0,0,.162,0c.086-.028.2-.086.312-.114.256-.029.453.2.735.114a.194.194,0,0,0,.119-.084.2.2,0,0,0,.029-.143c-.028-.115-.2-.172-.284-.229a1.565,1.565,0,0,1-.483-.485.726.726,0,0,0-.226-.285.7.7,0,0,0-.341-.114,1.207,1.207,0,0,1-.455,0,1.8,1.8,0,0,1-.226-.086c-.312-.148-.852-.17-.993.229-.085.256.4.17.341.313-.029.056-.17.056-.228.114a.312.312,0,0,0-.055.228c.028.148.083.171.169.171ZM62.56,57.132a1.987,1.987,0,0,0-.568,1.169,1.406,1.406,0,0,0,.284.912,1.919,1.919,0,0,0,1.107.457,2.089,2.089,0,0,0,.735-.2.774.774,0,0,0,.4-.591,1.6,1.6,0,0,0,0-1.4c-.169-.371-.766-.77-1.134-.6A5.57,5.57,0,0,0,62.56,57.132Zm5.929-3.963c.454.2.735.341,1.05-.115.624-.912-.907-1.539-1.447-.854C67.723,52.626,68.037,52.969,68.49,53.169Zm-6.156,1.453a2.807,2.807,0,0,0-1.447.457A5.163,5.163,0,0,0,60.4,56.7c-.284.114-.085.513-.227.739-.17.313-.568.343-.681.684a.55.55,0,0,1-.029.941c-.084.056-.368.148-.425.2-.171.228.028.8-.085,1.111-.113.343-.425.739-.425,1.113,0,.485.171.627-.171,1.055-.171.2-.171.114-.256.369a1.9,1.9,0,0,1-.147.571,7.637,7.637,0,0,1-.51,1.2c-.171.257-.6.714-.312.97.2.171.34,0,.566.028.2.029.284.171.54.171.482,0,.882-.171,1.334.03.169-.2.147-.656.227-.941s.284-.887.085-1.141c.227-.313.568-.4.624-.826,0-.114-.056-.343-.056-.485a2.785,2.785,0,0,1,.085-.485,3.616,3.616,0,0,1,.028-1.111c.113-.343.284-.656.369-1,.2-.655.254-1.311.425-1.967.171-.739.653-1.454.735-2.167.113-.4.085-.712.227-1.14Zm3.537-.828a3.272,3.272,0,0,1-.084,1.055,8.082,8.082,0,0,0-.369.887,13.837,13.837,0,0,0-.369,2.167,7.624,7.624,0,0,1-.54,2.48,8.663,8.663,0,0,0-.538,2.4c-.057.591-.147,1.169-.147,1.8a1.3,1.3,0,0,1-.085.656c-.084.2-.282.371-.34.571.454-.148,1.673.541,2.071.17.171-.148-.028-.739,0-1a2.9,2.9,0,0,1,.256-.97,3.149,3.149,0,0,0,.425-1.939,1.846,1.846,0,0,1,.085-1.4,1.494,1.494,0,0,0,.312-.856c.029-.369.147-.427,0-.739-.056-.172-.284-.028-.2-.313.029-.148.313-.229.426-.315a4.122,4.122,0,0,0,.624-1.738c.085-.313.113-.656.171-.97a1.779,1.779,0,0,0,.056-.887c-.056-.148-.226-.058-.226-.285,0-.114.171-.285.2-.371.147-.257.284-.4.227-.712-.255.171-.709,0-1.021.086-.328.086-.527.369-.924.228ZM61.9,90.919c-.057.315.147.485.056.8-.113.371-.369.315-.6.571-.312.4,0,.371.113.684s-.028.429-.284.684c-.312.313-1.134.856-1.05,1.4.426-.086.71-.543,1.107-.343.6.285.482.627,1.135.171.623-.4.85-.148,1.5-.028.51.056.937-.229,1.39.028.057-.684-.794-.887-1.05-1.369-.147-.285.115-.656-.056-.887-.2-.257-.426-.058-.623-.429-.256-.541-.085-1.112-.369-1.626a1.947,1.947,0,0,1-.313-.739.707.707,0,0,0-.425-.513c-.028.542-.482,1.083-.538,1.6ZM54.475,68.081a6.516,6.516,0,0,0,.482,1.426,3.684,3.684,0,0,0,.369.541c.284.313.256.2.256.57,0,.285-.085.77.147,1.026.113.171.284.115.425.229a1.117,1.117,0,0,1,.228.4c.425.739-.256,1.425.147,2.217.284.569.454.284.882.455.4.171.512.941.6,1.369.113.485.625,1.626,1.107,1.74a3.675,3.675,0,0,0,0,1.478,2.62,2.62,0,0,0,.6.739c.4.4.34.968.568,1.511a4.758,4.758,0,0,0,.566,1.055,1.946,1.946,0,0,1,.512.826,2.758,2.758,0,0,0,.822,1.426c.568-.457.482-.8.51-1.426a4.28,4.28,0,0,1,.057-.854c.057-.257.312-.371.2-.628a5.661,5.661,0,0,0,1.144-2.035,2.23,2.23,0,0,1,.147-.455,3.556,3.556,0,0,0,.4-.739c.084-.4-.147-.828.084-1.169a.816.816,0,0,1,.512.712c.2-.455.794-.854.882-1.283a.834.834,0,0,0-.909-.887.393.393,0,0,0,.113-.341c.029-.2,0-.371.171-.542.085-.086.341-.086.426-.2.147-.228-.228-.684-.147-1,.113-.4.482-.77.6-1.2.057-.2,0-.4.057-.628A1.294,1.294,0,0,1,66.7,71.9a1.466,1.466,0,0,0,.2-.427c0-.2-.2-.2-.228-.4-.028-.315.341-.57.6-.8a1.691,1.691,0,0,0,.709-.826,2.99,2.99,0,0,0,.369-1.026,5.467,5.467,0,0,0-1.5-.343,4.245,4.245,0,0,0-1.249.228c-.254.03-.482-.086-.735-.028-.227.028-.4.171-.625.148-.453-.058-.679-.257-1.162-.115a3.868,3.868,0,0,1-2.213-.148,1.013,1.013,0,0,0-.653-.028,2.685,2.685,0,0,1-.822,0c-.426-.086-.454-.429-.766-.6-.4-.228-.653.315-.993.457a1.9,1.9,0,0,1-1.135-.086,1.829,1.829,0,0,0-1.106-.056c-.256.086-.228.17-.482.17a3.269,3.269,0,0,0-.482-.056c.028.028.028.056.056.114ZM43.128,64.2a.1.1,0,0,0-.025.039.1.1,0,0,0,0,.046c0,.058-.028.2.029.257s.113.056.113.148c.028.086.085.148.171.086.056-.028.056-.086.113-.114.056-.058.113-.058.171-.086a1.426,1.426,0,0,1,.6.028,1.411,1.411,0,0,1,.312.115.736.736,0,0,0,.2.114.3.3,0,0,1,.2.347c.057,0,.085.03.147.058h.147a.371.371,0,0,0,.226-.086.243.243,0,0,0,.085-.148c0-.084-.085-.148-.113-.228-.057-.114-.057-.2-.113-.313a.9.9,0,0,0-.341-.228c-.056-.03-.171-.058-.2-.148-.028-.056,0-.086-.056-.114a2.01,2.01,0,0,1-.228-.086.408.408,0,0,0-.2-.058c-.2,0-.369-.028-.538-.028h-.2a1.173,1.173,0,0,0-.313,0c-.028.028-.028.114-.056.148-.028.056-.028.148-.057.17-.056.03-.056.058-.056.086Zm-5.735.4c.113.058.113.2.254.148a.8.8,0,0,0,.256-.171,3.913,3.913,0,0,0,.341-.341,1.419,1.419,0,0,0,.2-.343.442.442,0,0,1,.453.371c0,.114-.147.114-.169.2s.028.114.028.228c0,.086-.057.2-.028.257.056.114.169.028.254,0a1.016,1.016,0,0,1,.228-.148c.169-.084.169-.17.226-.341a.821.821,0,0,1,.113-.228c-.284-.086-.113-.315-.113-.514,0-.028-.028-.084-.028-.114a.476.476,0,0,0-.03-.2,1.086,1.086,0,0,0-.312-.313c-.113-.058-.2-.086-.312-.148a1.028,1.028,0,0,0-.312-.148.479.479,0,0,0-.482.228c-.057.058-.113.171-.171.229-.113.114-.226.17-.284.313a2.986,2.986,0,0,0-.2.712c0,.058,0,.257.085.313ZM3.412,12.45a3.042,3.042,0,0,1,.882-.856c.369-.114.568.313.907.2.588-.171.256-.739.4-1.113.171-.455.851-.591,1.193-.8A10.632,10.632,0,0,1,8.01,9.143a1.865,1.865,0,0,1,.681-.171c.284.086.2.2.425.371,1.248,1.083,1.221-.856,2.157-.887.312-.03.51.313.882.2.368-.086.6-.656.993-.313.284.228-.085.569.4.712.454.148.766-.285.935-.6.228,0,.454.056.71.056.085.343.482.285.735.371a3.69,3.69,0,0,1,.454.343l.51.256c.681.343,1.532.513,1.646,1.283.028.148-.284.2-.085.4.085.086.427-.056.51-.028a2.757,2.757,0,0,1,.937.427c.653.514.882,1.54,1.362,2.217a1.656,1.656,0,0,0-.851.656c.482.228.882-.086,1.276.341A1.4,1.4,0,0,1,22,16.146c-.256.656-.625.628-.171,1.227a3,3,0,0,1,.709,1.055,2.888,2.888,0,0,1,.113,1.2,6.9,6.9,0,0,1-.113,1.71c-.085.2-.284.257-.369.457a2.831,2.831,0,0,0-.056.684c-.028.228-.147.371-.171.542a4.048,4.048,0,0,1-.085.627c-.147.313-.482.513-.681.826-.254.4-.34.656-.6,1.055a4.6,4.6,0,0,1-.766.887,5.854,5.854,0,0,1-1.163.913c-.368.228-.588.655-.935.912-.427.371-.512.148-1.029.114-.624-.056-.766.4-1.134.77a2.948,2.948,0,0,1-1.334.656,3.264,3.264,0,0,1-1.471.285,2.323,2.323,0,0,0-.994-.03.921.921,0,0,1-.709-.114c-.147-.257-.028-.656-.085-.656-.147,0-.4.514-.538.514-.653-.058-.735.228-1.107.285a1.4,1.4,0,0,1-1.106-.171c-.256-.114-.454-.285-.681-.371-.284-.114-.538-.285-.822-.371A4.091,4.091,0,0,1,4.888,27.9c-.482-.513-1.816-1.938-1.985-2.217-.4-.656-1.419-1.568-.937-2.365.171,0,.454-.086.51-.285.057-.343-.254-.229-.51-.285-.568-.114-.653-.229-.851-.77a4.984,4.984,0,0,1-.284-1.283c0-.485.4-.514.482-.941.085-.513-.538-.513-.709-.826-.226-.4.085-.856.256-1.255a1.875,1.875,0,0,1,.2-.57c.147-.172.312-.114.482-.285.4-.427.113-.591.028-1-.171-.739.369-1.111.709-1.74a4.872,4.872,0,0,1,.54-1c.147-.228.482-.343.588-.627Zm1.334.912c-.341.228-.426.656-.653.97-.284.371-.681.455-.482,1,.147.427.482.457.482.942,0,.341.028.887,0,1.225-.028.313-.256.656-.312,1.055-.115.712.2.4.588.887a1.574,1.574,0,0,1,.113,1.425c.624.148.51,1.883.882,2.4.2.285.681.371.822.712s-.147.856-.34,1.113c-.226.341-.625.513-.824.854-.254.457-.084.828.454.6s1.362-1.225,2.015-.854c.34.17.312.739.651.912.228.148.6-.028.824.114a5.527,5.527,0,0,1,.425.6,2.114,2.114,0,0,0,1.419.6c.312.058.624-.056.935.03.228.056.313.256.568.285.4.028.794-.285,1.276-.148.426.114.6.913,1.029.77.312-.114.4-.856.735-1.083.369-.257.8-.371,1.163-.6.653-.4,1.249-.828,1.9-1.283.538-.343.425-.684.624-1.227a7.458,7.458,0,0,0,.482-1.454c.113-.826-.568-2.338.113-3.023.284-.284,1.59-.284.909-.712-.4-.256-1.05.058-1.471-.172a3.437,3.437,0,0,0-.029-.94c-.085-.285-.312-.543-.368-.828a1.287,1.287,0,0,1-.029-.8c.085-.285.369-.371.341-.684-1.447.058-1.5-1.339-2.185-2.217A8.151,8.151,0,0,0,14.764,12c-.482-.228-.907-.2-1.219-.712-.226-.4-.171-.97-.851-.684-.226.084-.312.427-.568.427s-.254-.172-.453-.257a2.734,2.734,0,0,0-1.276-.285,9.1,9.1,0,0,0-2.61.684,5,5,0,0,0-2.241,1.512,5.334,5.334,0,0,1-.794.684ZM14.9,10.624a2.392,2.392,0,0,0,.4.912c.369.229.425-.371.766-.171.34.171,0,.6.538.739.482.148.454-.086.588-.485.085-.257.313-.684.147-.97a5.067,5.067,0,0,0-.794-.513c-.482-.285-1.872-.826-1.673.2a.49.49,0,0,0,.031.29ZM30.646,4.551a7.96,7.96,0,0,1,1.9-.712c.4.028.54.256.965.313a3.369,3.369,0,0,1,.993.285,4.817,4.817,0,0,1,.907.256c.512.343-.084.429-.056.828.028.513.709.97.766,1.6a.661.661,0,0,0,.425-.2c.113-.457-.2-1-.2-1.511a5.24,5.24,0,0,0,0-1.654,2.351,2.351,0,0,0-.624-1.169c-.625-.371-.851.4-1.391.313-.51-.058-.794-.427-1.332-.427a6.03,6.03,0,0,0-1.419.313c-.482.114-.965-.058-1.418.2-.341.2-.625.591-.994.8a4.185,4.185,0,0,0-1.247.712c-.228.229-.147.4-.284.628-.115.17-.369.341-.454.513-.113.285.057.341.028.571-.028.285-.147.427-.2.712a10.487,10.487,0,0,0-.2,1.568c.171.313.171.912.341,1.311a10.317,10.317,0,0,0,.623,1.284c.312.541.256.769.907.655.284-.056,1.306-1.14,1.163-.8a8.222,8.222,0,0,0-.482,1.341c.115.8.313.57.909.887.453.228.822.571,1.276.826.51.285.935.628,1.471.887a6.73,6.73,0,0,0,1.221.628c.51.086,1.276-.828,1.787-.172-.4.627-1.135.656-.256,1.426a3.547,3.547,0,0,1,1.163,1.71,2.469,2.469,0,0,1-.113,1.74c-.227.485-.907.97-1.021,1.4.907.313-.426,1.227-.882,1.227.2-.941-1.362-.514-1.874-.514a3.747,3.747,0,0,1-2.269-.369c-.735-.429-.623-1.085-1.05-1.74-.17-.285-.482-.371-.651-.656-.171-.313.028-.739-.512-.739,0,.4.085.656.113,1.035,0,.285-.2.826-.113,1.083.147.427.851.228.909.627.028.148-.54.628-.625.684.113.058.057.115.057.229a.26.26,0,0,0,.028.148c.028,0,.028.03.085.058,0,1,.454,1.4,1.418,1.255.369-.058.54-.371.994-.343.147,0,.312.285.482.313a1.258,1.258,0,0,0,.735-.148c.284-.086.454-.313.824-.371a5.562,5.562,0,0,1,.681.058,4.988,4.988,0,0,0,1.219-.229c.909-.228,1.471-1.026,2.412-1.369.057.229.937-1.774.993-1.91.147-.371.851-1.478.709-2.2a14.129,14.129,0,0,0-.425-2.137,2.311,2.311,0,0,0-.681-.97c-.312-.148-.822,0-1.191,0-.171-.485.171-1.027-.256-1.455-.312-.343-.766-.343-1.078-.712a5.006,5.006,0,0,0-2.043-1.478c-.482-.228-.907-.17-1.39-.513a9.234,9.234,0,0,0-1.163-.94c-.312-.148-.51-.086-.766-.257-.226-.171-.256-.4-.425-.571-.4-.371-.909-.313-.909-.942,0-.114.228-.591.284-.8a8.115,8.115,0,0,1,.228-.887c.113-.256.4-.4.538-.627.028-.343-.028-.684.427-.887ZM45.455,2.842a1.589,1.589,0,0,0-.994-.8,3.65,3.65,0,0,0-.794.058c-.254,0-.482-.2-.735-.2.147-.343.766-.343,1.106-.313.147.028.341,0,.482.028a.9.9,0,0,0,.568-.086,2.6,2.6,0,0,1,1.163-.257c.568,0,.425.315.794.6.4.315.6-.084.907-.341a1.421,1.421,0,0,1,.993-.371c.369,0,.653.148,1.022.114a8.114,8.114,0,0,0,1.191-.17,1.945,1.945,0,0,1,1.276-.058,2.929,2.929,0,0,0,.6.257c.256.028.454-.086.71-.03a3.7,3.7,0,0,1,.993.514c.4.17.794.114,1.135.37.453.315.4.628.651,1,.227.341.568.569.766.912a3.184,3.184,0,0,1,.369,1.141c.028.2.113.37.056.513-.028.171-.312.256-.312.485a.105.105,0,0,0-.028.086c.2.17.4.37.34.655a1.106,1.106,0,0,0-.907.628c.171.17.454.086.709.114a1.131,1.131,0,0,1-.2,1,2.341,2.341,0,0,1-.4.371c-.085.114-.2.457-.284.541-.453.371-.4-.37-.882-.2-.453.171,0,.684-.056.97-.113.714-1.276.887-1.816,1.283-.284.171-.51.457-.794.542-.51.148-1.05-.171-1.56-.028-.085.028-1.05.627-.882.028.057-.2.882-.257,1.078-.4a12.341,12.341,0,0,0,1.731-1.283,2.834,2.834,0,0,1,.882-.571c.681-.285.284-.371.147-.8a1.97,1.97,0,0,1,.228-1.055c.2-.571.113-.571-.147-1.111a2.2,2.2,0,0,1-.284-.714c-.056-.341.113-.591.085-.912a3.477,3.477,0,0,0-.653-1.341c-.2-.2-.538-.056-.538-.427,0-.285.538-.313.226-.684-.312-.4-.51.148-.794.171-.369.056-.226-.343-.256-.684-.425-.285-.993.4-1.247-.148a6.469,6.469,0,0,1-1.05.03,1.034,1.034,0,0,0-.993.2c-.226.285-.147.769-.2,1.14-.029.2-.115.2-.115.4.029.2.2.371.256.571a.876.876,0,0,1,0,.542c-.028.17-.256.4-.256.513-.028.313.029.2.171.4.171.257.2.086.256.4.113.457-.147.942-.147,1.311,0,.542.454.739.482,1.2a23.172,23.172,0,0,0-.169,2.423c.028.115.147.371.113.485-.029.171-.284.257-.313.457a4.17,4.17,0,0,0,.147,1.2,3.1,3.1,0,0,1,.227,1.113c-.056.285-.255.4-.227.655s.312.4.4.6a5.056,5.056,0,0,1,0,2.365A3.025,3.025,0,0,0,49.6,19.66c.141.427.824.571.653,1.055a1.461,1.461,0,0,1,1.05-.028c.147.028.312.2.453.228.369.028.681-.341,1.05-.257.709.148.085.429-.284.514a2.55,2.55,0,0,1-1.39.17,13.109,13.109,0,0,0-2.582-.028,3.275,3.275,0,0,0-1.332.148c-.54.2-.766-.058-1.306,0-.425.056-1.332.739-1.765.369-.6-.569.823-.912,1.163-.854.4.056.482.256.735-.115.085-.114.028-.284.085-.4s.2-.17.254-.285c.256-.569-.2-1.2.113-1.8.256-.086.625-.285.54-.6-.369-.114-.625-.148-.735-.513s.147-.856.057-1.255c-.085-.371-.312-.57-.256-1a4.542,4.542,0,0,0,.2-1.113c-.169-.084-.254-.256-.028-.4.113-.086.369.148.54.086.453-.114.4-.712.084-.94s-.651-.058-.85-.514a1.326,1.326,0,0,1,.2-1.169c.34-.627.147-.455-.2-1.026a1.825,1.825,0,0,1-.115-1.283c.115-.429.369-.887.171-1.341-.171-.457-.34-.513-.284-1.026a2.544,2.544,0,0,1,.171-.8.571.571,0,0,0,.454-.313c-.369-.341-.794-.256-.766-.97,0-.256.254-.569.2-.8C45.853,3.212,45.539,2.99,45.455,2.842Zm5.957-1.283c0,.148-.113.257-.113.4,0,.086-.029.148.056.2a.539.539,0,0,0,.228.03c.056,0,.113-.115.169-.148.085-.028.147-.114.228-.148.147-.03.2-.058.169-.2,0-.058-.056-.086-.056-.148s.2-.148.171-.2a1.171,1.171,0,0,0-.426-.148h-.085c-.028,0-.056-.03-.113-.058-.056,0-.147,0-.171.058a.717.717,0,0,1-.056.341ZM63.353,14.5a1.5,1.5,0,0,0,.17-.8c0-.285-.113-.455-.028-.769.113-.485.822-.686.538-1.141-.2-.343-.312-.229-.284-.712.029-.315.029-.656.029-1a2.866,2.866,0,0,1,0-.854c.113-.257.568-.485.766-.714-.171-.285-.426-.256-.512-.627a2.937,2.937,0,0,1-.085-1c.057-.429.256-.77.313-1.227.028-.341.284-.684.312-1.026a5.811,5.811,0,0,0-.171-.97,7.49,7.49,0,0,1,.085-1.113c.057-1-.735-.968-1.47-1-.369-.028-.735-.086-1.106-.086-.147-.655.51-.485.907-.569.34-.086.312-.148.653-.03.169.058.4.2.566.257a6.407,6.407,0,0,0,1.471.148,2.469,2.469,0,0,1,.709.148c.2.114.254.313.51.256.2-.513.482-.056.709.086.426.257.369-.028.735-.228.538-.285,1.3.257,1.957.228a1.952,1.952,0,0,1,.993.03,7.518,7.518,0,0,0,1.135.313c.369.056.709-.058,1.05.114.284.148.482.457.709.627.113.086.312.115.454.2.169.086.227.2.368.315a1.593,1.593,0,0,1,.512.655c.147.343.312.457.2.8-.057.229-.312.4-.4.6a2.118,2.118,0,0,0,.935.028,2.513,2.513,0,0,1,.147,1.369c-.147.684-.735.086-.993.571.2.17.566.228.652.485.085.228-.147.627-.227.826a3.8,3.8,0,0,1-.794,1.4c-.2.2-.454.343-.653.571-.171.171-.2.571-.4.712-.312.229-1.56-.627-1.276.429.681.285-.341.8-.51,1.026.169.257.4.371.51.684a3.836,3.836,0,0,0,.425.739c.085.114.057.341.147.457.085.148.312.17.4.284.312.485-.369.371.028.739.312.285.51.172.568.684s.113.427.4.826c.085.115.085.285.171.429.085.114.254.171.368.313a2.132,2.132,0,0,1,.369.912c.113.4.369.542.568.887a4.092,4.092,0,0,0,.588,1c.284.285.681.313.965.6.147.148.113.285.284.371.147.056.312-.058.482.084.085.058.147.285.256.4-.029-.028.4.229.4.229.368.114.709-.148,1.049.056.313.229.313.571-.084.628-.284.028-.512-.148-.824-.086a1.239,1.239,0,0,1-1.078-.172c-.256-.114-.2-.171-.482-.148-.171.028-.226.17-.482.114-.312-.114-.453-.542-.851-.542-.227,0-.284.2-.453.229-.228.028-.284-.086-.454-.115a1.983,1.983,0,0,1-.965-.569c-.227-.257-.453-.485-.681-.714-.227-.256-.254-.541-.51-.768a2.041,2.041,0,0,1-.6-.714c-.228-.541-.51-.97-.735-1.478-.147-.285-.4-.485-.568-.77-.254-.371-.028-.371,0-.739-.963-.114-.481-.856.085-1.169-.147-.285-.735-.03-.993-.229-.226-.17-.256-.6-.4-.854a1.764,1.764,0,0,1-.2-.542c-.057-.148-.057-.341-.226-.427a5.318,5.318,0,0,0-.994-.086c-.312-.028-.651-.114-.963-.148-.171-.028-.369.086-.512.058-.113-.028-.226-.228-.34-.228-.624-.114-.171.228-.147.541.029.2-.113.343-.113.542a3.348,3.348,0,0,0,.028.513,1.312,1.312,0,0,1-.227.97c-.169.172-.709.172-.735.457-.029.313.453.342.6.513.254.313.028.712-.028,1.026-.057.371.084.656.028,1.055a4.675,4.675,0,0,0-.113.912c0,.4-.115.656.169.941.171.172.625.257.426.739-.228.513-.909,0-1.306,0-.312,0-.482.2-.794.028s-.2-.457-.227-.77c-.284-.114-.454.341-.681.457-.256.114-.625-.058-.965,0a1.339,1.339,0,0,1-.482.086c-.226,0-.312-.115-.482-.171-.369-.086-.766.285-1.078.171-.54-.2.851-.8,1.276-.714.312.086.568.4.735-.086.057-.148-.028-.37,0-.541a2.169,2.169,0,0,1,.256-.513c.085-.148.312-.343.341-.485.113-.285-.057-.285-.147-.57a2.586,2.586,0,0,1,.085-1.4c.2-.4,1.05-.371.907-.941-.147-.513-1.106-.656-.681-1.311Zm3.8,6.928c-.171.4.51.371.935.485.256.058.965.285.823-.313-.141-.656-1.56-.712-1.757-.171ZM67.1,8.515c-.171.371-.937.6-.823,1.055.029.228.369.371.454.513.113.229,0,.371-.057.628a.89.89,0,0,0,.2.712c.2.285.284.2.588.313.147.058.227.229.368.285s.341-.056.512-.028a7.9,7.9,0,0,0,.882.2,3.442,3.442,0,0,0,.965.114,3.821,3.821,0,0,0,.735-.427,1.318,1.318,0,0,0,.625-.4,4.5,4.5,0,0,1,.425-.628c.147-.148.147-.172.34-.228.115-.028.313.056.369-.028.113-.148-.147-.514-.147-.684a2.057,2.057,0,0,1,.2-.714c.056-.256,0-.455.2-.655.369.285.312-.171.226-.371a3.593,3.593,0,0,1-.284-.684c-.085-.257-.169-.571.057-.739.2-.2.425-.114.113-.455-.4-.429-.312-.739-.482-1.284a4.226,4.226,0,0,0-.766-1.14c-.34-.457-.965-.513-1.447-.712s-.51-.913-1.049-.485c-.256.17-.256.228-.54.17a3.292,3.292,0,0,0-.794-.17.663.663,0,0,0-.568.37c-.171.315-.028.371.028.684a2.513,2.513,0,0,1-.085.8c-.029.257.057.513.029.769a9.612,9.612,0,0,0-.113,1.6,4.455,4.455,0,0,1-.171,1.626Zm6.156,10.237c0,.541-.028.656.588.8.568.114.681-.086.6-.684-.056-.427-.34-.57-.709-.77-.227-.114-1.135-.228-.882.114.182.257.154.485.409.542Zm10.638,3.793a2.7,2.7,0,0,1,.766-.514c.028-.17-.113-.37-.085-.485.03-.148.057-.256.085-.4A6.577,6.577,0,0,1,85,19.921c.113-.285.312-.684.453-.97.147-.228.766-.656.766-.887.029-.257-.4-.513-.425-.887a3.891,3.891,0,0,1,.369-1.111c.113-.315.085-.8.312-1.055s.653-.229.907-.429c-.227-.341-.653-.6-.709-1-.057-.427.4-.94.51-1.369a9.4,9.4,0,0,1,.369-1.54c.254-.541.623-.2.993-.591-.147-.256-.454-.285-.568-.6a5.27,5.27,0,0,1,0-.94c.147-.4,1.276-.656.54-1.055,0,.028-.028.056-.057.086,0-.229.256-.4.256-.571.028-.257-.2-.343-.171-.571.085-.684.965-.627.341-1.169-.147-.114-.341-.114-.482-.2a4.988,4.988,0,0,0-.482-.4,2.555,2.555,0,0,0-1.276-.313c-.085-.6.822-.285,1.106-.229a4.512,4.512,0,0,0,.6.171c.2.028.51-.056.653,0,.113.058.169.429.284.542.2.17.425.114.681.148a4.589,4.589,0,0,1,1.418.229,4.966,4.966,0,0,1,1.078.427,2.454,2.454,0,0,0,1.334.228c1.135.086,2.128.913,3.235,1.027a1.809,1.809,0,0,0,.54.056c.2-.03.369-.2.568-.228.368-.028.882.228.822.712-.028.285-.51.656-.588,1-.085.4-.171.77-.284,1.141-.085.313-.028.8-.425,1.055-.681.457-.256-.371-.341-.77-.057-.257-.51-.712-.4-1.026.085-.229.482-.457.766-.656.147.148.256.114.4.171.284-.285.147-.343-.028-.542-.057-.058-.369,0-.454-.058-.057-.028-.113-.256-.2-.313-.147-.114-.284-.4-.482-.341-.284.086-.2.455-.056.655-.4.571-.54.2-.937.058-.4-.171-.909-.058-1.306-.228a9.74,9.74,0,0,1-1.134-.656c-.147-.058-.369-.341-.51-.313-.256.056-.147.4-.427.541-.369-.256-.369-.684-.822-.912-.4.343.169.542.169.887s-.368.513-.482.826c-.254.656-.028,1.512-.34,2.2a4.841,4.841,0,0,0-.226.826c-.113.343-.113.6-.2.941-.057.257-.426.543-.454.77-.028.4.256.627-.113,1,.794.285.993,0,.482.887.284.172.766-.171,1.05-.313a4.748,4.748,0,0,0,.34.4c.341-.427.454-.172.851-.086.34.086.766.086,1.134.2A2.2,2.2,0,0,0,95.079,15c.256-.056.681-.455.993-.228.369.285-.056.656-.226.941a6.039,6.039,0,0,0-.284,1.026,3.883,3.883,0,0,0-.256,1.055c-.056.457-.368.684-.425,1.111-.735.058-.147-1.283-.851-1.425a1.192,1.192,0,0,0-.312-.942,2.313,2.313,0,0,0-.369-.371c-.169-.148-.169-.341-.4-.4-.425-.148-.538.2-.965-.114-.254-.172-.368-.455-.623-.656-.482.485-.312.429-.937.229a.922.922,0,0,0-1.191.285,7.434,7.434,0,0,0-.147,2.252c-.029.77-1.675-.429-1.731-.2-.085.455,1.5,1.478,1.3,1.967-.169.427-.34.712-.482,1.14a10.166,10.166,0,0,0-.113,1.313c-.085.371-.538.77-.226,1.225.284.429.766.086,1.163.371.169.114.226.4.425.485s.54-.056.766,0,.425.371.653.427a5.928,5.928,0,0,0,.709-.028,11.07,11.07,0,0,0,1.362.2c.51-.028,1.646-1.454,1.985-.427.171.485-.681,1.939-1.049,2.253-.2.172-.512.256-.71.4-.312-.313.147-1.083-.113-1.369-.34-.4-.588.571-.852.739-.538.342-.623-.229-1.021-.371-.226-.086-.54,0-.766-.058a6.141,6.141,0,0,1-.623-.313,7.054,7.054,0,0,0-1.471-.343,14.175,14.175,0,0,1-1.59-.769c-.822-.315-1.674-.429-2.553-.714-.284-.086-2.979.172-2.638-.655a3.13,3.13,0,0,1,.624-.2c.369-.115.171-.257.588-.058.284.148,0,.313.426.285a1.441,1.441,0,0,0,.624-.313c.029,0,.057-.058.113-.2Z" transform="translate(1149.002 533.192)" fill="#3c3c3c"/>
    <path id="Vector2" d="M2.447,20.818A1.864,1.864,0,0,0,2.9,19.763a1.245,1.245,0,0,1,.481-.826c.115-.058.994-.086,1.05-.148a1.725,1.725,0,0,1-.284-.887,2.3,2.3,0,0,1,.369-.912l.341-.429c.226-.256.169-.2.254-.569a3.139,3.139,0,0,1,.2-.684c.029-.058.057-.171.113-.2,0-.4-.147-.826.147-1.14.2-.228.51-.257.794-.371-.056-.285-.34-.171-.454-.4a1.383,1.383,0,0,1,.029-.684c.085-.513-.085-.571-.256-1.055a1.634,1.634,0,0,1-.147-1.14c.113-.315.588-.714.453-1.027-.284-.058-.34-.541-.425-.8a2.171,2.171,0,0,1-.2-.942,2.366,2.366,0,0,0,.028-1,13.058,13.058,0,0,0-.254-2.081c-.2-.628.147-1.369-.228-1.911-.171-.285-.454-.485-.588-.739-.147-.229-.51-.628-.538-.856-.735-.2-.426-.77.147-.684.226.028.312.285.51.4.2.148.426.148.588.257a6.642,6.642,0,0,1,.568.4c.085.086.113.228.2.313.113.086.228.028.341.086.34.171.312.086.312.513,0,.257-.113.513.085.712a1,1,0,0,0,.482-.6c.369.03.735.457,1.078.542.369.114,1.248.056,1.334.627.113.591-.653.2-.937.429-.312.256-.284.769-.51,1.083-.256.028-.909.256-.512.513.147.086.369-.028.54.086a.545.545,0,0,1,.2.4,4.011,4.011,0,0,1,.057,1.169c-.057.4-.284.455-.512.739.256.229.2.343.284.6.057.2.312.455.341.655.085.571-.588.887-.454,1.426a.837.837,0,0,1,.588,1c-.056.4-.651.739-.588,1.083.568.257.51.285.341.739a2.293,2.293,0,0,0-.115,1c.256-.172.284-.313.6-.343s.4.171.651-.086c.228-.228.256-.485.568-.712a9.205,9.205,0,0,0,.766-.712c.482-.4.851-1,1.419-.856.51.114.566.228.651-.285.057-.455.029-.513.482-.712.51-.228,1.362-.684,1.56-1.255a1.276,1.276,0,0,0,1.221-1.055c.113-.37.34-.569.171-1-.115-.285-.369-.427-.171-.739a2.588,2.588,0,0,1,1.163.712c.254.285.254.427.566.513.057,0,.2-.086.313-.056a.954.954,0,0,1,.284.17,1.469,1.469,0,0,0,.794.257,1.354,1.354,0,0,1,.624.228c.427.257.735.542,1.163.828a.79.79,0,0,0,.228-.285c.368.028.566.97-.057.912-.482-.058-.823-.6-1.39-.627a5.055,5.055,0,0,0-1.532.4c-.256.114-.426.341-.709.427-.228.086-.482-.086-.71-.028s-.538.856-.6.97c-.454-.315-.822-.591-1.332-.429.028.343.735.257.588.828a5.246,5.246,0,0,0-1.391.541c-.453.257-.709.77-1.191,1.055-.4.2-.6-.086-.937.058-.254.114-.453.541-.651.712-.482.4-.937.77-1.419,1.141-.284.2-.369.513-.624.712-.2.172-.568.172-.794.341-.625.457-.085.457-.085.913,0,.17-.425.655-.51.826-.341.628-.71,1.227-1.029,1.825A12.235,12.235,0,0,0,6,21.616a2.082,2.082,0,0,0-.226.942c.056.341.369.483.568.739.2.313.369.628.568.942.084.114.34.228.2.427-.115.148-.369.086-.482.028-.284-.148-.4-.455-.735-.6-.284-.114-.624-.313-.907-.4-.54-.114-.54,0-.794-.513-.228-.457-.4-.485-.882-.457A4.58,4.58,0,0,1,1.431,22.1a.9.9,0,0,1-.679-.513A1.782,1.782,0,0,1,.468,20.7c.566-.148.794.684,1.362.684,0-.4.34-.343.624-.57ZM6.533,10.695c.028.371.34.148.453-.028a2.291,2.291,0,0,0,.256-.8c.113-.371.426-1.141.171-1.54-.312-.427-.965.285-.993.656-.029.256.147.457.2.656a2.69,2.69,0,0,1-.029.826A.679.679,0,0,0,6.533,10.695ZM5.944,21.159c-.426-.256.226-1.478-.369-1.455-.454,0-.882.77-1.05,1.113s-.454,1.111.028,1.255c.512.148.824-.4,1.107-.77a1.288,1.288,0,0,1,.276-.143Zm5.929,2.6a2.553,2.553,0,0,1,2.332,1.608,2.575,2.575,0,0,1-.575,2.783,2.546,2.546,0,0,1-3.917-.4,2.569,2.569,0,0,1,2.152-3.991Zm-.029.513a2.057,2.057,0,0,0,0,4.106,2.055,2.055,0,0,0,0-4.106ZM11.412,27.8h-.588V24.952a5.787,5.787,0,0,1,.907-.086,1.539,1.539,0,0,1,.965.228.692.692,0,0,1,.256.628.673.673,0,0,1-.54.656v.028c.256.056.4.285.454.684a1.82,1.82,0,0,0,.169.712h-.623a2.85,2.85,0,0,1-.171-.739.465.465,0,0,0-.538-.429h-.284Zm0-1.626H11.7c.34,0,.623-.115.623-.4,0-.228-.169-.427-.568-.427h-.34Z" transform="translate(1249.428 541.727)" fill="#3c3c3c"/>
  </g>
</svg>
