<svg width="158" height="56" viewBox="0 0 158 56" fill="none" xmlns="http://www.w3.org/2000/svg">
<path d="M36.3599 16.3422L36.4588 15.9312H32.6352L32.5372 16.3422H36.3599ZM47.4393 19.3562H45.0857L44.3206 22.5394C45.1396 21.4092 46.2733 20.3182 47.4393 19.3562ZM102.074 15.503C102.012 15.5032 101.949 15.5001 101.886 15.4939C101.546 16.1108 101.179 16.7121 100.786 17.2959C102.529 18.9762 105.103 22.0102 104.845 25.0925C104.767 25.9144 104.645 26.7314 104.48 27.5401L111.934 22.483L106.484 15.503H102.074ZM101.181 1.13829C101.509 0.923432 101.892 0.809423 102.283 0.810061H128.191V0.817331C128.696 0.815882 129.183 1.00748 129.555 1.35377C129.929 1.00363 130.421 0.80945 130.931 0.810061H155.977V0.817331C156.283 0.817782 156.585 0.888427 156.86 1.02395C157.136 1.15947 157.377 1.35635 157.566 1.59979C157.756 1.84323 157.888 2.1269 157.953 2.42948C158.019 2.73206 158.015 3.04567 157.944 3.34677L155.438 13.7682C155.362 14.2517 155.119 14.6921 154.751 15.0101C154.383 15.3282 153.915 15.5029 153.431 15.503H147.568L147.264 15.743C147.596 15.7794 147.927 15.8321 148.257 15.9012C148.935 16.0458 149.558 16.2485 150.123 16.5013C151.641 17.1823 152.82 18.2397 153.559 19.5099C154.351 20.8511 154.612 22.4457 154.288 23.9732C154.192 24.4393 154.048 24.8937 153.857 25.3289L153.853 25.327L153.848 25.3307C153.604 25.8906 153.294 26.4185 152.924 26.9027C152.557 27.3779 152.14 27.8117 151.681 28.1965C150.224 29.4331 148.284 30.2577 146.236 30.5023H149.143V30.5114C149.449 30.5118 149.752 30.5825 150.027 30.718C150.303 30.8536 150.544 31.0506 150.733 31.2941C150.923 31.5377 151.055 31.8215 151.12 32.1242C151.186 32.4269 151.182 32.7406 151.11 33.0417L148.753 42.8467C148.677 43.3299 148.433 43.7698 148.066 44.0876C147.698 44.4054 147.23 44.5802 146.746 44.5806H121.498V44.5733C121.016 44.5737 120.55 44.3999 120.183 44.0832C119.827 44.3924 119.365 44.5806 118.856 44.5806H93.0005V44.5733C92.6942 44.5735 92.3918 44.5034 92.1161 44.3681C91.8405 44.2328 91.5988 44.036 91.4094 43.7925C91.22 43.549 91.0877 43.2652 91.0226 42.9624C90.9575 42.6596 90.9612 42.3459 91.0335 42.0448L91.3535 40.7037C90.5264 41.1565 89.836 41.3274 89.5124 41.3847C89.4501 41.3971 89.3874 41.4071 89.3245 41.4147V41.4138C88.9446 41.4503 88.5622 41.3776 88.2214 41.2041C87.8805 41.0305 87.5951 40.7631 87.3979 40.4327C87.313 40.5102 87.2251 40.5842 87.1345 40.6546C86.1159 41.4492 83.5896 42.6385 83.5824 42.6421L83.5807 42.6403C83.2691 42.7853 82.9263 42.8479 82.5843 42.8222C82.2423 42.7965 81.9124 42.6834 81.6255 42.4934C81.3386 42.3035 81.104 42.043 80.9439 41.7363C80.7838 41.4296 80.7034 41.0868 80.7101 40.7401C80.7101 40.7364 80.7344 39.7381 80.5977 39.2199C80.5616 39.0719 80.528 38.9234 80.497 38.7743C79.393 38.2234 81.1623 40.9019 80.1194 42.4521C76.5998 47.6819 71.2704 55.5984 67.3597 55.8039C67.2834 55.8094 67.2069 55.8112 67.1305 55.8094H67.0855C62.5329 55.8803 60.8859 47.311 59.8035 41.6829L59.737 41.3347L59.6489 41.5165C59.5425 41.7966 59.3767 42.0498 59.1632 42.2581C58.9497 42.4664 58.6935 42.6248 58.4129 42.7221C58.1323 42.8195 57.8339 42.8534 57.5389 42.8215C57.2439 42.7896 56.9594 42.6927 56.7055 42.5376C56.6992 42.5339 54.6072 41.2647 53.8502 40.3191L53.8511 40.3182L53.8457 40.31L53.7351 40.4846L53.7342 40.4827C53.5324 40.8003 53.2479 41.0554 52.9119 41.2198C52.5759 41.3843 52.2016 41.4517 51.8301 41.4147C51.8229 41.4138 49.312 41.1647 48.208 38.4879C47.8823 38.6127 47.5304 38.6506 47.1861 38.598C46.8418 38.5455 46.5166 38.4043 46.2418 38.1879C46.2373 38.1843 44.5787 36.9177 44.2748 34.8474C43.8387 34.8206 43.4228 34.6522 43.089 34.3671C42.7551 34.0821 42.5212 33.6957 42.4219 33.2654C42.421 33.2599 42.0731 31.8434 42.1064 29.9322C41.7476 30.2203 41.3031 30.3773 40.845 30.3777V30.385H29.7018L29.6029 30.7951H32.985C33.3074 30.7951 33.6252 30.8727 33.9122 31.0215C34.1991 31.1703 34.4469 31.3861 34.6351 31.6508C34.8234 31.9156 34.9466 32.2219 34.9947 32.5444C35.0427 32.8669 35.0142 33.1963 34.9115 33.5054L32.5157 43.4704C32.409 43.9171 32.1569 44.3145 31.8 44.5987C31.4431 44.883 31.002 45.0377 30.5477 45.0379V45.0452H2.03275C1.7107 45.0454 1.39323 44.9681 1.10652 44.8198C0.819801 44.6714 0.572055 44.4563 0.383708 44.1921C0.195361 43.9279 0.0718089 43.6222 0.0232395 43.3003C-0.0253299 42.9783 0.00247537 42.6493 0.104362 42.3403L2.41933 32.7117C2.5265 32.2652 2.77883 31.8681 3.13586 31.584C3.49288 31.3 3.9339 31.1454 4.38817 31.1451V31.1378H8.35193L11.9588 16.1367H8.98304C8.66744 16.1367 8.35618 16.0624 8.07393 15.9195C7.79168 15.7767 7.54621 15.5694 7.35697 15.3139C7.16774 15.0585 7.03995 14.762 6.98372 14.4479C6.9275 14.1338 6.9444 13.8108 7.03307 13.5045L9.43614 3.23403C9.52122 2.76046 9.76798 2.33211 10.1334 2.02372C10.4988 1.71532 10.9596 1.54644 11.4356 1.54652H56.6111C56.6587 1.54652 56.7055 1.54834 56.7522 1.55198C56.9798 1.34248 57.2516 1.18822 57.5469 1.10094C57.8423 1.01366 58.1535 0.995639 58.4568 1.04827C58.4702 1.05009 63.1685 1.83747 66.1011 3.1031C68.2938 4.04777 70.5917 5.90348 71.6984 6.85998C73.1323 6.76906 76.0757 6.60449 77.9573 6.63631C79.9342 6.60267 82.9585 6.7827 84.2837 6.87089C85.6133 6.04441 88.9846 4.0305 91.7176 3.05491C94.8148 1.94839 99.2523 1.20193 100.065 1.07009C100.436 0.98585 100.823 1.0095 101.181 1.13829Z" fill="#3C3C3C"/>
<path d="M102.981 24.864C103.348 21.3495 98.1654 17.4206 98.1654 17.4206C98.1654 17.4206 100.701 14.5263 101.88 10.4602C103.061 6.39409 100.655 2.81006 100.655 2.81006C100.655 2.81006 95.7764 3.56839 92.501 4.7402C89.2237 5.91201 84.8704 8.73771 84.8704 8.73771C84.8704 8.73771 80.4447 8.41206 77.9942 8.45688C75.5627 8.41297 70.9916 8.73771 70.9916 8.73771C70.9916 8.73771 67.9954 5.91201 65.2811 4.7402C62.5677 3.56839 58.0525 2.81006 58.0525 2.81006C58.0525 2.81006 53.9242 6.39409 53.1516 10.4602C52.38 14.5263 53.5221 17.4206 53.5221 17.4206C53.5221 17.4206 46.4517 21.3486 45.1316 24.864C44.6048 26.2655 44.1404 27.8004 44.0373 29.1351C43.881 31.1521 44.2659 32.7191 44.2659 32.7191C44.2659 32.7191 44.7259 32.3816 45.2319 32.0989C45.7379 31.8172 46.3008 31.6168 46.3008 31.6168C46.3008 31.6168 45.98 33.2369 46.1589 34.4773C46.3369 35.7168 47.3724 36.5108 47.3724 36.5108C47.3724 36.5108 47.8621 35.7104 48.3166 35.2713C48.772 34.8313 49.2482 34.6502 49.2482 34.6502C49.2482 34.6502 49.3792 36.3736 49.9232 37.5106C50.5385 39.2002 51.9354 39.3365 51.9354 39.3365C51.9354 39.3365 52.4911 38.4409 52.9971 37.753C53.5031 37.0633 54.4527 36.6489 54.4527 36.6489C54.4527 36.6489 54.7509 38.1153 55.3536 38.9925C55.9563 39.8716 57.6884 40.7498 57.6884 40.7498C57.6884 40.7498 58.4935 39.1142 58.8739 38.6486C59.2543 38.183 59.8615 37.356 60.5563 37.0285C61.5918 36.5465 62.7041 53.8785 67.0439 53.8099C67.0647 53.8099 67.0864 53.8071 67.1081 53.8053C67.1279 53.8071 67.1487 53.8099 67.1695 53.8099C71.475 53.8785 80.9136 36.5465 81.7169 37.0285C82.3096 37.3643 82.4759 38.2241 82.6223 38.6486C82.7687 39.0721 82.7967 40.7498 82.7967 40.7498C82.7967 40.7498 84.5017 40.1845 85.8128 39.116C87.1238 38.0476 88.003 36.6508 88.003 36.6508C88.003 36.6508 88.7232 37.1831 88.9292 37.753C89.1352 38.3229 89.2291 39.3374 89.2291 39.3374C89.2291 39.3374 90.692 39.2002 92.1169 37.5115C93.2075 36.3754 94.1671 34.6511 94.1671 34.6511C94.1671 34.6511 94.5575 34.8304 94.8005 35.2713C95.0427 35.7122 95.1502 36.5117 95.1502 36.5117C95.1502 36.5117 96.5643 35.7195 97.3405 34.4782C98.1148 33.2387 98.572 31.6186 98.572 31.6186C98.572 31.6186 99.0382 31.8199 99.4087 32.1007C99.7792 32.3816 100.076 32.7209 100.076 32.7209C100.076 32.7209 101.214 31.154 102.025 29.1369C102.562 27.8004 102.835 26.2655 102.981 24.864Z" fill="white"/>
<path d="M98.8748 24.158C98.4303 21.4513 94.2136 17.9754 94.2136 17.9754C94.2136 17.9754 97.3715 13.5973 98.4259 10.6236C99.4785 7.64981 98.1271 5.81162 98.1271 5.81162C98.1271 5.81162 96.4187 5.71138 93.2149 7.11486C90.0111 8.51833 84.7657 11.894 84.7657 11.894C84.7657 11.894 81.781 11.5276 79.279 11.383C79.0607 11.359 77.4778 11.3262 77.4283 11.3262C77.3788 11.3262 75.7808 11.3599 75.5502 11.383C72.9774 11.5276 69.816 11.894 69.816 11.894C69.816 11.894 66.2056 8.51833 63.6832 7.11486C61.16 5.71138 59.4047 5.81162 59.4047 5.81162C59.4047 5.81162 57.1616 7.64981 56.7745 10.6236C56.3874 13.5973 57.4241 17.9754 57.4241 17.9754C57.4241 17.9754 51.5211 21.4504 49.7676 24.158C48.0133 26.8647 48 28.7029 48 28.7029C48 28.7029 49.5546 28.3356 49.8728 28.6701C50.191 29.0045 49.9824 31.2428 49.9824 31.2428C49.9824 31.2428 52.1592 30.6395 52.7549 31.3422C53.3506 32.0439 52.9838 34.5164 52.9838 34.5164C52.9838 34.5164 54.4783 32.7456 55.9958 33.0792C57.5133 33.4137 58.1444 35.6191 58.1444 35.6191C58.1444 35.6191 60.2903 32.9452 62.3725 33.1466C64.4539 33.348 64.636 34.2494 64.7712 34.6486C64.9073 35.0505 65.5516 40.8711 65.8044 42.0679C66.0563 43.2682 67.1478 49.8012 68.1067 49.8101C69.0665 49.818 73.3274 43.2682 74.1599 42.0679C74.9925 40.8693 78.6364 34.8207 78.7876 34.6486C79.1093 34.2822 79.7368 33.3454 81.9163 33.1466C84.0966 32.9452 84.946 35.6191 84.946 35.6191C84.946 35.6191 86.6464 33.4137 88.3239 33.0792C90.0023 32.7456 90.6395 34.5164 90.6395 34.5164C90.6395 34.5164 91.419 31.9312 92.4071 31.3422C93.3961 30.7522 95.2265 31.2428 95.2265 31.2428C95.2265 31.2428 95.953 29.0418 96.5814 28.6701C97.2097 28.2974 98.44 28.7029 98.44 28.7029C98.44 28.7029 99.3185 26.8647 98.8748 24.158ZM66.3135 33.01C66.3135 33.01 67.0912 29.9351 67.0523 27.8965C67.0134 25.8587 65.8928 24.9892 65.8928 24.9892C65.8928 24.9892 65.4376 25.3574 65.0805 25.4577C64.7235 25.5579 64.3735 25.4914 64.3735 25.4914C64.3735 25.4914 64.2931 24.7231 64.1649 24.2884C64.0359 23.8546 64.0041 23.8546 63.6373 23.8546C63.2714 23.8546 62.7809 25.1906 62.133 25.3911C61.4861 25.5916 61.2183 25.4585 61.068 25.3911C60.9178 25.3246 59.889 24.6229 59.3808 24.5226C58.8726 24.4224 56.7656 24.1881 56.2477 23.9877C55.7307 23.7872 55.3038 23.4864 54.8345 23.0845C54.3661 22.6835 54.3131 22.216 54.4103 21.815C54.5075 21.414 54.9035 20.8791 55.325 20.5118C55.7466 20.1445 56.1867 19.8437 56.4846 19.8437C56.7833 19.8437 57.2385 20.4452 58.1152 20.9465C58.5722 21.2073 60.7702 21.5178 63.3279 21.414C65.8159 21.3138 67.9538 21.147 68.9596 22.082C69.9654 23.018 70.0149 24.1881 69.8955 25.0904C69.7771 25.9926 68.1438 33.0109 68.1438 33.0109L66.3135 33.01ZM94.1544 23.0836C93.4898 23.4846 92.9197 23.7863 92.3037 23.9868C91.6895 24.1873 89.4676 24.4215 88.9116 24.5217C88.354 24.622 86.9849 25.3237 86.802 25.3902C86.6208 25.4577 86.2876 25.5907 85.737 25.3902C85.1864 25.1889 85.3437 23.8537 84.9778 23.8537C84.6119 23.8537 84.5792 23.8537 84.2407 24.2875C83.9022 24.7222 83.4497 25.4905 83.4497 25.4905C83.4497 25.4905 83.0661 25.557 82.7577 25.4568C82.4501 25.3565 82.1726 24.9884 82.1726 24.9884C82.1726 24.9884 80.6312 25.8578 79.6042 27.8956C78.5772 29.9342 77.8666 33.0091 77.8666 33.0091H76.0363C76.0363 33.0091 77.8021 25.9908 78.1212 25.0886C78.4394 24.1864 79.0563 23.0171 80.5145 22.0803C81.972 21.1452 84.0312 21.312 86.4688 21.4122C88.977 21.5152 91.3262 21.2055 91.9086 20.9447C93.0302 20.4435 93.7726 19.842 94.0731 19.842C94.3718 19.842 94.667 20.1427 94.9101 20.51C95.1531 20.8773 95.2901 21.4122 95.1929 21.8132C95.0974 22.2142 94.8173 22.6835 94.1544 23.0836Z" fill="#3C3C3C"/>
<path d="M11.3014 3.81006H56C56 3.81006 52.7685 6.6586 51.8221 10.321C50.8757 13.9834 51.8701 17.3748 51.8701 17.3748H37.7975L38.6123 13.9834H30.7047L29.6293 18.4606H42.7644L40.401 28.2955H27.8023L26.7269 32.7726H32.6242L30.2128 42.8101H2L4.33046 33.1111H9.82573L14.371 14.1878H8.87575L11.3014 3.81006Z" fill="white"/>
<path d="M14.442 6.81006H50C50 6.81006 48.2849 8.60275 47.6963 10.7277C47.1076 12.8527 47.7417 14.9107 47.7417 14.9107H41.9044C41.9044 14.9107 42.3968 13.3172 41.9373 12.3212C41.4778 11.3253 40.338 11.4584 40.338 11.4584H31.4151C31.4151 11.4584 30.4827 11.2927 29.0544 12.0559C27.626 12.8192 27.1745 14.247 27.1745 14.247L26.0979 18.63C26.0979 18.63 25.8361 19.5599 26.479 20.3557C27.122 21.1525 28.7489 21.2186 28.7489 21.2186H38.4768L37.4002 25.6016H28.3428C28.3428 25.6016 27.4114 25.4359 25.8663 26.3984C24.3222 27.3608 24.0372 28.6564 24.0372 28.6564L23.1886 32.1096C23.1886 32.1096 22.8546 33.4704 23.2705 34.2337C23.6864 34.9969 24.82 35.1635 25.3739 35.2296C25.9278 35.2948 28.3259 35.2296 28.3259 35.2296L27.1994 39.8101H6L7.05971 35.4949L10.0954 35.4279C10.0954 35.4279 11.0937 35.4623 12.0359 34.6329C12.978 33.8027 13.2158 33.1055 13.2158 33.1055L17.8162 14.381C18.0121 13.5842 17.9836 13.0201 17.4332 12.3891C16.8838 11.758 15.8686 11.6584 15.8686 11.6584H13.2523L14.442 6.81006Z" fill="#3C3C3C"/>
<path d="M144.333 32.758L134.906 23.07L146.899 13.4847H153.453L156 2.81006H130.946L128.609 12.6026H129.169L126.818 14.3641L125.306 12.6026H125.865L128.202 2.81006H102.284C102.284 2.81006 103.489 6.28178 103.417 8.71639C103.345 11.151 102.077 13.4829 102.077 13.4829H107.464L114.884 23.0682L98.0276 34.6003C98.0276 34.6003 96.9349 36.7478 94.9346 37.6795C94.5676 37.7309 94.7286 36.857 94.7286 36.857L94.3581 37.1091L93 42.8101H118.867L121.351 32.3958H120.792L123.046 30.8314L124.554 32.3958H123.996L121.509 42.8101H146.768L149.165 32.7571L144.333 32.758Z" fill="white"/>
<path d="M142.411 34.9512L130.956 22.9372L146.034 10.8716H150.764L152 5.81006H133.856L132.695 10.5648C132.695 10.5648 133.517 10.5648 133.883 11.1783C134.246 11.7917 133.34 12.7626 133.34 12.7626C133.34 12.7626 128.074 17.7327 126.07 17.6196H126.035C123.974 17.7327 120.329 13.0015 120.329 13.0015C120.329 13.0015 119.973 11.8596 120.636 11.2462C121.3 10.6327 122.482 10.5648 122.482 10.5648L123.644 5.81006H106.682C106.682 5.81006 107 7.31928 106.893 8.31547C106.785 9.31167 106.337 10.8716 106.337 10.8716H108.153L118.55 22.9372L101.222 34.9512C101.222 34.9512 100.325 36.1999 99.3115 37.0812C98.299 37.9651 97.3166 38.5126 97.3166 38.5126L97 39.8092H115.607L116.983 34.1849C116.983 34.1849 115.799 34.0491 115.544 33.0611C115.341 32.2766 116.681 31.3555 116.782 31.2198C116.883 31.0841 120.378 28.4936 121.584 28.119C122.654 27.7851 123.409 27.672 123.573 27.6874V27.691L123.591 27.6892L123.608 27.691L123.61 27.6874C124.257 27.6375 124.907 27.7261 125.517 27.9471C126.538 28.3226 128.718 31.0497 128.753 31.1854C128.787 31.3211 129.661 32.378 129.075 33.1633C128.337 34.1523 127.027 34.1867 127.027 34.1867L125.651 39.8101H144.259L145.446 34.953L142.411 34.9512Z" fill="#3C3C3C"/>
<path d="M151.624 24.7053C150.423 27.642 146.706 29.3992 143.325 28.6289C139.943 27.8586 138.176 24.8516 139.377 21.9149C140.577 18.9773 144.293 17.221 147.675 17.9913C151.057 18.7615 152.824 21.7668 151.624 24.7053Z" fill="white"/>
<path d="M146.962 18.8504C145.284 18.6675 143.598 19.1107 142.195 20.1036C141.214 20.807 140.526 21.7076 140.198 22.7096C139.393 25.1686 141.116 27.439 144.039 27.7698C145.717 27.9525 147.402 27.5093 148.805 26.5166C149.785 25.8123 150.476 24.9117 150.804 23.9106C150.844 23.7884 150.877 23.668 150.902 23.5476C151.436 21.2317 149.74 19.1641 146.962 18.8504ZM149.823 23.7997C149.656 24.3031 149.357 24.7752 148.936 25.1932C148.696 25.2985 148.429 25.3952 148.26 25.3885C147.899 25.3743 147.568 24.9458 147.568 24.9458C146.986 24.6245 146.82 23.6632 146.384 23.4992C146.955 23.3466 147.835 22.6963 147.901 22.1967C147.956 21.8042 147.802 20.9131 146.32 20.9131H143.507L142.903 25.4539H144.041L144.277 23.6765H144.824C145.645 23.6765 145.762 25.1477 147.093 26.3536C146.226 26.6813 145.301 26.8008 144.386 26.7034C142.003 26.4341 140.562 24.6908 141.175 22.8195C141.409 22.1076 141.915 21.4554 142.641 20.935C143.746 20.1396 145.231 19.7585 146.611 19.9149C148.994 20.1861 150.438 21.9275 149.823 23.7997ZM145.746 22.9124H144.384L144.545 21.6981H145.993C146.676 21.6981 146.759 22.0526 146.728 22.2925C146.667 22.7408 146.348 22.9124 145.746 22.9124Z" fill="#3C3C3C"/>
</svg>
