<svg width="141" height="50" viewBox="0 0 141 50" fill="none" xmlns="http://www.w3.org/2000/svg">
<path d="M44.4076 21.1577C44.3606 6.92667 40.4603 0.882069 22.2038 0.810676C4.01783 0.739283 0 6.85528 0 21.1577C0 22.0858 -2.69592e-07 22.9901 0.0469919 23.8706V49.8101H9.75087V40.1482C12.8759 41.2191 16.9172 41.7427 22.1568 41.7427C40.4603 41.7427 44.4781 35.8408 44.4076 21.1577ZM22.2038 32.6995C12.03 32.6995 9.84486 29.1775 9.84486 21.2291C9.84486 13.2806 12.0535 9.85379 22.2038 9.90138C32.3541 9.92518 34.5392 13.3044 34.5862 21.2291C34.6097 29.3917 32.3776 32.6995 22.2038 32.6995ZM92.88 21.1815C92.9505 35.8646 88.9327 41.7665 70.6292 41.7665C52.3258 41.7665 48.4724 35.4363 48.4724 21.1815C48.4724 6.92668 52.4433 0.786878 70.6527 0.810676C88.9327 0.905867 92.8095 6.95047 92.88 21.1815ZM70.6527 9.90138C60.5259 9.87758 58.2938 13.2806 58.2938 21.2291C58.2938 29.1775 60.5024 32.6995 70.6527 32.6995C80.803 32.6995 83.0821 29.3917 83.0352 21.2291C82.9882 13.3282 80.85 9.94898 70.6527 9.90138ZM140.953 26.5597C139.919 37.3163 134.797 41.7902 118.937 41.7902C100.704 41.7902 96.7804 35.4601 96.7804 21.2053C96.7804 6.95047 100.751 0.810675 118.984 0.858271C135.079 0.905866 140.013 5.59401 141 16.3981H130.897C129.863 11.9004 126.761 9.92518 118.961 9.90138C108.834 9.87758 106.602 13.2806 106.602 21.2291C106.602 29.1775 108.81 32.7471 118.961 32.7471C126.573 32.7471 129.745 30.9147 130.85 26.5835L140.953 26.5597Z" fill="#3C3C3C"/>
</svg>
