<svg width="167" height="27" viewBox="0 0 167 27" fill="none" xmlns="http://www.w3.org/2000/svg">
<path d="M123.236 0.675041H112.442L109.985 4.45725C109.764 4.76093 109.57 5.06461 109.405 5.36829C109.184 5.7824 108.88 6.41737 108.88 6.41737H108.659C108.659 6.41737 108.604 5.97565 108.549 5.53393C108.521 5.25786 108.439 4.95418 108.356 4.70571L106.837 0.675041H96.0704L102.42 12.6842L91.8189 25.3836L85.0827 12.6566L95.187 0.64744H84.4477C84.4477 0.64744 82.0183 4.37442 81.5766 5.09222C81.3005 5.50633 81.0796 5.94805 80.914 6.38976H80.6931C80.6931 6.38976 80.6379 5.86522 80.6103 5.53393C80.5827 5.20265 80.3618 4.54007 80.3618 4.54007L78.871 0.64744H68.1042L74.4815 12.6566L64.1563 25.0523L59.0489 0.619831H48.4477L36.3281 24.3069L36.052 0.619831H26.3066L20.5643 14.0646H20.3434L18.825 0.619831H9.0244L0.742188 26.2394H9.96305L13.5244 12.2149L13.8281 12.2425C13.8281 12.2425 13.8281 13.1812 13.8281 13.7057C13.8281 14.2302 13.9661 15.583 13.9661 15.583L15.6502 26.2947H21.2269C21.2269 26.2947 27.0796 14.3407 27.3005 13.7609C27.5213 13.1536 27.8526 12.2701 27.8526 12.2701H28.0183C28.0183 12.2701 27.2453 24.5554 27.1624 25.4112C27.1072 25.6873 27.1072 25.991 27.1348 26.2947H45.3833L46.6532 23.1198H53.8864L54.2177 26.2947H73.9293C73.9293 26.2947 77.96 20.6075 78.1256 20.3591C78.3465 20.0002 78.5397 19.6413 78.7054 19.2548H78.9815C78.9815 19.448 78.9815 19.6413 78.9815 19.8345C79.0091 20.083 79.0643 20.3315 79.1747 20.5523L81.3557 26.2394H101.896L105.954 20.4971C106.147 20.221 106.644 19.2548 106.644 19.2548H106.948C106.948 19.2548 106.948 19.3928 106.975 19.6965C107.003 19.945 107.086 20.1934 107.141 20.4143L109.377 26.2394H120.254L113.049 12.6014L123.236 0.675041ZM49.3312 17.0462L52.3127 9.23332H52.644V10.4204C52.644 11.0554 52.7269 12.3253 52.7269 12.3253L53.141 17.0462H49.3312ZM125.003 0.675041L120.972 26.3499H130.524L134.555 0.675041H125.003ZM145.819 7.19037C147.061 7.02473 148.331 7.21798 149.463 7.71491C150.264 8.10141 151.037 8.54314 151.782 9.06768L155.426 2.52474C155.426 2.52474 152.5 0.178109 147.116 0.260931C141.733 0.343753 137.62 3.62903 136.405 5.3959C135.162 7.16277 134.031 9.75786 134.666 12.2425C135.3 14.7272 137.564 15.8315 139.386 16.3284C141.181 16.8253 142.258 16.7977 143.086 17.0462C143.914 17.2947 144.245 17.7088 144.135 18.3437C144.024 18.9787 143.307 19.8069 141.346 19.8345C139.386 19.8621 137.261 18.6474 136.35 17.8744L135.439 17.1566L131.353 24.3621C134.472 25.991 137.951 26.7916 141.485 26.7088C147.144 26.4879 150.65 23.8652 152.086 21.9051C153.521 19.945 154.653 17.0738 153.687 14.0922C152.804 11.3039 148.69 10.2824 147.834 10.1444C146.868 9.97872 145.929 9.73025 144.991 9.45418C144.659 9.28854 144.301 9.12289 144.328 8.51553C144.356 7.93578 144.853 7.38363 145.819 7.19037ZM162.935 2.60755C162.935 2.60755 159.347 2.46952 158.215 5.81001C157.745 7.21798 158.877 9.23332 161.527 9.23332C163.212 9.23332 165.945 8.23945 166.331 5.94804C166.745 3.43578 164.343 2.60755 162.935 2.60755ZM165.337 6.16891C164.868 7.93578 162.687 8.46031 161.804 8.46031C160.478 8.46031 158.656 7.63209 159.181 5.81001C159.899 3.24253 162.797 3.32535 162.797 3.32535C164.399 3.35295 165.807 4.42965 165.337 6.16891ZM163.847 4.20879C163.708 4.18118 162.853 4.18118 162.853 4.18118H160.975L160.313 7.60448H161.224L161.527 6.16891H162.19L162.853 7.60448H163.874L163.156 6.1413C163.156 6.1413 164.15 6.11369 164.316 5.58915C164.481 5.06461 164.537 4.92658 164.426 4.6505C164.316 4.40204 164.095 4.23639 163.847 4.20879ZM163.598 5.23025C163.488 5.47872 163.267 5.64436 162.991 5.67197H161.638L161.804 4.76093H163.212C163.212 4.73332 163.736 4.81614 163.598 5.23025Z" fill="#3C3C3C"/>
</svg>
