<svg width="134" height="84" viewBox="0 0 134 84" fill="none" xmlns="http://www.w3.org/2000/svg">
<g clip-path="url(#clip0_381_3376)">
<path d="M134 12.754L67 0.810059L0 12.754V72.4735L67 84.4174L134 72.4735V12.754ZM67 74.093L10.1515 63.971V21.2564L67 11.1344L123.848 21.2564V63.971L67 74.093ZM39.5909 25.3052L29.8455 60.1247H19.6939C19.6939 60.1247 25.7848 38.6662 26.3939 37.0466C27.003 35.0223 24.1606 36.0344 24.1606 36.0344H20.9121L22.3333 30.5686C25.1758 30.5686 31.2667 28.1393 33.0939 25.5076H39.5909V25.3052ZM93.3939 41.5003C97.4545 41.5003 100.094 39.6784 101.109 35.6296L102.936 29.1515C103.545 27.1271 103.342 25.7101 102.733 24.6979C101.921 23.6857 100.5 23.2808 98.4697 23.2808C94.4091 23.2808 91.7697 25.1027 90.7545 29.1515L88.9273 35.6296C88.3182 37.654 88.5212 39.071 89.1303 40.0832C89.9424 40.893 91.3636 41.5003 93.3939 41.5003ZM94.2061 36.4393L96.4394 28.1393C96.8455 26.9247 97.2515 26.9247 97.4545 26.9247C97.6576 26.9247 97.6576 26.9247 97.6576 27.1271C97.6576 27.1271 97.8606 27.532 97.6576 28.1393L95.4242 36.4393C95.0182 37.654 94.6121 37.654 94.4091 37.654C94.2061 37.654 94.2061 37.654 94.2061 37.4515C94.2061 37.4515 94.003 37.2491 94.2061 36.4393ZM111.87 22.6735H116.336L91.3636 62.7564H86.897L111.87 22.6735ZM61.5182 26.1149C60.097 24.293 57.6606 23.4832 54.0061 23.4832C50.5545 23.4832 42.4333 24.4954 39.7939 34.4149L34.9212 51.8247C34.1091 55.0637 34.3121 57.493 35.5303 59.3149C36.9515 61.1369 39.5909 62.1491 43.2455 62.1491C50.5545 62.1491 55.2242 58.7076 57.0515 52.0271L61.9242 34.6174C63.1424 30.5686 62.9394 27.9369 61.5182 26.1149ZM52.5848 32.7954L47.103 52.8369C46.697 54.254 46.0879 54.8613 45.2758 54.8613C45.0727 54.8613 44.8697 54.6588 44.6667 54.6588C44.4636 54.254 44.4636 53.6466 44.6667 52.8369L50.1485 32.7954C50.5545 31.3784 51.1636 30.771 51.9758 30.771C52.1788 30.771 52.5848 30.9735 52.5848 31.1759C52.7879 31.1759 52.7879 31.7832 52.5848 32.7954ZM109.839 43.7271C105.779 43.7271 103.139 45.5491 102.124 49.5979L100.297 56.0759C99.6879 58.1003 99.8909 59.5174 100.5 60.5296C101.312 61.5418 102.733 61.9466 104.764 61.9466C108.824 61.9466 111.464 60.1247 112.479 56.0759L114.306 49.5979C114.915 47.5735 114.712 46.1564 114.103 45.1442C113.494 44.3344 112.073 43.7271 109.839 43.7271ZM109.23 48.7881L106.997 57.0881C106.591 58.3027 106.185 58.3027 105.982 58.3027C105.779 58.3027 105.779 58.3027 105.779 58.1003C105.779 58.1003 105.576 57.6954 105.779 57.0881L108.012 48.7881C108.418 47.5735 108.824 47.5735 109.027 47.5735C109.23 47.5735 109.23 47.5735 109.23 47.7759C109.23 47.7759 109.433 47.9784 109.23 48.7881ZM86.2879 26.1149C84.8667 24.293 82.4303 23.4832 78.7758 23.4832C75.3242 23.4832 67.203 24.4954 64.5636 34.4149L59.6909 51.8247C58.8788 55.0637 59.0818 57.493 60.3 59.3149C61.7212 61.1369 64.3606 62.1491 68.0152 62.1491C75.3242 62.1491 79.9939 58.7076 81.8212 52.0271L86.6939 34.6174C87.9121 30.5686 87.7091 27.9369 86.2879 26.1149ZM77.3545 32.7954L71.8727 52.8369C71.4667 54.254 70.8576 54.8613 70.0455 54.8613C69.8424 54.8613 69.6394 54.6588 69.4364 54.6588C69.2333 54.254 69.2333 53.6466 69.4364 52.8369L74.9182 32.7954C75.3242 31.3784 75.9333 30.771 76.7455 30.771C76.9485 30.771 77.3545 30.9735 77.3545 31.1759C77.5576 31.1759 77.5576 31.7832 77.3545 32.7954Z" fill="#3C3C3C"/>
</g>
<defs>
<clipPath id="clip0_381_3376">
<rect width="134" height="83" fill="white" transform="translate(0 0.810059)"/>
</clipPath>
</defs>
</svg>
