<svg width="24" height="25" viewBox="0 0 24 25" fill="none" xmlns="http://www.w3.org/2000/svg">
<path d="M10 3.31H4C3.73478 3.31 3.48043 3.41535 3.29289 3.60289C3.10536 3.79043 3 4.04478 3 4.31V10.31C3 10.5752 3.10536 10.8296 3.29289 11.0171C3.48043 11.2046 3.73478 11.31 4 11.31H10C10.2652 11.31 10.5196 11.2046 10.7071 11.0171C10.8946 10.8296 11 10.5752 11 10.31V4.31C11 4.04478 10.8946 3.79043 10.7071 3.60289C10.5196 3.41535 10.2652 3.31 10 3.31ZM9 9.31H5V5.31H9V9.31ZM20 3.31H14C13.7348 3.31 13.4804 3.41535 13.2929 3.60289C13.1054 3.79043 13 4.04478 13 4.31V10.31C13 10.5752 13.1054 10.8296 13.2929 11.0171C13.4804 11.2046 13.7348 11.31 14 11.31H20C20.2652 11.31 20.5196 11.2046 20.7071 11.0171C20.8946 10.8296 21 10.5752 21 10.31V4.31C21 4.04478 20.8946 3.79043 20.7071 3.60289C20.5196 3.41535 20.2652 3.31 20 3.31ZM19 9.31H15V5.31H19V9.31ZM10 13.31H4C3.73478 13.31 3.48043 13.4154 3.29289 13.6029C3.10536 13.7904 3 14.0448 3 14.31V20.31C3 20.5752 3.10536 20.8296 3.29289 21.0171C3.48043 21.2046 3.73478 21.31 4 21.31H10C10.2652 21.31 10.5196 21.2046 10.7071 21.0171C10.8946 20.8296 11 20.5752 11 20.31V14.31C11 14.0448 10.8946 13.7904 10.7071 13.6029C10.5196 13.4154 10.2652 13.31 10 13.31ZM9 19.31H5V15.31H9V19.31ZM17 13.31C14.794 13.31 13 15.104 13 17.31C13 19.516 14.794 21.31 17 21.31C19.206 21.31 21 19.516 21 17.31C21 15.104 19.206 13.31 17 13.31ZM17 19.31C15.897 19.31 15 18.413 15 17.31C15 16.207 15.897 15.31 17 15.31C18.103 15.31 19 16.207 19 17.31C19 18.413 18.103 19.31 17 19.31Z" fill="#F06432"/>
</svg>
