<svg width="24" height="24" viewBox="0 0 24 24" fill="none" xmlns="http://www.w3.org/2000/svg">
<path d="M12.741 2.31995C12.6472 2.21683 12.533 2.13444 12.4055 2.07806C12.2781 2.02168 12.1403 1.99255 12.001 1.99255C11.8616 1.99255 11.7238 2.02168 11.5964 2.07806C11.4689 2.13444 11.3547 2.21683 11.261 2.31995L2.26095 12.3199C2.12824 12.463 2.04029 12.6418 2.00796 12.8343C1.97563 13.0268 2.00032 13.2245 2.07899 13.4031C2.15766 13.5817 2.28687 13.7334 2.45069 13.8394C2.61452 13.9455 2.8058 14.0013 3.00095 13.9999H5.00095V20.9999C5.00095 21.2652 5.10631 21.5195 5.29384 21.7071C5.48138 21.8946 5.73573 21.9999 6.00095 21.9999H18.0009C18.2662 21.9999 18.5205 21.8946 18.7081 21.7071C18.8956 21.5195 19.0009 21.2652 19.0009 20.9999V13.9999H21.0009C21.2662 13.9999 21.5205 13.8946 21.7081 13.7071C21.8956 13.5195 22.0009 13.2652 22.0009 12.9999C22.0028 12.7487 21.91 12.5059 21.7409 12.3199L12.741 2.31995Z" fill="black"/>
</svg>
