<svg width="24" height="24" viewBox="0 0 24 24" fill="none" xmlns="http://www.w3.org/2000/svg">
<path d="M2.52344 16.19V8.17726H4.40443V16.19H2.52344Z" fill="#3C3C3C"/>
<path d="M9.85268 16.3375C9.32378 16.3375 8.82474 16.2514 8.35556 16.0794C7.88638 15.8991 7.47264 15.637 7.11436 15.2929C6.7646 14.9488 6.48736 14.5227 6.28263 14.0148C6.07789 13.4986 5.97553 12.9046 5.97553 12.2328C5.97553 11.5692 6.08216 10.9793 6.29542 10.4631C6.50869 9.93875 6.79446 9.49633 7.15275 9.13584C7.51103 8.77535 7.92903 8.50088 8.40674 8.31244C8.88445 8.124 9.38776 8.02979 9.91666 8.02979C10.4541 8.02979 10.9361 8.13629 11.3626 8.34931C11.7891 8.55414 12.1431 8.79583 12.4246 9.07439L11.4266 10.2296C11.2133 10.0412 10.9872 9.88959 10.7484 9.77489C10.5181 9.652 10.2536 9.59055 9.95504 9.59055C9.67353 9.59055 9.40482 9.652 9.1489 9.77489C8.90152 9.88959 8.68399 10.0575 8.49631 10.2788C8.31717 10.5 8.17215 10.7703 8.06125 11.0899C7.95889 11.4094 7.9077 11.7699 7.9077 12.1713C7.9077 12.9988 8.09111 13.642 8.45793 14.1008C8.82474 14.5514 9.31525 14.7767 9.92945 14.7767C10.2707 14.7767 10.5735 14.7071 10.838 14.5678C11.1109 14.4203 11.3498 14.2401 11.5545 14.027L12.5526 15.1577C11.8531 15.9442 10.9531 16.3375 9.85268 16.3375Z" fill="#3C3C3C"/>
<path d="M16.7359 16.3375C16.1728 16.3375 15.6567 16.2433 15.1876 16.0548C14.7269 15.8582 14.3302 15.5796 13.9975 15.2191C13.6648 14.8586 13.4047 14.4203 13.217 13.9042C13.0378 13.388 12.9483 12.8022 12.9483 12.1468C12.9483 11.4913 13.0378 10.9096 13.217 10.4017C13.4047 9.8855 13.6648 9.45536 13.9975 9.11126C14.3302 8.75896 14.7269 8.49269 15.1876 8.31244C15.6567 8.124 16.1728 8.02979 16.7359 8.02979C17.2989 8.02979 17.8107 8.124 18.2714 8.31244C18.7405 8.49269 19.1415 8.75896 19.4742 9.11126C19.8069 9.46356 20.0628 9.89779 20.2419 10.4139C20.4296 10.9219 20.5234 11.4995 20.5234 12.1468C20.5234 12.8022 20.4296 13.388 20.2419 13.9042C20.0628 14.4203 19.8069 14.8586 19.4742 15.2191C19.1415 15.5796 18.7405 15.8582 18.2714 16.0548C17.8107 16.2433 17.2989 16.3375 16.7359 16.3375ZM16.7359 14.7767C17.3074 14.7767 17.7595 14.5432 18.0922 14.0762C18.4249 13.601 18.5913 12.9579 18.5913 12.1468C18.5913 11.3438 18.4249 10.7171 18.0922 10.2665C17.7595 9.81586 17.3074 9.59055 16.7359 9.59055C16.1643 9.59055 15.7122 9.81586 15.3795 10.2665C15.0468 10.7171 14.8805 11.3438 14.8805 12.1468C14.8805 12.9579 15.0468 13.601 15.3795 14.0762C15.7122 14.5432 16.1643 14.7767 16.7359 14.7767Z" fill="#3C3C3C"/>
</svg>
