<svg width="24" height="24" viewBox="0 0 24 24" fill="none" xmlns="http://www.w3.org/2000/svg">
<path d="M19.5522 3.00029H4.33497C3.61499 2.98529 3.015 3.54778 3 4.27527C3 4.28277 3 4.29777 3 4.30527V19.7025C3 20.4224 3.58499 20.9999 4.30497 20.9999C4.31247 20.9999 4.32747 20.9999 4.33497 20.9999H19.5522C20.2796 21.0074 20.8721 20.4224 20.8871 19.695V4.30527C20.8646 3.57778 20.2722 3.00779 19.5522 3.00029ZM8.42239 18.0375H5.70745V9.93765H8.42239V18.0375ZM7.04992 8.82018C6.28493 8.88767 5.60245 8.31769 5.53495 7.5527C5.52745 7.5077 5.52745 7.4552 5.52745 7.4102C5.52745 6.63022 6.16494 5.99273 6.95242 6.00023C6.98242 6.00023 7.01992 6.00023 7.04992 6.00023C7.8299 5.94773 8.50489 6.53272 8.56489 7.31271C8.56489 7.34271 8.56489 7.3727 8.56489 7.4102C8.59489 8.16019 8.0174 8.79768 7.26741 8.82768C7.19242 8.82768 7.12492 8.82768 7.04992 8.82018ZM18.1497 18.0375H15.4347V13.7026C15.4347 12.6151 15.0373 11.8576 14.0623 11.8576C13.4398 11.8576 12.8923 12.2476 12.6898 12.8326C12.6223 13.0426 12.5998 13.2601 12.6148 13.4851V18H9.89986C9.89986 18 9.93736 10.6276 9.89986 9.87015H12.6073V11.0251C13.1098 10.1701 14.0398 9.66016 15.0298 9.69016C16.7997 9.69016 18.1422 10.8451 18.1422 13.3426L18.1497 18.0375Z" fill="#9E9E9E"/>
</svg>
