<svg width="24" height="24" viewBox="0 0 24 24" fill="none" xmlns="http://www.w3.org/2000/svg">
<path d="M12 2C9.35831 2.03369 6.8343 3.09807 4.96618 4.96618C3.09807 6.8343 2.03369 9.35831 2 12C2.01235 13.5389 2.37972 15.0542 3.07351 16.4279C3.7673 17.8016 4.76879 18.9967 6 19.92V20H6.1C7.79318 21.2975 9.86685 22.0006 12 22.0006C14.1332 22.0006 16.2068 21.2975 17.9 20H18V19.92C19.2312 18.9967 20.2327 17.8016 20.9265 16.4279C21.6203 15.0542 21.9877 13.5389 22 12C21.9663 9.35831 20.9019 6.8343 19.0338 4.96618C17.1657 3.09807 14.6417 2.03369 12 2ZM8.07 18.93C8.21599 18.2614 8.58615 17.6629 9.11908 17.2336C9.65202 16.8044 10.3157 16.5702 11 16.57H13C13.6843 16.5702 14.348 16.8044 14.8809 17.2336C15.4138 17.6629 15.784 18.2614 15.93 18.93C14.7389 19.6308 13.382 20.0004 12 20.0004C10.618 20.0004 9.26113 19.6308 8.07 18.93ZM17.61 17.64C17.2296 16.7309 16.5891 15.9546 15.7689 15.4084C14.9487 14.8622 13.9854 14.5705 13 14.57H11C10.0146 14.5705 9.05127 14.8622 8.23108 15.4084C7.41088 15.9546 6.77037 16.7309 6.39 17.64C5.64066 16.903 5.0439 16.0255 4.63381 15.0578C4.22373 14.0901 4.00835 13.051 4 12C4.02594 9.88633 4.87712 7.86653 6.37183 6.37183C7.86653 4.87712 9.88633 4.02594 12 4C14.1137 4.02594 16.1335 4.87712 17.6282 6.37183C19.1229 7.86653 19.9741 9.88633 20 12C19.9916 13.051 19.7763 14.0901 19.3662 15.0578C18.9561 16.0255 18.3593 16.903 17.61 17.64Z" fill="#3C3C3C"/>
<path d="M11.9991 5.99996C11.4705 5.98765 10.9448 6.08269 10.4539 6.27935C9.96305 6.47601 9.51718 6.7702 9.14326 7.14411C8.76934 7.51803 8.47516 7.96391 8.2785 8.45478C8.08184 8.94565 7.98679 9.47131 7.99911 9.99996C7.98679 10.5286 8.08184 11.0543 8.2785 11.5451C8.47516 12.036 8.76934 12.4819 9.14326 12.8558C9.51718 13.2297 9.96305 13.5239 10.4539 13.7206C10.9448 13.9172 11.4705 14.0123 11.9991 14C12.5278 14.0123 13.0534 13.9172 13.5443 13.7206C14.0352 13.5239 14.481 13.2297 14.855 12.8558C15.2289 12.4819 15.5231 12.036 15.7197 11.5451C15.9164 11.0543 16.0114 10.5286 15.9991 9.99996C16.0114 9.47131 15.9164 8.94565 15.7197 8.45478C15.5231 7.96391 15.2289 7.51803 14.855 7.14411C14.481 6.7702 14.0352 6.47601 13.5443 6.27935C13.0534 6.08269 12.5278 5.98765 11.9991 5.99996ZM11.9991 12C11.7331 12.0128 11.4673 11.9699 11.2188 11.8739C10.9703 11.778 10.7447 11.6311 10.5563 11.4428C10.368 11.2544 10.2211 11.0288 10.1251 10.7803C10.0292 10.5318 9.98625 10.266 9.99911 9.99996C9.98625 9.73391 10.0292 9.46811 10.1251 9.21964C10.2211 8.97116 10.368 8.7455 10.5563 8.55716C10.7447 8.36881 10.9703 8.22195 11.2188 8.12599C11.4673 8.03003 11.7331 7.9871 11.9991 7.99996C12.2652 7.9871 12.531 8.03003 12.7794 8.12599C13.0279 8.22195 13.2536 8.36881 13.4419 8.55716C13.6303 8.7455 13.7771 8.97116 13.8731 9.21964C13.969 9.46811 14.012 9.73391 13.9991 9.99996C14.012 10.266 13.969 10.5318 13.8731 10.7803C13.7771 11.0288 13.6303 11.2544 13.4419 11.4428C13.2536 11.6311 13.0279 11.778 12.7794 11.8739C12.531 11.9699 12.2652 12.0128 11.9991 12Z" fill="#3C3C3C"/>
</svg>
