<svg width="241" height="48" viewBox="0 0 241 48" fill="none" xmlns="http://www.w3.org/2000/svg">
<g clip-path="url(#clip0_2471_2271)">
<path d="M239.529 33V28.45H225.319V33.59H232.579L224.999 43V47.54H240.129V42.37H231.999L239.529 33ZM212.529 42.33C212.001 42.0982 211.527 41.7575 211.139 41.33C210.736 40.9003 210.417 40.3982 210.199 39.85C209.733 38.6332 209.733 37.2868 210.199 36.07C210.414 35.5206 210.733 35.0181 211.139 34.59C211.527 34.1626 212.001 33.8218 212.529 33.59C213.069 33.3563 213.651 33.2371 214.239 33.24C214.835 33.2206 215.427 33.3513 215.959 33.62C216.376 33.833 216.754 34.1135 217.079 34.45C217.418 34.7986 217.687 35.2095 217.869 35.66L223.309 35.21C223.11 34.296 222.748 33.4254 222.239 32.64C221.116 30.871 219.465 29.4998 217.519 28.72C216.476 28.3036 215.362 28.093 214.239 28.1C212.93 28.0862 211.633 28.345 210.429 28.86C209.276 29.3666 208.234 30.0936 207.359 31C206.472 31.8885 205.771 32.946 205.299 34.11C204.312 36.6094 204.312 39.3906 205.299 41.89C205.774 43.0528 206.474 44.1098 207.359 45C208.24 45.8813 209.282 46.5842 210.429 47.07C211.633 47.5851 212.93 47.8439 214.239 47.83C215.362 47.837 216.476 47.6265 217.519 47.21C219.465 46.4302 221.116 45.059 222.239 43.29C222.748 42.5046 223.11 41.634 223.309 40.72L217.869 40.27C217.687 40.7205 217.418 41.1314 217.079 41.48C216.754 41.8166 216.376 42.097 215.959 42.31C215.427 42.5788 214.835 42.7094 214.239 42.69C213.651 42.6929 213.069 42.5737 212.529 42.34V42.33ZM202.879 44.28C202.609 43.6629 202.116 43.1702 201.499 42.9C201.186 42.7556 200.845 42.6808 200.499 42.6808C200.154 42.6808 199.813 42.7556 199.499 42.9C198.882 43.1702 198.39 43.6629 198.119 44.28C197.975 44.5936 197.9 44.9348 197.9 45.28C197.9 45.6253 197.975 45.9664 198.119 46.28C198.255 46.5848 198.445 46.8626 198.679 47.1C198.915 47.3367 199.193 47.5267 199.499 47.66C199.813 47.8045 200.154 47.8793 200.499 47.8793C200.845 47.8793 201.186 47.8045 201.499 47.66C201.806 47.5267 202.084 47.3367 202.319 47.1C202.554 46.8626 202.744 46.5848 202.879 46.28C203.024 45.9664 203.099 45.6253 203.099 45.28C203.099 44.9348 203.024 44.5936 202.879 44.28ZM181.679 36.5C182.1 37.1958 182.662 37.7955 183.329 38.26C183.995 38.7157 184.718 39.0821 185.479 39.35C186.249 39.62 186.969 39.86 187.619 40.07C188.185 40.2442 188.737 40.4615 189.269 40.72C189.46 40.7864 189.626 40.9089 189.745 41.0713C189.865 41.2337 189.932 41.4285 189.939 41.63C189.925 41.8052 189.876 41.9759 189.795 42.1321C189.715 42.2883 189.604 42.4269 189.469 42.54C189.055 42.874 188.53 43.0384 187.999 43C187.719 43.0069 187.44 42.9567 187.18 42.8526C186.92 42.7485 186.683 42.5926 186.485 42.3943C186.287 42.1961 186.131 41.9597 186.027 41.6993C185.923 41.439 185.873 41.1603 185.879 40.88L180.739 41.34C180.73 42.2058 180.903 43.0639 181.248 43.8582C181.593 44.6526 182.101 45.3653 182.739 45.95C183.426 46.5709 184.232 47.0441 185.109 47.34C186.127 47.6845 187.195 47.8536 188.269 47.84C189.314 47.8528 190.353 47.6836 191.339 47.34C192.196 47.0353 192.991 46.5817 193.689 46C194.309 45.4838 194.813 44.8434 195.169 44.12C195.53 43.3433 195.704 42.4932 195.678 41.6373C195.652 40.7814 195.426 39.9434 195.019 39.19C194.592 38.5049 194.031 37.9131 193.369 37.45C192.708 36.9943 191.984 36.6372 191.219 36.39L189.069 35.71C188.509 35.543 187.96 35.3358 187.429 35.09C187.242 35.0248 187.078 34.9054 186.959 34.747C186.84 34.5885 186.77 34.3981 186.759 34.2C186.765 34.0406 186.805 33.8842 186.875 33.7411C186.946 33.598 187.046 33.4716 187.169 33.37C187.473 33.1062 187.867 32.9701 188.269 32.99C188.78 32.984 189.274 33.1736 189.649 33.52C189.847 33.7024 190.002 33.9258 190.104 34.1746C190.206 34.4234 190.252 34.6915 190.239 34.96L195.379 34.5C195.385 33.6532 195.211 32.8148 194.869 32.04C194.523 31.2738 194.014 30.5916 193.379 30.04C192.685 29.425 191.876 28.9527 190.999 28.65C190.013 28.3064 188.974 28.1372 187.929 28.15C186.934 28.1348 185.944 28.2869 184.999 28.6C184.2 28.87 183.455 29.2797 182.799 29.81C182.222 30.3017 181.758 30.9123 181.439 31.6C181.098 32.3748 180.939 33.2174 180.974 34.0632C181.008 34.909 181.236 35.7357 181.639 36.48L181.679 36.5ZM163.999 47.51H178.509V42.82H169.289V40.1H177.459V35.56H169.289V33.14H178.209V28.45H163.999V47.51ZM162.279 47.51L155.619 37.83L161.669 28.45H155.779L150.939 36.53V28.45H145.639V47.51H150.939V39.19L156.229 47.51H162.279ZM141.789 28.45H136.499V47.51H141.789V28.45ZM123.149 43.45V39.49H125.999C126.279 39.4826 126.558 39.531 126.819 39.6323C127.08 39.7336 127.318 39.8858 127.519 40.08C127.709 40.2563 127.86 40.4699 127.963 40.7074C128.067 40.9448 128.12 41.2011 128.119 41.46C128.12 41.7175 128.066 41.9722 127.963 42.208C127.86 42.4438 127.709 42.6556 127.519 42.83C127.319 43.0261 127.081 43.1796 126.82 43.281C126.559 43.3824 126.279 43.4297 125.999 43.42L123.149 43.45ZM123.149 32.57H125.569C126.049 32.5534 126.516 32.7258 126.869 33.05C127.03 33.2015 127.159 33.3843 127.246 33.5873C127.334 33.7902 127.379 34.0089 127.379 34.23C127.379 34.4511 127.334 34.6698 127.246 34.8728C127.159 35.0757 127.03 35.2585 126.869 35.41C126.516 35.7342 126.049 35.9066 125.569 35.89H123.149V32.57ZM131.529 36.5C131.884 36.1351 132.184 35.7208 132.419 35.27C132.707 34.7146 132.848 34.0951 132.829 33.47C132.833 32.8036 132.69 32.1446 132.409 31.54C132.122 30.9312 131.71 30.3895 131.199 29.95C130.627 29.4728 129.968 29.1096 129.259 28.88C128.412 28.599 127.522 28.4637 126.629 28.48H117.859V47.51H127.229C128.138 47.5251 129.042 47.3795 129.899 47.08C130.636 46.829 131.316 46.4348 131.899 45.92C132.434 45.4405 132.863 44.8547 133.159 44.2C133.454 43.5254 133.604 42.7963 133.599 42.06C133.627 41.2761 133.444 40.499 133.069 39.81C132.757 39.28 132.374 38.7954 131.929 38.37C131.43 37.9541 130.87 37.6169 130.269 37.37C130.738 37.1402 131.167 36.8363 131.539 36.47" fill="#1D1D1B"/>
<path d="M234.561 6.36999H240.291V0.629991H222.931V6.36999H228.661V21.88H234.561V6.36999ZM220.641 0.629991H214.741V21.88H220.641V0.629991ZM197.531 21.88H199.891L204.611 11.76V21.88H210.521V0.629991H204.781L198.711 13.45L192.641 0.629991H186.911V21.88H192.811V11.76L197.531 21.88ZM169.691 21.88H172.051L176.781 11.76V21.88H182.681V0.629991H176.941L170.871 13.45L164.801 0.629991H159.071V21.88H165.001V11.76L169.691 21.88ZM136.481 0.629991V12.94C136.459 14.2613 136.676 15.5756 137.121 16.82C137.523 17.9206 138.165 18.9179 139.001 19.74C139.826 20.5573 140.819 21.1851 141.911 21.58C144.427 22.4334 147.154 22.4334 149.671 21.58C150.769 21.1943 151.766 20.5661 152.589 19.742C153.411 18.918 154.037 17.9192 154.421 16.82C154.869 15.5762 155.089 14.2619 155.071 12.94V0.629991H149.161V12.94C149.186 13.4126 149.118 13.8856 148.96 14.3319C148.802 14.7781 148.558 15.1887 148.241 15.54C147.919 15.8564 147.535 16.1031 147.113 16.2648C146.692 16.4265 146.242 16.4998 145.791 16.48C145.341 16.5008 144.892 16.428 144.472 16.2662C144.052 16.1044 143.67 15.8571 143.351 15.54C143.03 15.1907 142.782 14.7807 142.622 14.3341C142.463 13.8876 142.394 13.4135 142.421 12.94V0.629991H136.481ZM117.891 9.62999C118.364 10.3989 118.991 11.0625 119.731 11.58C120.47 12.0905 121.274 12.5008 122.121 12.8L124.521 13.61C125.152 13.8016 125.767 14.0423 126.361 14.33C126.568 14.4071 126.748 14.5426 126.879 14.7202C127.01 14.8977 127.087 15.1095 127.101 15.33C127.085 15.5229 127.031 15.7108 126.942 15.8826C126.852 16.0543 126.73 16.2065 126.581 16.33C126.111 16.71 125.512 16.8929 124.911 16.84C124.598 16.8497 124.287 16.7953 123.996 16.6801C123.705 16.565 123.441 16.3915 123.22 16.1704C122.999 15.9493 122.826 15.6852 122.711 15.3945C122.595 15.1038 122.541 14.7925 122.551 14.48L116.811 14.99C116.805 15.9644 117.006 16.9289 117.401 17.82C117.797 18.6943 118.365 19.4799 119.071 20.13C119.839 20.8215 120.741 21.349 121.721 21.68C122.854 22.0655 124.044 22.2549 125.241 22.24C126.408 22.2535 127.568 22.064 128.671 21.68C129.621 21.3493 130.505 20.8515 131.281 20.21C131.975 19.6406 132.538 18.9276 132.931 18.12C133.313 17.3563 133.511 16.5139 133.511 15.66C133.548 14.6094 133.288 13.5696 132.761 12.66C132.29 11.8974 131.667 11.2403 130.931 10.73C130.194 10.2185 129.385 9.82076 128.531 9.54999C127.671 9.25999 126.871 9.00999 126.141 8.78999C125.511 8.56744 124.896 8.30353 124.301 7.99999C124.092 7.92628 123.909 7.79163 123.777 7.6134C123.646 7.43517 123.57 7.22152 123.561 6.99999C123.565 6.82186 123.607 6.64672 123.685 6.48632C123.763 6.32593 123.874 6.18398 124.011 6.06999C124.353 5.77908 124.792 5.62894 125.241 5.64999C125.81 5.64466 126.36 5.85551 126.781 6.23999C127.001 6.44242 127.174 6.69053 127.288 6.96692C127.402 7.24332 127.454 7.5413 127.441 7.83999L133.171 7.33999C133.176 6.39347 132.982 5.45646 132.601 4.58999C132.216 3.72629 131.65 2.95551 130.941 2.32999C130.172 1.67646 129.286 1.1743 128.331 0.849991C127.231 0.469105 126.074 0.28298 124.911 0.299991C123.8 0.279574 122.694 0.448664 121.641 0.799991C120.748 1.096 119.918 1.55361 119.191 2.14999C118.543 2.69648 118.024 3.37944 117.671 4.14999C117.325 4.89913 117.147 5.71491 117.151 6.53999C117.109 7.60881 117.366 8.66811 117.891 9.59999" fill="#1D1D1B"/>
<path d="M101.93 0H88.78L79.59 40.42L73.63 0H59.68L56.02 18.26L52.58 0H38.68L29.5 40.42L23.54 0H9.59L0 47.77H14.27L22.18 7.51L28.08 47.77H42.02L51.3 6.63L54.71 24.77L50.09 47.77H64.36L72.27 7.51L78.17 47.77H92.11L101.18 7.57L106.85 47.77H109.33L102.59 0H101.93Z" fill="#1D1D1B"/>
</g>
<defs>
<clipPath id="clip0_2471_2271">
<rect width="240.29" height="47.81" fill="white"/>
</clipPath>
</defs>
</svg>
