<svg width="24" height="21" viewBox="0 0 24 21" fill="none" xmlns="http://www.w3.org/2000/svg">
<path d="M0 0.620117H2.42491V2.94538H0V0.620117ZM0 3.49347H2.42491V5.81873H0V3.49347ZM0 6.35853H2.42491V8.68379H0V6.35853ZM0 9.22358H2.42491V11.5488H0V9.22358ZM0 12.0969H2.42491V14.4222H0V12.0969ZM0 14.962H2.42491V17.2872H0V14.962ZM0 17.8353H2.42491V20.1606H0V17.8353ZM3.08097 0.620117H5.50588V2.94538H3.08097V0.620117ZM3.08097 3.49347H5.50588V5.81873H3.08097V3.49347ZM3.08097 6.35853H5.50588V8.68379H3.08097V6.35853ZM3.08097 9.22358H5.50588V11.5488H3.08097V9.22358ZM3.08097 12.0969H5.50588V14.4222H3.08097V12.0969ZM3.08097 14.962H5.50588V17.2872H3.08097V14.962ZM3.08097 17.8353H5.50588V20.1606H3.08097V17.8353ZM6.17024 3.49347H8.59516V5.81873H6.17024V3.49347ZM6.17024 6.35853H8.59516V8.68379H6.17024V6.35853ZM6.17024 9.22358H8.59516V11.5488H6.17024V9.22358ZM6.17024 12.0969H8.59516V14.4222H6.17024V12.0969ZM9.25121 6.35853H11.6761V8.68379H9.25121V6.35853ZM9.25121 9.22358H11.6761V11.5488H9.25121V9.22358ZM9.25121 12.0969H11.6761V14.4222H9.25121V12.0969ZM9.25121 14.962H11.6761V17.2872H9.25121V14.962ZM12.3322 6.35853H14.7571V8.68379H12.3322V6.35853ZM12.3322 9.22358H14.7571V11.5488H12.3322V9.22358ZM12.3322 12.0969H14.7571V14.4222H12.3322V12.0969ZM12.3322 14.962H14.7571V17.2872H12.3322V14.962ZM15.4132 3.49347H17.8381V5.81873H15.4132V3.49347ZM15.4132 6.35853H17.8381V8.68379H15.4132V6.35853ZM15.4132 9.22358H17.8381V11.5488H15.4132V9.22358ZM15.4132 12.0969H17.8381V14.4222H15.4132V12.0969ZM18.4941 0.620117H20.919V2.94538H18.4941V0.620117ZM18.4941 3.49347H20.919V5.81873H18.4941V3.49347ZM18.4941 6.35853H20.919V8.68379H18.4941V6.35853ZM18.4941 9.22358H20.919V11.5488H18.4941V9.22358ZM18.4941 12.0969H20.919V14.4222H18.4941V12.0969ZM18.4941 14.962H20.919V17.2872H18.4941V14.962ZM18.4941 17.8353H20.919V20.1606H18.4941V17.8353ZM21.5751 0.620117H24V2.94538H21.5751V0.620117ZM21.5751 3.49347H24V5.81873H21.5751V3.49347ZM21.5751 6.35853H24V8.68379H21.5751V6.35853ZM21.5751 9.22358H24V11.5488H21.5751V9.22358ZM21.5751 12.0969H24V14.4222H21.5751V12.0969ZM21.5751 14.962H24V17.2872H21.5751V14.962ZM21.5751 17.8353H24V20.1606H21.5751V17.8353Z" fill="#3C3C3C"/>
</svg>
