<svg width="24" height="24" viewBox="0 0 24 24" fill="none" xmlns="http://www.w3.org/2000/svg">
<path d="M8.33398 20.3898L8.64594 18.4083L7.95104 18.3922H4.63281L6.93881 3.7707C6.94597 3.72656 6.96923 3.6854 7.00323 3.65617C7.03723 3.62694 7.08077 3.61084 7.1261 3.61084H12.7211C14.5785 3.61084 15.8604 3.99736 16.5296 4.76026C16.8434 5.11815 17.0432 5.49214 17.1398 5.90371C17.2412 6.33556 17.243 6.85152 17.144 7.48081L17.1368 7.52674V7.92996L17.4506 8.10771C17.7148 8.24788 17.9248 8.40834 18.0858 8.59205C18.3543 8.89805 18.5278 9.28695 18.6012 9.74803C18.677 10.2222 18.6519 10.7865 18.5278 11.4253C18.3847 12.1602 18.1532 12.8002 17.8407 13.3239C17.5532 13.8065 17.1869 14.2067 16.7521 14.5169C16.337 14.8116 15.8437 15.0352 15.286 15.1784C14.7455 15.3192 14.1294 15.3901 13.4536 15.3901H13.0181C12.7068 15.3901 12.4044 15.5023 12.167 15.7033C11.929 15.9085 11.7715 16.1888 11.7232 16.4954L11.6904 16.6738L11.1392 20.1662L11.1142 20.2944C11.1076 20.335 11.0963 20.3553 11.0796 20.369C11.0647 20.3815 11.0432 20.3898 11.0223 20.3898H8.33398Z" fill="#253B80"/>
<path d="M17.7479 7.57312C17.7312 7.67989 17.7121 7.78905 17.6906 7.90118C16.9528 11.6894 14.4285 12.9981 11.2045 12.9981H9.56296C9.16869 12.9981 8.83645 13.2844 8.77501 13.6733L7.93457 19.0035L7.69658 20.5144C7.65661 20.7697 7.85345 20.9999 8.11113 20.9999H11.0226C11.3673 20.9999 11.6602 20.7494 11.7145 20.4094L11.7431 20.2615L12.2913 16.7828L12.3265 16.5919C12.3801 16.2507 12.6736 16.0002 13.0184 16.0002H13.4538C16.2746 16.0002 18.4827 14.855 19.1281 11.5409C19.3977 10.1565 19.2582 9.0005 18.5448 8.1875C18.3288 7.94234 18.061 7.73894 17.7479 7.57312Z" fill="#179BD7"/>
<path d="M16.9764 7.26545C16.8637 7.23264 16.7474 7.20282 16.6281 7.17598C16.5082 7.14973 16.3853 7.12647 16.2588 7.10619C15.8163 7.03461 15.3313 7.00061 14.8118 7.00061H10.4264C10.3185 7.00061 10.2159 7.02507 10.124 7.06921C9.92183 7.16643 9.77151 7.3579 9.73513 7.59232L8.80223 13.5011L8.77539 13.6734C8.83683 13.2845 9.16907 12.9982 9.56334 12.9982H11.2049C14.4288 12.9982 16.9531 11.689 17.691 7.9013C17.7131 7.78916 17.7316 7.68 17.7483 7.57323C17.5616 7.47422 17.3593 7.38952 17.1416 7.31734C17.0879 7.29945 17.0325 7.28215 16.9764 7.26545Z" fill="#222D65"/>
<path d="M9.73456 7.59231C9.77095 7.35789 9.92126 7.16642 10.1235 7.06979C10.2159 7.02565 10.3179 7.00119 10.4259 7.00119H14.8112C15.3307 7.00119 15.8157 7.03519 16.2583 7.10677C16.3847 7.12705 16.5076 7.15031 16.6275 7.17656C16.7468 7.2034 16.8631 7.23322 16.9758 7.26603C17.0319 7.28273 17.0874 7.30003 17.1417 7.31733C17.3594 7.3895 17.5616 7.4748 17.7483 7.57322C17.9678 6.17328 17.7465 5.2201 16.9896 4.35699C16.1551 3.4068 14.649 3 12.7217 3H7.12675C6.73307 3 6.39725 3.28631 6.33641 3.67581L4.00596 18.4477C3.96003 18.7399 4.1855 19.0036 4.48016 19.0036H7.93438L8.80166 13.501L9.73456 7.59231Z" fill="#253B80"/>
</svg>
