<svg width="48" height="49" viewBox="0 0 48 49" fill="none" xmlns="http://www.w3.org/2000/svg">
<path d="M15 22.81C18.86 22.81 22 19.67 22 15.81C22 11.95 18.86 8.80999 15 8.80999C11.14 8.80999 8 11.95 8 15.81C8 19.67 11.14 22.81 15 22.81ZM15 12.81C16.66 12.81 18 14.15 18 15.81C18 17.47 16.66 18.81 15 18.81C13.34 18.81 12 17.47 12 15.81C12 14.15 13.34 12.81 15 12.81ZM8.004 37.976L37.18 8.80199L40.008 11.63L10.834 40.804L8.004 37.976ZM33 26.81C29.14 26.81 26 29.95 26 33.81C26 37.67 29.14 40.81 33 40.81C36.86 40.81 40 37.67 40 33.81C40 29.95 36.86 26.81 33 26.81ZM33 36.81C31.34 36.81 30 35.47 30 33.81C30 32.15 31.34 30.81 33 30.81C34.66 30.81 36 32.15 36 33.81C36 35.47 34.66 36.81 33 36.81Z" fill="white"/>
</svg>
