<svg width="24" height="25" viewBox="0 0 24 25" fill="none" xmlns="http://www.w3.org/2000/svg">
<path d="M7.5 11.81C9.43 11.81 11 10.24 11 8.30997C11 6.37997 9.43 4.80997 7.5 4.80997C5.57 4.80997 4 6.37997 4 8.30997C4 10.24 5.57 11.81 7.5 11.81ZM7.5 6.80997C8.33 6.80997 9 7.47997 9 8.30997C9 9.13997 8.33 9.80997 7.5 9.80997C6.67 9.80997 6 9.13997 6 8.30997C6 7.47997 6.67 6.80997 7.5 6.80997ZM4.002 19.393L18.59 4.80597L20.004 6.21997L5.417 20.807L4.002 19.393ZM16.5 13.81C14.57 13.81 13 15.38 13 17.31C13 19.24 14.57 20.81 16.5 20.81C18.43 20.81 20 19.24 20 17.31C20 15.38 18.43 13.81 16.5 13.81ZM16.5 18.81C15.67 18.81 15 18.14 15 17.31C15 16.48 15.67 15.81 16.5 15.81C17.33 15.81 18 16.48 18 17.31C18 18.14 17.33 18.81 16.5 18.81Z" fill="#F06432"/>
</svg>
