<svg width="55" height="55" viewBox="0 0 55 55" fill="none" xmlns="http://www.w3.org/2000/svg">
<path d="M27.4994 0.416748C12.5656 0.416748 0.416016 12.5663 0.416016 27.5001C0.416016 42.4338 12.5656 54.5834 27.4994 54.5834C42.4331 54.5834 54.5827 42.4338 54.5827 27.5001C54.5827 12.5663 42.4331 0.416748 27.4994 0.416748ZM30.2077 43.7501H24.791V38.3334H30.2077V43.7501ZM32.851 30.5199C32.3202 30.9478 31.8083 31.3568 31.4021 31.763C30.2971 32.8653 30.2104 33.8674 30.2077 33.9107V34.2709H24.791V33.8186C24.791 33.499 24.8696 30.6309 27.5698 27.9307C28.0979 27.4026 28.7533 26.8663 29.4412 26.3084C31.4291 24.697 32.7346 23.5215 32.7346 21.902C32.7031 20.5338 32.1374 19.2322 31.1585 18.2758C30.1796 17.3194 28.8652 16.7841 27.4967 16.7845C26.1281 16.7848 24.814 17.3208 23.8356 18.2777C22.8572 19.2346 22.2922 20.5365 22.2614 21.9047H16.8448C16.8448 16.0303 21.625 11.2501 27.4994 11.2501C33.3737 11.2501 38.1539 16.0303 38.1539 21.9047C38.1539 26.2299 34.9608 28.8109 32.851 30.5199Z" fill="white"/>
</svg>
