<svg width="1470" height="14" viewBox="0 0 1470 14" fill="none" xmlns="http://www.w3.org/2000/svg">
<path d="M27.9694 0.810059H24.3611L21.8394 11.9012L20.204 0.810059H16.3761L15.3718 5.82058L14.4279 0.810059H10.6137L8.09476 11.9012L6.45934 0.810059H2.63148L0 13.9181H3.91567L6.08616 2.87079L7.70511 13.9181H11.5302L14.0766 2.62932L15.0123 7.60691L13.7446 13.9181H17.6603L19.8308 2.87079L21.4497 13.9181H25.2749L27.7636 2.88726L29.3195 13.9181H30L28.1506 0.810059H27.9694Z" fill="#F06432"/>
<path d="M57.9694 0.810059H54.3611L51.8394 11.9012L50.204 0.810059H46.3761L45.3718 5.82058L44.4279 0.810059H40.6137L38.0948 11.9012L36.4593 0.810059H32.6315L30 13.9181H33.9157L36.0862 2.87079L37.7051 13.9181H41.5302L44.0766 2.62932L45.0123 7.60691L43.7446 13.9181H47.6603L49.8308 2.87079L51.4497 13.9181H55.2749L57.7636 2.88726L59.3195 13.9181H60L58.1506 0.810059H57.9694Z" fill="#F06432"/>
<path d="M87.9694 0.810059H84.3611L81.8394 11.9012L80.204 0.810059H76.3761L75.3718 5.82058L74.4279 0.810059H70.6137L68.0948 11.9012L66.4593 0.810059H62.6315L60 13.9181H63.9157L66.0862 2.87079L67.7051 13.9181H71.5302L74.0766 2.62932L75.0123 7.60691L73.7446 13.9181H77.6603L79.8308 2.87079L81.4497 13.9181H85.2749L87.7636 2.88726L89.3195 13.9181H90L88.1506 0.810059H87.9694Z" fill="#F06432"/>
<path d="M117.969 0.810059H114.361L111.839 11.9012L110.204 0.810059H106.376L105.372 5.82058L104.428 0.810059H100.614L98.0948 11.9012L96.4593 0.810059H92.6315L90 13.9181H93.9157L96.0862 2.87079L97.7051 13.9181H101.53L104.077 2.62932L105.012 7.60691L103.745 13.9181H107.66L109.831 2.87079L111.45 13.9181H115.275L117.764 2.88726L119.319 13.9181H120L118.151 0.810059H117.969Z" fill="#F06432"/>
<path d="M147.969 0.810059H144.361L141.839 11.9012L140.204 0.810059H136.376L135.372 5.82058L134.428 0.810059H130.614L128.095 11.9012L126.459 0.810059H122.631L120 13.9181H123.916L126.086 2.87079L127.705 13.9181H131.53L134.077 2.62932L135.012 7.60691L133.745 13.9181H137.66L139.831 2.87079L141.45 13.9181H145.275L147.764 2.88726L149.319 13.9181H150L148.151 0.810059H147.969Z" fill="#F06432"/>
<path d="M177.969 0.810059H174.361L171.839 11.9012L170.204 0.810059H166.376L165.372 5.82058L164.428 0.810059H160.614L158.095 11.9012L156.459 0.810059H152.631L150 13.9181H153.916L156.086 2.87079L157.705 13.9181H161.53L164.077 2.62932L165.012 7.60691L163.745 13.9181H167.66L169.831 2.87079L171.45 13.9181H175.275L177.764 2.88726L179.319 13.9181H180L178.151 0.810059H177.969Z" fill="#F06432"/>
<path d="M207.969 0.810059H204.361L201.839 11.9012L200.204 0.810059H196.376L195.372 5.82058L194.428 0.810059H190.614L188.095 11.9012L186.459 0.810059H182.631L180 13.9181H183.916L186.086 2.87079L187.705 13.9181H191.53L194.077 2.62932L195.012 7.60691L193.745 13.9181H197.66L199.831 2.87079L201.45 13.9181H205.275L207.764 2.88726L209.319 13.9181H210L208.151 0.810059H207.969Z" fill="#F06432"/>
<path d="M237.969 0.810059H234.361L231.839 11.9012L230.204 0.810059H226.376L225.372 5.82058L224.428 0.810059H220.614L218.095 11.9012L216.459 0.810059H212.631L210 13.9181H213.916L216.086 2.87079L217.705 13.9181H221.53L224.077 2.62932L225.012 7.60691L223.745 13.9181H227.66L229.831 2.87079L231.45 13.9181H235.275L237.764 2.88726L239.319 13.9181H240L238.151 0.810059H237.969Z" fill="#F06432"/>
<path d="M267.969 0.810059H264.361L261.839 11.9012L260.204 0.810059H256.376L255.372 5.82058L254.428 0.810059H250.614L248.095 11.9012L246.459 0.810059H242.631L240 13.9181H243.916L246.086 2.87079L247.705 13.9181H251.53L254.077 2.62932L255.012 7.60691L253.745 13.9181H257.66L259.831 2.87079L261.45 13.9181H265.275L267.764 2.88726L269.319 13.9181H270L268.151 0.810059H267.969Z" fill="#F06432"/>
<path d="M297.969 0.810059H294.361L291.839 11.9012L290.204 0.810059H286.376L285.372 5.82058L284.428 0.810059H280.614L278.095 11.9012L276.459 0.810059H272.631L270 13.9181H273.916L276.086 2.87079L277.705 13.9181H281.53L284.077 2.62932L285.012 7.60691L283.745 13.9181H287.66L289.831 2.87079L291.45 13.9181H295.275L297.764 2.88726L299.319 13.9181H300L298.151 0.810059H297.969Z" fill="#F06432"/>
<path d="M327.969 0.810059H324.361L321.839 11.9012L320.204 0.810059H316.376L315.372 5.82058L314.428 0.810059H310.614L308.095 11.9012L306.459 0.810059H302.631L300 13.9181H303.916L306.086 2.87079L307.705 13.9181H311.53L314.077 2.62932L315.012 7.60691L313.745 13.9181H317.66L319.831 2.87079L321.45 13.9181H325.275L327.764 2.88726L329.319 13.9181H330L328.151 0.810059H327.969Z" fill="#F06432"/>
<path d="M357.969 0.810059H354.361L351.839 11.9012L350.204 0.810059H346.376L345.372 5.82058L344.428 0.810059H340.614L338.095 11.9012L336.459 0.810059H332.631L330 13.9181H333.916L336.086 2.87079L337.705 13.9181H341.53L344.077 2.62932L345.012 7.60691L343.745 13.9181H347.66L349.831 2.87079L351.45 13.9181H355.275L357.764 2.88726L359.319 13.9181H360L358.151 0.810059H357.969Z" fill="#F06432"/>
<path d="M387.969 0.810059H384.361L381.839 11.9012L380.204 0.810059H376.376L375.372 5.82058L374.428 0.810059H370.614L368.095 11.9012L366.459 0.810059H362.631L360 13.9181H363.916L366.086 2.87079L367.705 13.9181H371.53L374.077 2.62932L375.012 7.60691L373.745 13.9181H377.66L379.831 2.87079L381.45 13.9181H385.275L387.764 2.88726L389.319 13.9181H390L388.151 0.810059H387.969Z" fill="#F06432"/>
<path d="M417.969 0.810059H414.361L411.839 11.9012L410.204 0.810059H406.376L405.372 5.82058L404.428 0.810059H400.614L398.095 11.9012L396.459 0.810059H392.631L390 13.9181H393.916L396.086 2.87079L397.705 13.9181H401.53L404.077 2.62932L405.012 7.60691L403.745 13.9181H407.66L409.831 2.87079L411.45 13.9181H415.275L417.764 2.88726L419.319 13.9181H420L418.151 0.810059H417.969Z" fill="#F06432"/>
<path d="M447.969 0.810059H444.361L441.839 11.9012L440.204 0.810059H436.376L435.372 5.82058L434.428 0.810059H430.614L428.095 11.9012L426.459 0.810059H422.631L420 13.9181H423.916L426.086 2.87079L427.705 13.9181H431.53L434.077 2.62932L435.012 7.60691L433.745 13.9181H437.66L439.831 2.87079L441.45 13.9181H445.275L447.764 2.88726L449.319 13.9181H450L448.151 0.810059H447.969Z" fill="#F06432"/>
<path d="M477.969 0.810059H474.361L471.839 11.9012L470.204 0.810059H466.376L465.372 5.82058L464.428 0.810059H460.614L458.095 11.9012L456.459 0.810059H452.631L450 13.9181H453.916L456.086 2.87079L457.705 13.9181H461.53L464.077 2.62932L465.012 7.60691L463.745 13.9181H467.66L469.831 2.87079L471.45 13.9181H475.275L477.764 2.88726L479.319 13.9181H480L478.151 0.810059H477.969Z" fill="#F06432"/>
<path d="M507.969 0.810059H504.361L501.839 11.9012L500.204 0.810059H496.376L495.372 5.82058L494.428 0.810059H490.614L488.095 11.9012L486.459 0.810059H482.631L480 13.9181H483.916L486.086 2.87079L487.705 13.9181H491.53L494.077 2.62932L495.012 7.60691L493.745 13.9181H497.66L499.831 2.87079L501.45 13.9181H505.275L507.764 2.88726L509.319 13.9181H510L508.151 0.810059H507.969Z" fill="#F06432"/>
<path d="M537.969 0.810059H534.361L531.839 11.9012L530.204 0.810059H526.376L525.372 5.82058L524.428 0.810059H520.614L518.095 11.9012L516.459 0.810059H512.631L510 13.9181H513.916L516.086 2.87079L517.705 13.9181H521.53L524.077 2.62932L525.012 7.60691L523.745 13.9181H527.66L529.831 2.87079L531.45 13.9181H535.275L537.764 2.88726L539.319 13.9181H540L538.151 0.810059H537.969Z" fill="#F06432"/>
<path d="M567.969 0.810059H564.361L561.839 11.9012L560.204 0.810059H556.376L555.372 5.82058L554.428 0.810059H550.614L548.095 11.9012L546.459 0.810059H542.631L540 13.9181H543.916L546.086 2.87079L547.705 13.9181H551.53L554.077 2.62932L555.012 7.60691L553.745 13.9181H557.66L559.831 2.87079L561.45 13.9181H565.275L567.764 2.88726L569.319 13.9181H570L568.151 0.810059H567.969Z" fill="#F06432"/>
<path d="M597.969 0.810059H594.361L591.839 11.9012L590.204 0.810059H586.376L585.372 5.82058L584.428 0.810059H580.614L578.095 11.9012L576.459 0.810059H572.631L570 13.9181H573.916L576.086 2.87079L577.705 13.9181H581.53L584.077 2.62932L585.012 7.60691L583.745 13.9181H587.66L589.831 2.87079L591.45 13.9181H595.275L597.764 2.88726L599.319 13.9181H600L598.151 0.810059H597.969Z" fill="#F06432"/>
<path d="M627.969 0.810059H624.361L621.839 11.9012L620.204 0.810059H616.376L615.372 5.82058L614.428 0.810059H610.614L608.095 11.9012L606.459 0.810059H602.631L600 13.9181H603.916L606.086 2.87079L607.705 13.9181H611.53L614.077 2.62932L615.012 7.60691L613.745 13.9181H617.66L619.831 2.87079L621.45 13.9181H625.275L627.764 2.88726L629.319 13.9181H630L628.151 0.810059H627.969Z" fill="#F06432"/>
<path d="M657.969 0.810059H654.361L651.839 11.9012L650.204 0.810059H646.376L645.372 5.82058L644.428 0.810059H640.614L638.095 11.9012L636.459 0.810059H632.631L630 13.9181H633.916L636.086 2.87079L637.705 13.9181H641.53L644.077 2.62932L645.012 7.60691L643.745 13.9181H647.66L649.831 2.87079L651.45 13.9181H655.275L657.764 2.88726L659.319 13.9181H660L658.151 0.810059H657.969Z" fill="#F06432"/>
<path d="M687.969 0.810059H684.361L681.839 11.9012L680.204 0.810059H676.376L675.372 5.82058L674.428 0.810059H670.614L668.095 11.9012L666.459 0.810059H662.631L660 13.9181H663.916L666.086 2.87079L667.705 13.9181H671.53L674.077 2.62932L675.012 7.60691L673.745 13.9181H677.66L679.831 2.87079L681.45 13.9181H685.275L687.764 2.88726L689.319 13.9181H690L688.151 0.810059H687.969Z" fill="#F06432"/>
<path d="M717.969 0.810059H714.361L711.839 11.9012L710.204 0.810059H706.376L705.372 5.82058L704.428 0.810059H700.614L698.095 11.9012L696.459 0.810059H692.631L690 13.9181H693.916L696.086 2.87079L697.705 13.9181H701.53L704.077 2.62932L705.012 7.60691L703.745 13.9181H707.66L709.831 2.87079L711.45 13.9181H715.275L717.764 2.88726L719.319 13.9181H720L718.151 0.810059H717.969Z" fill="#F06432"/>
<path d="M747.969 0.810059H744.361L741.839 11.9012L740.204 0.810059H736.376L735.372 5.82058L734.428 0.810059H730.614L728.095 11.9012L726.459 0.810059H722.631L720 13.9181H723.916L726.086 2.87079L727.705 13.9181H731.53L734.077 2.62932L735.012 7.60691L733.745 13.9181H737.66L739.831 2.87079L741.45 13.9181H745.275L747.764 2.88726L749.319 13.9181H750L748.151 0.810059H747.969Z" fill="#F06432"/>
<path d="M777.969 0.810059H774.361L771.839 11.9012L770.204 0.810059H766.376L765.372 5.82058L764.428 0.810059H760.614L758.095 11.9012L756.459 0.810059H752.631L750 13.9181H753.916L756.086 2.87079L757.705 13.9181H761.53L764.077 2.62932L765.012 7.60691L763.745 13.9181H767.66L769.831 2.87079L771.45 13.9181H775.275L777.764 2.88726L779.319 13.9181H780L778.151 0.810059H777.969Z" fill="#F06432"/>
<path d="M807.969 0.810059H804.361L801.839 11.9012L800.204 0.810059H796.376L795.372 5.82058L794.428 0.810059H790.614L788.095 11.9012L786.459 0.810059H782.631L780 13.9181H783.916L786.086 2.87079L787.705 13.9181H791.53L794.077 2.62932L795.012 7.60691L793.745 13.9181H797.66L799.831 2.87079L801.45 13.9181H805.275L807.764 2.88726L809.319 13.9181H810L808.151 0.810059H807.969Z" fill="#F06432"/>
<path d="M837.969 0.810059H834.361L831.839 11.9012L830.204 0.810059H826.376L825.372 5.82058L824.428 0.810059H820.614L818.095 11.9012L816.459 0.810059H812.631L810 13.9181H813.916L816.086 2.87079L817.705 13.9181H821.53L824.077 2.62932L825.012 7.60691L823.745 13.9181H827.66L829.831 2.87079L831.45 13.9181H835.275L837.764 2.88726L839.319 13.9181H840L838.151 0.810059H837.969Z" fill="#F06432"/>
<path d="M867.969 0.810059H864.361L861.839 11.9012L860.204 0.810059H856.376L855.372 5.82058L854.428 0.810059H850.614L848.095 11.9012L846.459 0.810059H842.631L840 13.9181H843.916L846.086 2.87079L847.705 13.9181H851.53L854.077 2.62932L855.012 7.60691L853.745 13.9181H857.66L859.831 2.87079L861.45 13.9181H865.275L867.764 2.88726L869.319 13.9181H870L868.151 0.810059H867.969Z" fill="#F06432"/>
<path d="M897.969 0.810059H894.361L891.839 11.9012L890.204 0.810059H886.376L885.372 5.82058L884.428 0.810059H880.614L878.095 11.9012L876.459 0.810059H872.631L870 13.9181H873.916L876.086 2.87079L877.705 13.9181H881.53L884.077 2.62932L885.012 7.60691L883.745 13.9181H887.66L889.831 2.87079L891.45 13.9181H895.275L897.764 2.88726L899.319 13.9181H900L898.151 0.810059H897.969Z" fill="#F06432"/>
<path d="M927.969 0.810059H924.361L921.839 11.9012L920.204 0.810059H916.376L915.372 5.82058L914.428 0.810059H910.614L908.095 11.9012L906.459 0.810059H902.631L900 13.9181H903.916L906.086 2.87079L907.705 13.9181H911.53L914.077 2.62932L915.012 7.60691L913.745 13.9181H917.66L919.831 2.87079L921.45 13.9181H925.275L927.764 2.88726L929.319 13.9181H930L928.151 0.810059H927.969Z" fill="#F06432"/>
<path d="M957.969 0.810059H954.361L951.839 11.9012L950.204 0.810059H946.376L945.372 5.82058L944.428 0.810059H940.614L938.095 11.9012L936.459 0.810059H932.631L930 13.9181H933.916L936.086 2.87079L937.705 13.9181H941.53L944.077 2.62932L945.012 7.60691L943.745 13.9181H947.66L949.831 2.87079L951.45 13.9181H955.275L957.764 2.88726L959.319 13.9181H960L958.151 0.810059H957.969Z" fill="#F06432"/>
<path d="M987.969 0.810059H984.361L981.839 11.9012L980.204 0.810059H976.376L975.372 5.82058L974.428 0.810059H970.614L968.095 11.9012L966.459 0.810059H962.631L960 13.9181H963.916L966.086 2.87079L967.705 13.9181H971.53L974.077 2.62932L975.012 7.60691L973.745 13.9181H977.66L979.831 2.87079L981.45 13.9181H985.275L987.764 2.88726L989.319 13.9181H990L988.151 0.810059H987.969Z" fill="#F06432"/>
<path d="M1017.97 0.810059H1014.36L1011.84 11.9012L1010.2 0.810059H1006.38L1005.37 5.82058L1004.43 0.810059H1000.61L998.095 11.9012L996.459 0.810059H992.631L990 13.9181H993.916L996.086 2.87079L997.705 13.9181H1001.53L1004.08 2.62932L1005.01 7.60691L1003.74 13.9181H1007.66L1009.83 2.87079L1011.45 13.9181H1015.27L1017.76 2.88726L1019.32 13.9181H1020L1018.15 0.810059H1017.97Z" fill="#F06432"/>
<path d="M1047.97 0.810059H1044.36L1041.84 11.9012L1040.2 0.810059H1036.38L1035.37 5.82058L1034.43 0.810059H1030.61L1028.09 11.9012L1026.46 0.810059H1022.63L1020 13.9181H1023.92L1026.09 2.87079L1027.71 13.9181H1031.53L1034.08 2.62932L1035.01 7.60691L1033.74 13.9181H1037.66L1039.83 2.87079L1041.45 13.9181H1045.27L1047.76 2.88726L1049.32 13.9181H1050L1048.15 0.810059H1047.97Z" fill="#F06432"/>
<path d="M1077.97 0.810059H1074.36L1071.84 11.9012L1070.2 0.810059H1066.38L1065.37 5.82058L1064.43 0.810059H1060.61L1058.09 11.9012L1056.46 0.810059H1052.63L1050 13.9181H1053.92L1056.09 2.87079L1057.71 13.9181H1061.53L1064.08 2.62932L1065.01 7.60691L1063.74 13.9181H1067.66L1069.83 2.87079L1071.45 13.9181H1075.27L1077.76 2.88726L1079.32 13.9181H1080L1078.15 0.810059H1077.97Z" fill="#F06432"/>
<path d="M1107.97 0.810059H1104.36L1101.84 11.9012L1100.2 0.810059H1096.38L1095.37 5.82058L1094.43 0.810059H1090.61L1088.09 11.9012L1086.46 0.810059H1082.63L1080 13.9181H1083.92L1086.09 2.87079L1087.71 13.9181H1091.53L1094.08 2.62932L1095.01 7.60691L1093.74 13.9181H1097.66L1099.83 2.87079L1101.45 13.9181H1105.27L1107.76 2.88726L1109.32 13.9181H1110L1108.15 0.810059H1107.97Z" fill="#F06432"/>
<path d="M1137.97 0.810059H1134.36L1131.84 11.9012L1130.2 0.810059H1126.38L1125.37 5.82058L1124.43 0.810059H1120.61L1118.09 11.9012L1116.46 0.810059H1112.63L1110 13.9181H1113.92L1116.09 2.87079L1117.71 13.9181H1121.53L1124.08 2.62932L1125.01 7.60691L1123.74 13.9181H1127.66L1129.83 2.87079L1131.45 13.9181H1135.27L1137.76 2.88726L1139.32 13.9181H1140L1138.15 0.810059H1137.97Z" fill="#F06432"/>
<path d="M1167.97 0.810059H1164.36L1161.84 11.9012L1160.2 0.810059H1156.38L1155.37 5.82058L1154.43 0.810059H1150.61L1148.09 11.9012L1146.46 0.810059H1142.63L1140 13.9181H1143.92L1146.09 2.87079L1147.71 13.9181H1151.53L1154.08 2.62932L1155.01 7.60691L1153.74 13.9181H1157.66L1159.83 2.87079L1161.45 13.9181H1165.27L1167.76 2.88726L1169.32 13.9181H1170L1168.15 0.810059H1167.97Z" fill="#F06432"/>
<path d="M1197.97 0.810059H1194.36L1191.84 11.9012L1190.2 0.810059H1186.38L1185.37 5.82058L1184.43 0.810059H1180.61L1178.09 11.9012L1176.46 0.810059H1172.63L1170 13.9181H1173.92L1176.09 2.87079L1177.71 13.9181H1181.53L1184.08 2.62932L1185.01 7.60691L1183.74 13.9181H1187.66L1189.83 2.87079L1191.45 13.9181H1195.27L1197.76 2.88726L1199.32 13.9181H1200L1198.15 0.810059H1197.97Z" fill="#F06432"/>
<path d="M1227.97 0.810059H1224.36L1221.84 11.9012L1220.2 0.810059H1216.38L1215.37 5.82058L1214.43 0.810059H1210.61L1208.09 11.9012L1206.46 0.810059H1202.63L1200 13.9181H1203.92L1206.09 2.87079L1207.71 13.9181H1211.53L1214.08 2.62932L1215.01 7.60691L1213.74 13.9181H1217.66L1219.83 2.87079L1221.45 13.9181H1225.27L1227.76 2.88726L1229.32 13.9181H1230L1228.15 0.810059H1227.97Z" fill="#F06432"/>
<path d="M1257.97 0.810059H1254.36L1251.84 11.9012L1250.2 0.810059H1246.38L1245.37 5.82058L1244.43 0.810059H1240.61L1238.09 11.9012L1236.46 0.810059H1232.63L1230 13.9181H1233.92L1236.09 2.87079L1237.71 13.9181H1241.53L1244.08 2.62932L1245.01 7.60691L1243.74 13.9181H1247.66L1249.83 2.87079L1251.45 13.9181H1255.27L1257.76 2.88726L1259.32 13.9181H1260L1258.15 0.810059H1257.97Z" fill="#F06432"/>
<path d="M1287.97 0.810059H1284.36L1281.84 11.9012L1280.2 0.810059H1276.38L1275.37 5.82058L1274.43 0.810059H1270.61L1268.09 11.9012L1266.46 0.810059H1262.63L1260 13.9181H1263.92L1266.09 2.87079L1267.71 13.9181H1271.53L1274.08 2.62932L1275.01 7.60691L1273.74 13.9181H1277.66L1279.83 2.87079L1281.45 13.9181H1285.27L1287.76 2.88726L1289.32 13.9181H1290L1288.15 0.810059H1287.97Z" fill="#F06432"/>
<path d="M1317.97 0.810059H1314.36L1311.84 11.9012L1310.2 0.810059H1306.38L1305.37 5.82058L1304.43 0.810059H1300.61L1298.09 11.9012L1296.46 0.810059H1292.63L1290 13.9181H1293.92L1296.09 2.87079L1297.71 13.9181H1301.53L1304.08 2.62932L1305.01 7.60691L1303.74 13.9181H1307.66L1309.83 2.87079L1311.45 13.9181H1315.27L1317.76 2.88726L1319.32 13.9181H1320L1318.15 0.810059H1317.97Z" fill="#F06432"/>
<path d="M1347.97 0.810059H1344.36L1341.84 11.9012L1340.2 0.810059H1336.38L1335.37 5.82058L1334.43 0.810059H1330.61L1328.09 11.9012L1326.46 0.810059H1322.63L1320 13.9181H1323.92L1326.09 2.87079L1327.71 13.9181H1331.53L1334.08 2.62932L1335.01 7.60691L1333.74 13.9181H1337.66L1339.83 2.87079L1341.45 13.9181H1345.27L1347.76 2.88726L1349.32 13.9181H1350L1348.15 0.810059H1347.97Z" fill="#F06432"/>
<path d="M1377.97 0.810059H1374.36L1371.84 11.9012L1370.2 0.810059H1366.38L1365.37 5.82058L1364.43 0.810059H1360.61L1358.09 11.9012L1356.46 0.810059H1352.63L1350 13.9181H1353.92L1356.09 2.87079L1357.71 13.9181H1361.53L1364.08 2.62932L1365.01 7.60691L1363.74 13.9181H1367.66L1369.83 2.87079L1371.45 13.9181H1375.27L1377.76 2.88726L1379.32 13.9181H1380L1378.15 0.810059H1377.97Z" fill="#F06432"/>
<path d="M1407.97 0.810059H1404.36L1401.84 11.9012L1400.2 0.810059H1396.38L1395.37 5.82058L1394.43 0.810059H1390.61L1388.09 11.9012L1386.46 0.810059H1382.63L1380 13.9181H1383.92L1386.09 2.87079L1387.71 13.9181H1391.53L1394.08 2.62932L1395.01 7.60691L1393.74 13.9181H1397.66L1399.83 2.87079L1401.45 13.9181H1405.27L1407.76 2.88726L1409.32 13.9181H1410L1408.15 0.810059H1407.97Z" fill="#F06432"/>
<path d="M1437.97 0.810059H1434.36L1431.84 11.9012L1430.2 0.810059H1426.38L1425.37 5.82058L1424.43 0.810059H1420.61L1418.09 11.9012L1416.46 0.810059H1412.63L1410 13.9181H1413.92L1416.09 2.87079L1417.71 13.9181H1421.53L1424.08 2.62932L1425.01 7.60691L1423.74 13.9181H1427.66L1429.83 2.87079L1431.45 13.9181H1435.27L1437.76 2.88726L1439.32 13.9181H1440L1438.15 0.810059H1437.97Z" fill="#F06432"/>
<path d="M1467.97 0.810059H1464.36L1461.84 11.9012L1460.2 0.810059H1456.38L1455.37 5.82058L1454.43 0.810059H1450.61L1448.09 11.9012L1446.46 0.810059H1442.63L1440 13.9181H1443.92L1446.09 2.87079L1447.71 13.9181H1451.53L1454.08 2.62932L1455.01 7.60691L1453.74 13.9181H1457.66L1459.83 2.87079L1461.45 13.9181H1465.27L1467.76 2.88726L1469.32 13.9181H1470L1468.15 0.810059H1467.97Z" fill="#F06432"/>
</svg>
