<svg width="25" height="25" viewBox="0 0 25 25" fill="none" xmlns="http://www.w3.org/2000/svg">
<path d="M20.8545 20.195L17.4545 16.805C18.5515 15.4075 19.1467 13.6817 19.1445 11.905C19.1445 10.3228 18.6753 8.77603 17.7963 7.46044C16.9172 6.14485 15.6678 5.11947 14.206 4.51397C12.7442 3.90847 11.1357 3.75004 9.58381 4.05872C8.03196 4.3674 6.6065 5.12933 5.48768 6.24815C4.36886 7.36697 3.60693 8.79243 3.29825 10.3443C2.98957 11.8961 3.148 13.5047 3.7535 14.9665C4.359 16.4283 5.38438 17.6777 6.69997 18.5568C8.01557 19.4358 9.56228 19.905 11.1445 19.905C12.9212 19.9072 14.647 19.312 16.0445 18.215L19.4345 21.615C19.5275 21.7087 19.6381 21.7831 19.76 21.8339C19.8818 21.8847 20.0125 21.9108 20.1445 21.9108C20.2765 21.9108 20.4073 21.8847 20.5291 21.8339C20.651 21.7831 20.7616 21.7087 20.8545 21.615C20.9483 21.522 21.0227 21.4114 21.0734 21.2896C21.1242 21.1677 21.1503 21.037 21.1503 20.905C21.1503 20.773 21.1242 20.6423 21.0734 20.5204C21.0227 20.3986 20.9483 20.288 20.8545 20.195ZM5.14453 11.905C5.14453 10.7183 5.49643 9.55828 6.15572 8.57158C6.81501 7.58489 7.75208 6.81585 8.84843 6.36173C9.94479 5.9076 11.1512 5.78878 12.3151 6.02029C13.479 6.2518 14.5481 6.82325 15.3872 7.66236C16.2263 8.50148 16.7977 9.57057 17.0292 10.7345C17.2608 11.8983 17.1419 13.1047 16.6878 14.2011C16.2337 15.2975 15.4647 16.2345 14.478 16.8938C13.4913 17.5531 12.3312 17.905 11.1445 17.905C9.55324 17.905 8.02711 17.2729 6.90189 16.1476C5.77668 15.0224 5.14453 13.4963 5.14453 11.905Z" fill="#3C3C3C"/>
</svg>
