<svg width="24" height="25" viewBox="0 0 24 25" fill="none" xmlns="http://www.w3.org/2000/svg">
<path d="M8.03108 14.169L14.1781 17.751M14.1691 7.86901L8.03108 11.451M19.2 6.51C19.2 8.00117 17.9912 9.21 16.5 9.21C15.0088 9.21 13.8 8.00117 13.8 6.51C13.8 5.01883 15.0088 3.81 16.5 3.81C17.9912 3.81 19.2 5.01883 19.2 6.51ZM8.4 12.81C8.4 14.3012 7.19117 15.51 5.7 15.51C4.20883 15.51 3 14.3012 3 12.81C3 11.3188 4.20883 10.11 5.7 10.11C7.19117 10.11 8.4 11.3188 8.4 12.81ZM19.2 19.11C19.2 20.6012 17.9912 21.81 16.5 21.81C15.0088 21.81 13.8 20.6012 13.8 19.11C13.8 17.6188 15.0088 16.41 16.5 16.41C17.9912 16.41 19.2 17.6188 19.2 19.11Z" stroke="#3C3C3C" stroke-width="2" stroke-linecap="round" stroke-linejoin="round"/>
</svg>
