<svg width="56" height="57" viewBox="0 0 56 57" fill="none" xmlns="http://www.w3.org/2000/svg">
<rect x="1" y="1.81" width="54" height="54" rx="27" stroke="#F06432" stroke-width="2"/>
<path d="M31.5556 20.81H18.2222V32.3656H31.5556V20.81Z" stroke="#F06432" stroke-width="2" stroke-linecap="round" stroke-linejoin="round"/>
<path d="M31.5555 25.2544H35.1111L37.7778 27.9211V32.3656H31.5555V25.2544Z" stroke="#F06432" stroke-width="2" stroke-linecap="round" stroke-linejoin="round"/>
<path d="M22.2222 36.81C23.4495 36.81 24.4444 35.8151 24.4444 34.5878C24.4444 33.3605 23.4495 32.3656 22.2222 32.3656C20.9949 32.3656 20 33.3605 20 34.5878C20 35.8151 20.9949 36.81 22.2222 36.81Z" stroke="#F06432" stroke-width="2" stroke-linecap="round" stroke-linejoin="round"/>
<path d="M33.7778 36.81C35.0051 36.81 36 35.8151 36 34.5878C36 33.3605 35.0051 32.3656 33.7778 32.3656C32.5505 32.3656 31.5555 33.3605 31.5555 34.5878C31.5555 35.8151 32.5505 36.81 33.7778 36.81Z" stroke="#F06432" stroke-width="2" stroke-linecap="round" stroke-linejoin="round"/>
</svg>
