<svg width="57" height="57" viewBox="0 0 57 57" fill="none" xmlns="http://www.w3.org/2000/svg">
<rect x="1" y="1.31" width="55" height="55" rx="27.5" stroke="#C2C1C2"/>
<path d="M32.0555 20.81H18.7222V32.3656H32.0555V20.81Z" stroke="#3C3C3C" stroke-width="2" stroke-linecap="round" stroke-linejoin="round"/>
<path d="M32.0555 25.2544H35.6111L38.2778 27.9211V32.3656H32.0555V25.2544Z" stroke="#3C3C3C" stroke-width="2" stroke-linecap="round" stroke-linejoin="round"/>
<path d="M22.7222 36.81C23.9495 36.81 24.9444 35.8151 24.9444 34.5878C24.9444 33.3605 23.9495 32.3656 22.7222 32.3656C21.4949 32.3656 20.5 33.3605 20.5 34.5878C20.5 35.8151 21.4949 36.81 22.7222 36.81Z" stroke="#3C3C3C" stroke-width="2" stroke-linecap="round" stroke-linejoin="round"/>
<path d="M34.2778 36.81C35.5051 36.81 36.5 35.8151 36.5 34.5878C36.5 33.3605 35.5051 32.3656 34.2778 32.3656C33.0505 32.3656 32.0555 33.3605 32.0555 34.5878C32.0555 35.8151 33.0505 36.81 34.2778 36.81Z" stroke="#3C3C3C" stroke-width="2" stroke-linecap="round" stroke-linejoin="round"/>
</svg>
