<svg xmlns="http://www.w3.org/2000/svg" width="35.593" height="44.5" viewBox="0 0 35.593 44.5">
  <path id="shop-big" d="M34.77,15.283v.267h6.947a1.959,1.959,0,0,1,1.959,1.959V42a6.413,6.413,0,0,1-6.413,6.413H15A6.413,6.413,0,0,1,8.584,42V17.51a1.96,1.96,0,0,1,1.96-1.959h6.947V13.056a8.64,8.64,0,0,1,17.279,0Zm-4.186.267h.267V13.056a4.721,4.721,0,1,0-9.441,0V15.55h9.174ZM12.77,19.469H12.5V42A2.494,2.494,0,0,0,15,44.5H37.264A2.494,2.494,0,0,0,39.758,42V19.469H34.77v2.494a1.96,1.96,0,1,1-3.919,0V19.469H21.41v2.494a1.96,1.96,0,0,1-3.919,0V19.469H12.77Z" transform="translate(-8.334 -4.167)" fill="#3c3c3c" stroke="#fff" stroke-width="0.5"/>
</svg>
