<svg width="25" height="25" viewBox="0 0 25 25" fill="none" xmlns="http://www.w3.org/2000/svg">
<path d="M19.334 7.81H16.334V6.81C16.334 5.74913 15.9126 4.73172 15.1624 3.98157C14.4123 3.23142 13.3949 2.81 12.334 2.81C11.2731 2.81 10.2557 3.23142 9.50556 3.98157C8.75541 4.73172 8.33398 5.74913 8.33398 6.81V7.81H5.33398C5.06877 7.81 4.81441 7.91535 4.62688 8.10289C4.43934 8.29043 4.33398 8.54478 4.33398 8.81V19.81C4.33398 20.6056 4.65005 21.3687 5.21266 21.9313C5.77527 22.4939 6.53833 22.81 7.33398 22.81H17.334C18.1296 22.81 18.8927 22.4939 19.4553 21.9313C20.0179 21.3687 20.334 20.6056 20.334 19.81V8.81C20.334 8.54478 20.2286 8.29043 20.0411 8.10289C19.8536 7.91535 19.5992 7.81 19.334 7.81ZM10.334 6.81C10.334 6.27956 10.5447 5.77086 10.9198 5.39578C11.2948 5.02071 11.8036 4.81 12.334 4.81C12.8644 4.81 13.3731 5.02071 13.7482 5.39578C14.1233 5.77086 14.334 6.27956 14.334 6.81V7.81H10.334V6.81ZM18.334 19.81C18.334 20.0752 18.2286 20.3296 18.0411 20.5171C17.8536 20.7046 17.5992 20.81 17.334 20.81H7.33398C7.06877 20.81 6.81441 20.7046 6.62688 20.5171C6.43934 20.3296 6.33398 20.0752 6.33398 19.81V9.81H8.33398V10.81C8.33398 11.0752 8.43934 11.3296 8.62688 11.5171C8.81441 11.7046 9.06877 11.81 9.33398 11.81C9.5992 11.81 9.85355 11.7046 10.0411 11.5171C10.2286 11.3296 10.334 11.0752 10.334 10.81V9.81H14.334V10.81C14.334 11.0752 14.4393 11.3296 14.6269 11.5171C14.8144 11.7046 15.0688 11.81 15.334 11.81C15.5992 11.81 15.8536 11.7046 16.0411 11.5171C16.2286 11.3296 16.334 11.0752 16.334 10.81V9.81H18.334V19.81Z" fill="white"/>
</svg>
