<svg width="24" height="25" viewBox="0 0 24 25" fill="none" xmlns="http://www.w3.org/2000/svg">
<path d="M11.029 3.35001C11.326 3.18504 11.6602 3.09848 12 3.09848C12.3398 3.09848 12.674 3.18504 12.971 3.35001L20.486 7.52401C20.6418 7.61065 20.7716 7.73736 20.862 7.89103C20.9524 8.0447 21 8.21973 21 8.39801V16.633C20.9999 16.9897 20.9045 17.3398 20.7235 17.6471C20.5426 17.9545 20.2828 18.2079 19.971 18.381L12.971 22.271C12.674 22.436 12.3398 22.5225 12 22.5225C11.6602 22.5225 11.326 22.436 11.029 22.271L4.029 18.381C3.71736 18.2079 3.45763 17.9547 3.27671 17.6476C3.0958 17.3404 3.00026 16.9905 3 16.634V8.39801C2.99999 8.21973 3.04764 8.0447 3.13802 7.89103C3.22839 7.73736 3.3582 7.61065 3.514 7.52401L11.03 3.35001H11.029Z" stroke="#04D164" stroke-width="2" stroke-linecap="round" stroke-linejoin="round"/>
<path d="M12 12.81V22.31M3 7.81L12 12.81L3 7.81ZM12 12.81L21 7.81L12 12.81Z" stroke="#04D164" stroke-width="2" stroke-linejoin="round"/>
<path d="M6 13.138L9 14.81M7.5 10.31L16.5 5.31L7.5 10.31Z" stroke="#04D164" stroke-width="2" stroke-linecap="round" stroke-linejoin="round"/>
</svg>
