<svg width="24" height="25" viewBox="0 0 24 25" fill="none" xmlns="http://www.w3.org/2000/svg">
<path d="M15.556 4.81H2.22266V16.3656H15.556V4.81Z" stroke="#04D164" stroke-width="2" stroke-linecap="round" stroke-linejoin="round"/>
<path d="M15.5557 9.25446H19.1112L21.7779 11.9211V16.3656H15.5557V9.25446Z" stroke="#04D164" stroke-width="2" stroke-linecap="round" stroke-linejoin="round"/>
<path d="M6.22222 20.81C7.44952 20.81 8.44444 19.8151 8.44444 18.5878C8.44444 17.3605 7.44952 16.3655 6.22222 16.3655C4.99492 16.3655 4 17.3605 4 18.5878C4 19.8151 4.99492 20.81 6.22222 20.81Z" stroke="#04D164" stroke-width="2" stroke-linecap="round" stroke-linejoin="round"/>
<path d="M17.7779 20.81C19.0052 20.81 20.0001 19.8151 20.0001 18.5878C20.0001 17.3605 19.0052 16.3655 17.7779 16.3655C16.5506 16.3655 15.5557 17.3605 15.5557 18.5878C15.5557 19.8151 16.5506 20.81 17.7779 20.81Z" stroke="#04D164" stroke-width="2" stroke-linecap="round" stroke-linejoin="round"/>
</svg>
