<svg width="192" height="110" viewBox="0 0 192 110" fill="none" xmlns="http://www.w3.org/2000/svg">
<g clip-path="url(#clip0_662_5559)">
<path d="M123.465 32.12C125.442 23.1019 126.199 13.8617 125.716 4.64426L125.638 3.87353L124.863 3.64439C118.122 2.14096 111.275 1.1607 104.381 0.712459C105.853 19.6164 111.287 33.7396 119.277 45.936C121.053 41.4533 122.454 36.8323 123.465 32.12Z" fill="white"/>
<path d="M87.7737 0.556227C87.5433 4.33701 87.2501 8.11779 86.6899 11.8986C85.7937 18.8587 84.3939 25.7456 82.5014 32.5054C80.6542 39.2798 78.2409 45.8888 75.2868 52.2634C74.8746 53.0371 74.5109 53.8354 74.1978 54.6537C76.2496 58.2607 78.6671 61.6494 81.4124 64.767C86.3025 47.7847 89.6376 27.105 90.2606 0.478115C89.4072 0.478115 88.5538 0.556227 87.7737 0.556227Z" fill="white"/>
<path d="M113.847 52.3415C110.892 45.9763 108.479 39.3759 106.632 32.6095C104.737 25.8503 103.338 18.9633 102.444 12.0027C101.978 8.22194 101.59 4.44116 101.36 0.660379C100.585 0.660379 99.7318 0.582267 98.8784 0.582267C99.4962 27.2092 102.758 47.8889 107.721 64.866C110.492 61.77 112.911 58.3802 114.936 54.7578C114.622 53.9405 114.261 53.1424 113.852 52.3675" fill="white"/>
<path d="M98.638 57.2784C97.3972 46.2433 96.7008 35.1301 96.3134 24.0169C96.076 16.1428 95.9207 8.27055 95.8474 0.399995H93.2872C93.2104 8.27402 93.0551 16.1463 92.8212 24.0169C92.4338 35.1301 91.8108 46.2433 90.4914 57.2784C89.9678 62.0642 89.3291 66.772 88.5542 71.4797C90.282 72.8288 92.0956 74.0656 93.9835 75.1824L94.5071 75.4949L95.0307 75.1824C96.8945 74.0263 98.7584 72.7921 100.465 71.4797C99.7636 66.7928 99.0673 62.0642 98.6013 57.2784" fill="white"/>
<path d="M64.3443 3.7225L63.5694 3.95164L63.4909 4.72238C63.4123 5.24315 62.4804 17.3823 65.7422 32.1981C66.7547 36.91 68.1556 41.531 69.9307 46.0141C77.8469 33.8177 83.3548 19.6945 84.826 0.785366C72.7265 1.56131 64.4071 3.64439 64.3443 3.7225Z" fill="white"/>
<path d="M46.9622 86.9153H2.34955L0.799805 91.2325H16.1611L9.49093 109.522H24.6952L31.3706 91.2325H45.4125L46.9622 86.9153Z" fill="white"/>
<path d="M159.004 86.9153H142.941L134.716 109.522H150.779L159.004 86.9153Z" fill="white"/>
<path d="M156.057 97.4088L165.596 109.522H184.062L173.434 97.5598L191.9 86.9153H173.125L156.057 97.4088Z" fill="white"/>
<path d="M137.821 91.2377L139.392 86.9153H98.3291L92.6851 102.424C92.4648 102.908 92.3774 103.442 92.4317 103.97C92.4859 104.499 92.6799 105.004 92.994 105.434C93.2296 105.746 95.0882 107.751 95.4809 108.215C95.8119 108.634 96.2364 108.97 96.7207 109.198C97.205 109.426 97.7359 109.538 98.2715 109.527H131.167L132.738 105.205H109.732C108.34 105.205 107.638 104.127 108.025 103.122L109.036 100.268H134.486L136.057 95.9454H110.586L112.292 91.2585L137.821 91.2377Z" fill="white"/>
<path d="M90.6481 86.9153H49.8103L41.6113 109.527H57.2082L63.7999 91.2377H75.4386C75.6739 91.2136 75.9115 91.2487 76.1295 91.34C76.3475 91.4312 76.5388 91.5756 76.6859 91.7598C76.833 91.944 76.9311 92.1621 76.9712 92.394C77.0112 92.6258 76.992 92.864 76.9151 93.0864C76.601 94.0134 76.2135 95.0966 75.9046 95.7892C75.6786 96.3132 75.2976 96.7563 74.8122 97.0596C74.3268 97.3629 73.76 97.5119 73.1873 97.4869H62.2501L71.7947 109.605H89.7947L81.7266 100.575H86.6114C87.5061 100.617 88.3913 100.378 89.1426 99.8936C89.8939 99.4088 90.4736 98.7019 90.7999 97.8723C91.5015 96.1746 92.9727 92.0084 93.4177 90.618C94.2712 88.2277 92.9518 86.9153 90.6272 86.9153" fill="white"/>
</g>
<defs>
<clipPath id="clip0_662_5559">
<rect width="191.1" height="109.2" fill="white" transform="translate(0.799805 0.399998)"/>
</clipPath>
</defs>
</svg>
