<svg width="24" height="24" viewBox="0 0 24 24" fill="none" xmlns="http://www.w3.org/2000/svg">
<path d="M21 6.70437C20.325 6.98937 19.6125 7.18437 18.885 7.28937C19.6575 6.83187 20.2275 6.10437 20.49 5.24937C19.77 5.67687 18.9825 5.99187 18.1575 6.16437C16.7625 4.67937 14.43 4.60437 12.945 5.99937C12.2025 6.69687 11.7825 7.66437 11.7825 8.67687C11.7825 8.96187 11.82 9.23938 11.895 9.51688C8.925 9.37437 6.1575 7.97937 4.275 5.68437C3.9675 6.23937 3.8025 6.86937 3.8025 7.50687C3.8025 8.73687 4.4175 9.88437 5.445 10.5669C4.8525 10.5444 4.275 10.3794 3.765 10.0944V10.1319C3.765 11.8869 4.995 13.3944 6.7125 13.7394C6.39 13.8294 6.06 13.8744 5.73 13.8819C5.4975 13.8744 5.265 13.8519 5.04 13.8069C5.5275 15.2994 6.9 16.3194 8.4675 16.3569C7.155 17.3769 5.5425 17.9319 3.8775 17.9244C3.585 17.9319 3.2925 17.9244 3 17.8944C4.6875 18.9969 6.6675 19.5819 8.685 19.5744C14.445 19.6119 19.14 14.9769 19.1775 9.21688C19.1775 9.17188 19.1775 9.12687 19.1775 9.07437V8.60187C19.89 8.07687 20.505 7.43937 21 6.70437Z" fill="#9E9E9E"/>
</svg>
