<svg width="91" height="91" viewBox="0 0 91 91" fill="none" xmlns="http://www.w3.org/2000/svg">
<path d="M65.503 26.4295L63.973 17.7691C63.6782 16.1198 62.2536 14.9267 60.5832 14.9267H58.5059V12.8213H60.5832C63.2782 12.8213 65.5802 14.7513 66.0504 17.4041L67.5803 26.0646L65.503 26.4295Z" fill="#0B0E11"/>
<path d="M57.4615 20.7938L56.1702 8.55416C56.1351 8.18921 55.8263 7.90849 55.4543 7.90849H37.5791C37.2071 7.90849 36.9053 8.1822 36.8632 8.55416L35.5719 20.7938L33.4805 20.5763L34.7718 8.3366C34.9262 6.89787 36.1333 5.81006 37.5791 5.81006H55.4543C56.9071 5.81006 58.1142 6.89787 58.2616 8.3366L59.5529 20.5763L57.4615 20.7938Z" fill="#0B0E11"/>
<path d="M27.5352 26.4295L25.4648 26.0646L26.9948 17.4041C27.465 14.7443 29.76 12.8213 32.4619 12.8213H34.5744V14.9267H32.4619C30.7916 14.9267 29.3599 16.1268 29.0722 17.7691L27.5422 26.4295H27.5352Z" fill="#0B0E11"/>
<path d="M60.585 78.7918H58.2129V76.6864H60.585C62.2554 76.6864 63.6871 75.4862 63.9748 73.844L65.5048 65.1836L67.5821 65.5485L66.0522 74.2089C65.582 76.8688 63.287 78.7918 60.585 78.7918Z" fill="#0B0E11"/>
<path d="M55.4543 85.8099H37.5791C36.1263 85.8099 34.9192 84.7221 34.7718 83.2834L33.4805 71.0437L35.5719 70.8262L36.8632 83.0658C36.8983 83.4308 37.2071 83.7115 37.5791 83.7115H55.4543C55.8263 83.7115 56.1281 83.4378 56.1702 83.0658L57.4615 70.8262L59.5529 71.0437L58.2616 83.2834C58.1072 84.7221 56.9001 85.8099 55.4543 85.8099Z" fill="#0B0E11"/>
<path d="M34.5686 78.7918H32.4561C29.7611 78.7918 27.4592 76.8618 26.9889 74.2089L25.459 65.5485L27.5293 65.1836L29.0593 73.844C29.347 75.4933 30.7787 76.6864 32.4491 76.6864H34.5615V78.7918H34.5686Z" fill="#0B0E11"/>
<path d="M46.4991 74.5811C30.631 74.5811 17.7246 61.6747 17.7246 45.8067C17.7246 29.9386 30.631 17.0322 46.4991 17.0322C62.3671 17.0322 75.2735 29.9386 75.2735 45.8067C75.2735 61.6747 62.3671 74.5811 46.4991 74.5811ZM46.4991 19.1377C31.796 19.1377 19.8301 31.1036 19.8301 45.8067C19.8301 60.5097 31.796 72.4757 46.4991 72.4757C61.2021 72.4757 73.1681 60.5097 73.1681 45.8067C73.1681 31.1036 61.2021 19.1377 46.4991 19.1377Z" fill="#0B0E11"/>
<path d="M46.4998 68.3277C34.0776 68.3277 23.9785 58.2216 23.9785 45.8064C23.9785 33.3913 34.0776 23.2852 46.4998 23.2852C58.9219 23.2852 69.0211 33.3913 69.0211 45.8064C69.0211 49.5471 68.0806 53.2597 66.3121 56.5302L64.4593 55.5266C66.0664 52.5649 66.9156 49.2032 66.9156 45.8064C66.9156 34.5493 57.7569 25.3906 46.4998 25.3906C35.2427 25.3906 26.084 34.5493 26.084 45.8064C26.084 57.0636 35.2427 66.2223 46.4998 66.2223C52.36 66.2223 57.9464 63.6957 61.8204 59.2953L63.3995 60.6849C59.1255 65.5415 52.9635 68.3207 46.4998 68.3207V68.3277Z" fill="#0B0E11"/>
<path d="M35.2427 45.2803H29.4668V47.3857H35.2427V45.2803Z" fill="#3C3C3C"/>
<path d="M63.4908 44.7539H57.7148V46.8594H63.4908V44.7539Z" fill="#3C3C3C"/>
<path d="M47.2715 29.0542H45.166V34.8372H47.2715V29.0542Z" fill="#3C3C3C"/>
<path d="M47.791 57.3022H45.6855V63.0852H47.791V57.3022Z" fill="#3C3C3C"/>
<path d="M58.9484 35.6265L46.7305 44.3125L47.9504 46.0285L60.1683 37.3425L58.9484 35.6265Z" fill="#F06432"/>
<path d="M48.0833 45.9534L46.5938 47.4414L52.2977 53.1514L53.7873 51.6634L48.0833 45.9534Z" fill="#F06432"/>
<path d="M46.4994 48.0383C47.7319 48.0383 48.7311 47.0391 48.7311 45.8065C48.7311 44.5739 47.7319 43.5747 46.4994 43.5747C45.2668 43.5747 44.2676 44.5739 44.2676 45.8065C44.2676 47.0391 45.2668 48.0383 46.4994 48.0383Z" fill="#F06432"/>
</svg>
