<svg width="90" height="91" viewBox="0 0 90 91" fill="none" xmlns="http://www.w3.org/2000/svg">
<g clip-path="url(#clip0_595_8436)">
<path d="M85 78.6099H5V80.5771H85V78.6099Z" fill="#0B0E11"/>
<path d="M19.8002 64.2494C18.8166 64.2494 18.292 63.2986 17.728 62.2887C17.5182 61.9084 17.2559 61.4428 17.0854 61.2723C16.4166 60.6035 13.6297 57.1609 12.869 55.6396C12.6461 55.1937 11.7215 54.7019 10.5215 54.3871L11.0198 52.4855C12.3182 52.8264 13.9969 53.4953 14.6264 54.7609C15.2362 55.9805 17.8264 59.2396 18.4756 59.8822C18.8428 60.2494 19.1379 60.7805 19.4461 61.3379C19.5838 61.5805 19.7805 61.9346 19.9379 62.1707C20.01 61.8953 20.0559 61.1084 19.5379 59.5478C19.3477 58.9707 19.0461 58.4002 18.7313 57.7904C18.1412 56.6625 17.4723 55.3838 17.4723 53.856C17.4723 51.7773 17.4723 49.4166 19.7805 47.1084C22.0035 44.8855 21.892 44.0986 21.61 43.5346C21.1444 42.6035 21.1182 41.7248 21.092 40.951C21.0723 40.4002 21.0592 39.8822 20.8887 39.3707C20.3379 37.7182 18.6067 36.5314 18.5871 36.5183L19.6756 34.8789C19.7674 34.9445 21.9838 36.4396 22.751 38.7478C23.0133 39.5281 23.033 40.2494 23.0592 40.8855C23.0789 41.5412 23.0985 42.1117 23.3739 42.656C24.4428 44.7871 22.9477 46.7215 21.1707 48.4986C19.4395 50.2297 19.4395 51.9084 19.4395 53.856C19.4395 54.8986 19.9444 55.8625 20.4756 56.8789C20.8166 57.5281 21.1641 58.1969 21.4067 58.9248C22.1018 61.0166 22.128 62.5379 21.4789 63.4363C21.0985 63.9609 20.5018 64.2494 19.8002 64.2494Z" fill="#0B0E11"/>
<path d="M29.3156 41.8494C29.0206 41.8494 28.7451 41.7183 28.5615 41.4953C28.0632 40.8986 16.4238 26.7937 16.4238 18.7084C16.4238 11.5937 22.2074 5.81006 29.3156 5.81006C36.4238 5.81006 42.2074 11.5937 42.2074 18.7019C42.2074 26.7937 30.5681 40.892 30.0697 41.4887C29.8861 41.7117 29.6042 41.8428 29.3156 41.8428V41.8494ZM29.3156 7.77727C23.2894 7.77727 18.391 12.6822 18.391 18.7019C18.391 24.7215 26.732 36.0133 29.3156 39.292C31.9058 36.0133 40.2402 24.9707 40.2402 18.7019C40.2402 12.433 35.3419 7.77727 29.3156 7.77727Z" fill="#0B0E11"/>
<path d="M29.314 23.4033C26.6451 23.4033 24.4746 21.2328 24.4746 18.564C24.4746 15.8951 26.6451 13.7246 29.314 13.7246C31.9828 13.7246 34.1533 15.8951 34.1533 18.564C34.1533 21.2328 31.9828 23.4033 29.314 23.4033ZM29.314 15.6984C27.7336 15.6984 26.4418 16.9836 26.4418 18.5705C26.4418 20.1574 27.7271 21.4426 29.314 21.4426C30.9008 21.4426 32.1861 20.1574 32.1861 18.5705C32.1861 16.9836 30.9008 15.6984 29.314 15.6984Z" fill="#0B0E11"/>
<path d="M47.6232 47.7904H42.974C42.8232 47.7904 42.6724 47.7576 42.5347 47.6855L39.7347 46.2822C39.2494 46.0396 39.0527 45.4494 39.2953 44.9642C39.5379 44.4789 40.1281 44.2822 40.6134 44.5248L43.2101 45.8232H47.6232C48.1675 45.8232 48.6068 46.2625 48.6068 46.8068C48.6068 47.351 48.1675 47.7904 47.6232 47.7904Z" fill="#0B0E11"/>
<path d="M35.2682 80.5508C29.0059 80.5508 23.9043 75.482 23.9043 69.2525C23.9043 63.023 28.9994 57.9541 35.2682 57.9541C36.5928 57.9541 37.8912 58.1771 39.124 58.623L38.4617 60.4721C37.4387 60.1049 36.3633 59.9213 35.2682 59.9213C30.0879 59.9213 25.8715 64.1115 25.8715 69.2525C25.8715 74.3934 30.0879 78.5836 35.2682 78.5836C39.3666 78.5836 42.96 75.9803 44.2125 72.1115L46.0813 72.7148C44.5666 77.4033 40.219 80.5508 35.2682 80.5508Z" fill="#0B0E11"/>
<path d="M46.6068 69.7574H44.6396C44.6396 65.7706 42.797 63.4624 41.6953 62.4329L43.033 60.9902C45.3347 63.1345 46.6068 66.2492 46.6068 69.7509V69.7574Z" fill="#0B0E11"/>
<path d="M73.57 80.5967C67.2815 80.5967 62.1602 75.5148 62.1602 69.2721C62.1602 65.9607 63.6159 62.8262 66.147 60.6754L67.4192 62.1771C65.3274 63.9607 64.1274 66.5443 64.1274 69.2787C64.1274 74.4393 68.3634 78.6361 73.57 78.6361C78.7766 78.6361 83.0126 74.4393 83.0126 69.2787C83.0126 64.118 78.7766 59.9213 73.57 59.9213C72.6716 59.9213 71.7864 60.0459 70.9339 60.2885L70.3897 58.4C71.4192 58.1049 72.488 57.9541 73.5634 57.9541C79.852 57.9541 84.9733 63.0361 84.9733 69.2787C84.9733 75.5213 79.8585 80.6033 73.5634 80.6033L73.57 80.5967Z" fill="#0B0E11"/>
<path d="M72.8815 69.7052L64.6651 47.797L61.7012 47.2003L62.0881 45.2725L65.5897 45.9741C65.9241 46.0397 66.1995 46.2757 66.3176 46.5905L74.7241 69.0102L72.8815 69.6987V69.7052Z" fill="#0B0E11"/>
<path d="M66.7246 52.6376L56.5801 65.5986L58.1292 66.8111L68.2737 53.8501L66.7246 52.6376Z" fill="#0B0E11"/>
<path d="M44.8665 46.3849L43.0957 47.2417L52.1151 65.8825L53.8859 65.0257L44.8665 46.3849Z" fill="#0B0E11"/>
<path d="M67.2958 51.7246H50.9023V53.6918H67.2958V51.7246Z" fill="#0B0E11"/>
<path d="M51.3871 70.7412H35.2691C34.8887 70.7412 34.5346 70.5182 34.3773 70.1707C34.2133 69.8231 34.2723 69.41 34.5215 69.1215L47.1445 54.269L48.6461 55.5412L37.4002 68.774H50.41C50.5346 66.6035 52.3379 64.8723 54.5412 64.8723C56.7445 64.8723 58.6789 66.7281 58.6789 69.01H56.7117C56.7117 67.8166 55.7412 66.8395 54.5412 66.8395C53.3412 66.8395 52.3707 67.81 52.3707 69.01V69.7576C52.3707 70.3018 51.9314 70.7412 51.3871 70.7412Z" fill="#0B0E11"/>
<path d="M55.8584 69.8975L53.918 70.2212L54.6192 74.4254L56.5596 74.1017L55.8584 69.8975Z" fill="#0B0E11"/>
<path d="M56.8033 75.3315H53.5246C52.9804 75.3315 52.541 74.8921 52.541 74.3479C52.541 73.8036 52.9804 73.3643 53.5246 73.3643H56.8033C57.3476 73.3643 57.7869 73.8036 57.7869 74.3479C57.7869 74.8921 57.3476 75.3315 56.8033 75.3315Z" fill="#0B0E11"/>
<path d="M21.066 71.3969H16.4758C15.9315 71.3969 15.4922 70.9576 15.4922 70.4133C15.4922 69.869 15.9315 69.4297 16.4758 69.4297H21.066C21.6102 69.4297 22.0496 69.869 22.0496 70.4133C22.0496 70.9576 21.6102 71.3969 21.066 71.3969Z" fill="#0B0E11"/>
<path d="M17.7866 75.9872H10.5735C10.0292 75.9872 9.58984 75.5479 9.58984 75.0036C9.58984 74.4594 10.0292 74.02 10.5735 74.02H17.7866C18.3308 74.02 18.7702 74.4594 18.7702 75.0036C18.7702 75.5479 18.3308 75.9872 17.7866 75.9872Z" fill="#0B0E11"/>
<path d="M55.1647 34.6757C56.0701 34.6757 56.8041 33.9417 56.8041 33.0363C56.8041 32.1309 56.0701 31.397 55.1647 31.397C54.2594 31.397 53.5254 32.1309 53.5254 33.0363C53.5254 33.9417 54.2594 34.6757 55.1647 34.6757Z" fill="#F06432"/>
<path d="M48.2784 35.1676C45.203 33.102 41.1702 31.6004 37.498 31.1479L37.7407 29.1938C41.7013 29.6791 46.0554 31.3053 49.3735 33.5283L48.2784 35.1611V35.1676Z" fill="#0B0E11"/>
<path d="M12.81 67.8298C10.3641 63.8364 9.07227 59.2331 9.07227 54.5249C9.07227 45.5806 14.5739 36.4003 22.7575 31.6855L23.7411 33.3905C16.1477 37.7708 11.046 46.2626 11.046 54.5249C11.046 58.8724 12.2395 63.1216 14.4952 66.8069L12.8165 67.8364L12.81 67.8298Z" fill="#0B0E11"/>
<path d="M25.0135 57.279C24.8365 57.279 24.6594 57.2593 24.489 57.2134C23.466 56.938 23.2365 56.02 23.0922 55.4691C23.0201 55.2003 22.9545 54.9183 22.8365 54.8134C22.1283 54.1839 21.689 52.9445 21.8004 51.8757C21.8857 51.0298 22.2988 50.3609 22.948 49.9872C23.3414 49.7642 23.925 49.2986 24.4431 48.8921C25.7217 47.8822 26.3644 47.3839 27.0857 47.5741C28.2463 47.8888 28.4365 49.4888 28.5217 50.9642C28.6135 52.5314 28.3512 53.4954 27.9906 54.8331C27.807 55.5085 27.3414 56.1708 26.7119 56.6495C26.1676 57.0626 25.5709 57.279 25.0135 57.279ZM25.0004 55.3118L24.7447 56.2626L25.0004 55.3118ZM26.4299 49.8429C26.1742 50.0331 25.8922 50.256 25.6627 50.4396C25.066 50.9118 24.4496 51.397 23.9316 51.6921C23.8135 51.7577 23.7742 51.9413 23.7545 52.079C23.7021 52.597 23.9447 53.1741 24.1414 53.3445C24.7053 53.8495 24.8758 54.5052 24.9939 54.9773C25.0201 55.0757 25.0529 55.2134 25.0857 55.3052C25.3742 55.2527 25.9578 54.8003 26.089 54.315C26.4234 53.0691 26.6267 52.3216 26.5545 51.0757C26.5217 50.5052 26.4758 50.1118 26.4234 49.8363L26.4299 49.8429Z" fill="#0B0E11"/>
<path d="M54.9546 45.4362C54.6595 45.4362 54.3841 45.3051 54.2005 45.0821C53.5513 44.3018 47.8398 37.3051 47.8398 33.0493C47.8398 29.128 51.0333 25.9346 54.9546 25.9346C58.8759 25.9346 62.0694 29.128 62.0694 33.0493C62.0694 37.3116 56.3644 44.3018 55.7087 45.0821C55.5251 45.3051 55.2431 45.4362 54.9546 45.4362ZM54.9546 27.8952C52.1153 27.8952 49.8071 30.2034 49.8071 33.0428C49.8071 35.6657 53.0333 40.387 54.9546 42.8723C56.8759 40.387 60.1021 35.6592 60.1021 33.0428C60.1021 30.2034 57.7939 27.8952 54.9546 27.8952Z" fill="#F06432"/>
</g>
<defs>
<clipPath id="clip0_595_8436">
<rect width="80" height="74.7869" fill="white" transform="translate(5 5.81006)"/>
</clipPath>
</defs>
</svg>
