<svg width="90" height="91" viewBox="0 0 90 91" fill="none" xmlns="http://www.w3.org/2000/svg">
<path d="M36.0613 26.2241H29.9708C29.7733 26.2241 29.5757 26.1811 29.3953 26.0866L25.7273 24.2483C25.0916 23.9305 24.8339 23.1574 25.1518 22.5217C25.4696 21.8861 26.2427 21.6284 26.8784 21.9462L30.2801 23.647H36.0613C36.7742 23.647 37.3498 24.2226 37.3498 24.9356C37.3498 25.6485 36.7742 26.2241 36.0613 26.2241Z" fill="#0B0E11"/>
<path d="M19.8867 69.132C11.6746 69.132 5 62.4918 5 54.3311C5 46.1705 11.6746 39.5303 19.8867 39.5303C21.622 39.5303 23.3228 39.8223 24.9378 40.4065L24.0702 42.8289C22.7301 42.3478 21.3213 42.1073 19.8867 42.1073C13.1005 42.1073 7.57705 47.5964 7.57705 54.3311C7.57705 61.0658 13.1005 66.5549 19.8867 66.5549C25.2556 66.5549 29.963 63.1446 31.6037 58.0764L34.0519 58.8667C32.0676 65.0087 26.3723 69.132 19.8867 69.132Z" fill="#0B0E11"/>
<path d="M34.729 55.0012H32.1519C32.1519 49.7783 29.7381 46.7546 28.2949 45.4059L30.0473 43.5161C33.0625 46.3251 34.729 50.4054 34.729 54.9926V55.0012Z" fill="#0B0E11"/>
<path d="M70.0621 69.1921C61.8241 69.1921 55.1152 62.5347 55.1152 54.3569C55.1152 50.0189 57.0222 45.9128 60.338 43.0952L62.0045 45.0623C59.2643 47.3989 57.6923 50.7834 57.6923 54.3655C57.6923 61.1259 63.2415 66.6236 70.0621 66.6236C76.8827 66.6236 82.4319 61.1259 82.4319 54.3655C82.4319 47.605 76.8827 42.1073 70.0621 42.1073C68.8853 42.1073 67.7256 42.2705 66.6089 42.5884L65.8959 40.1144C67.2445 39.7278 68.6447 39.5303 70.0535 39.5303C78.2915 39.5303 85.0004 46.1876 85.0004 54.3655C85.0004 62.5433 78.3001 69.2007 70.0535 69.2007L70.0621 69.1921Z" fill="#F06432"/>
<path d="M69.1599 54.9239L58.3964 26.2242L54.5137 25.4425L55.0205 22.917L59.6076 23.8361C60.0457 23.922 60.4065 24.2313 60.5611 24.6436L71.5737 54.0134L69.1599 54.9153V54.9239Z" fill="#0B0E11"/>
<path d="M61.0862 32.5689L47.7969 49.5479L49.8262 51.1362L63.1155 34.1573L61.0862 32.5689Z" fill="#0B0E11"/>
<path d="M32.4506 24.3746L30.1309 25.4971L41.9462 49.9165L44.266 48.7941L32.4506 24.3746Z" fill="#0B0E11"/>
<path d="M61.8328 31.3779H40.3574V33.955H61.8328V31.3779Z" fill="#0B0E11"/>
<path d="M40.9926 56.2897H19.8866C19.3883 56.2897 18.9245 55.9976 18.7183 55.5424C18.5036 55.0871 18.5809 54.5459 18.9073 54.1679L35.4348 34.7026L37.4019 36.3691L22.6698 53.7041H39.7127C39.8759 50.8607 42.2382 48.5929 45.1245 48.5929C48.0107 48.5929 50.5448 51.0239 50.5448 54.0133H47.9678C47.9678 52.4499 46.6965 51.17 45.1245 51.17C43.5525 51.17 42.2811 52.4413 42.2811 54.0133V54.9926C42.2811 55.7056 41.7056 56.2811 40.9926 56.2811V56.2897Z" fill="#0B0E11"/>
<path d="M46.8544 55.1815L44.3125 55.6055L45.2312 61.113L47.7731 60.689L46.8544 55.1815Z" fill="#0B0E11"/>
</svg>
