<svg width="91" height="91" viewBox="0 0 91 91" fill="none" xmlns="http://www.w3.org/2000/svg">
<path d="M76.1458 41.0302H74.3877C74.1052 41.0302 73.8369 40.917 73.6392 40.719C72.4389 39.5165 70.8431 38.8516 69.1485 38.8516C68.866 38.8516 68.5977 38.7384 68.4 38.5404L67.1573 37.2955C66.9596 37.0974 66.8466 36.8286 66.8466 36.5457C66.8466 34.8481 66.1829 33.2495 64.9826 32.047C64.7848 31.849 64.6719 31.5802 64.6719 31.2972V29.543C64.6719 29.2601 64.7848 28.9913 64.9826 28.7933C66.1829 27.5908 66.8466 25.9922 66.8466 24.2946C66.8466 24.0117 66.9596 23.7429 67.1573 23.5448L68.4 22.2999C68.5977 22.1018 68.866 21.9887 69.1485 21.9887C70.8431 21.9887 72.4389 21.3238 73.6392 20.1213C73.8369 19.9232 74.1052 19.8101 74.3877 19.8101H76.1458C76.4283 19.8101 76.6966 19.9232 76.8943 20.1213C78.0946 21.3238 79.6904 21.9887 81.385 21.9887C81.6675 21.9887 81.9358 22.1018 82.1335 22.2999L83.3762 23.5448C83.5739 23.7429 83.6869 24.0117 83.6869 24.2946C83.6869 25.9922 84.3506 27.5908 85.551 28.7933C85.7487 28.9913 85.8616 29.2601 85.8616 29.543V31.2972C85.8616 31.5802 85.7487 31.849 85.551 32.047C84.3506 33.2495 83.6869 34.8481 83.6869 36.5457C83.6869 36.8286 83.5739 37.0974 83.3762 37.2955L82.1335 38.5404C81.9358 38.7384 81.6675 38.8516 81.385 38.8516C79.6904 38.8516 78.0946 39.5165 76.8943 40.719C76.6966 40.917 76.4283 41.0302 76.1458 41.0302ZM74.8113 38.9082H75.7222C77.1697 37.5996 78.9914 36.8498 80.9331 36.7437L81.5757 36.1001C81.6745 34.1549 82.43 32.3229 83.7363 30.8799V29.9674C82.43 28.5174 81.6745 26.6925 81.5757 24.7473L80.9331 24.1036C78.9914 24.0046 77.1626 23.2477 75.7222 21.9391H74.8113C73.3638 23.2477 71.5421 23.9975 69.6004 24.1036L68.9578 24.7473C68.859 26.6925 68.1035 28.5245 66.7972 29.9674V30.8799C68.1035 32.33 68.859 34.1549 68.9578 36.1001L69.6004 36.7437C71.5421 36.8428 73.3709 37.5996 74.8113 38.9082Z" fill="#F06432"/>
<path d="M75.2717 34.6643C72.9345 34.6643 71.0352 32.7616 71.0352 30.4203C71.0352 28.079 72.9345 26.1763 75.2717 26.1763C77.6089 26.1763 79.5082 28.079 79.5082 30.4203C79.5082 32.7616 77.6089 34.6643 75.2717 34.6643ZM75.2717 28.2983C74.1066 28.2983 73.1534 29.2532 73.1534 30.4203C73.1534 31.5874 74.1066 32.5423 75.2717 32.5423C76.4367 32.5423 77.39 31.5874 77.39 30.4203C77.39 29.2532 76.4367 28.2983 75.2717 28.2983Z" fill="#F06432"/>
<path d="M27.9881 70.0674H15.3844V41.0523H8.5V30.8101H27.9881V70.0674ZM17.5026 67.9453H25.8698V32.9321H10.6183V38.9303H17.5026V67.9453Z" fill="#3C3C3C"/>
<path d="M45.4644 70.8101C42.7813 70.8101 40.084 70.4776 37.4503 69.8269C34.7883 69.162 32.4653 68.2071 30.5447 66.9904L29.7539 66.4882L34.4423 56.6279L35.4591 57.307C36.8431 58.2336 38.3964 58.9551 40.0699 59.4502C41.7433 59.9524 43.4521 60.2 45.1467 60.2C46.7354 60.2 47.9922 59.91 48.896 59.33C49.6656 58.8348 50.0187 58.2053 50.0187 57.3353C50.0187 56.4652 49.6868 55.8781 48.9454 55.4325C48.3382 55.0647 46.9613 54.6261 43.8757 54.6261H32.663L34.6965 30.8101H60.3488V41.0523H45.3232L45.0337 44.3414H46.3682C51.791 44.3414 55.9004 45.4944 58.5694 47.7791C61.295 50.0992 62.6718 53.2327 62.6718 57.0735C62.6718 59.5634 62.0222 61.8834 60.7442 63.9701C59.4591 66.0638 57.4891 67.7544 54.8907 68.9851C52.3417 70.1947 49.1643 70.8101 45.4573 70.8101H45.4644ZM32.4865 65.6748C34.054 66.5519 35.8898 67.2521 37.9657 67.7685C40.43 68.3839 42.9507 68.6951 45.4715 68.6951C48.8607 68.6951 51.7274 68.1505 53.994 67.0753C56.2111 66.0214 57.8775 64.6067 58.9437 62.8596C60.0169 61.1124 60.5606 59.1673 60.5606 57.0735C60.5606 53.8339 59.4591 51.3229 57.1996 49.3918C54.919 47.4467 51.2755 46.4635 46.3682 46.4635H42.7248L43.3885 38.9303H58.2305V32.9321H36.6453L34.9719 52.5041H43.8828C46.7919 52.5041 48.8042 52.8649 50.0399 53.6076C51.4167 54.4352 52.144 55.7225 52.144 57.3282C52.144 58.9338 51.4167 60.2283 50.0399 61.1124C48.7972 61.9117 47.152 62.3149 45.1537 62.3149C43.1555 62.3149 41.3479 62.032 39.4768 61.4732C38.0081 61.0346 36.6171 60.4405 35.325 59.6978L32.4865 65.6606V65.6748Z" fill="#3C3C3C"/>
</svg>
