<svg width="24" height="24" viewBox="0 0 24 24" fill="none" xmlns="http://www.w3.org/2000/svg">
<path d="M12.1797 4C9.28169 4 5.52028 4.72611 5.52028 4.72611L5.51082 4.73693C4.19092 4.94802 3.17969 6.0822 3.17969 7.46154V11.6154V11.6167V15.7692V15.7706C3.18098 16.4293 3.41706 17.0661 3.84555 17.5664C4.27404 18.0668 4.86686 18.398 5.51758 18.5006L5.52028 18.5047C5.52028 18.5047 9.28169 19.2321 12.1797 19.2321C15.0777 19.2321 18.8391 18.5047 18.8391 18.5047L18.8404 18.5033C19.4919 18.4009 20.0854 18.0694 20.5142 17.5685C20.943 17.0675 21.179 16.43 21.1797 15.7706V15.7692V11.6167V11.6154V7.46154C21.1787 6.80255 20.9428 6.16551 20.5143 5.66487C20.0857 5.16423 19.4927 4.83281 18.8418 4.73017L18.8391 4.72611C18.8391 4.72611 15.0777 4 12.1797 4ZM10.1028 8.42969L15.6412 11.6154L10.1028 14.8011V8.42969Z" fill="#9E9E9E"/>
</svg>
