<svg width="24" height="24" viewBox="0 0 24 24" fill="none" xmlns="http://www.w3.org/2000/svg">
<path d="M23.4516 20.7982L17.8406 15.1879C19.1166 13.2939 19.7461 10.9274 19.4091 8.40579C18.8344 4.11671 15.3188 0.626306 11.025 0.082755C4.64106 -0.724956 -0.727088 4.6426 0.0807586 11.0258C0.624511 15.321 4.11577 18.8391 8.40579 19.4109C10.9277 19.7478 13.2949 19.1186 15.1886 17.8426L20.7996 23.4529C21.5318 24.185 22.7191 24.185 23.4513 23.4529C24.1828 22.7199 24.1828 21.5294 23.4516 20.7982ZM3.70777 9.75096C3.70777 6.44287 6.39934 3.7516 9.7078 3.7516C13.0162 3.7516 15.7078 6.44287 15.7078 9.75096C15.7078 13.059 13.0162 15.7503 9.7078 15.7503C6.39934 15.7503 3.70777 13.06 3.70777 9.75096Z" fill="white"/>
</svg>
